<svg width="448" height="330" viewBox="0 0 448 330" fill="none" xmlns="http://www.w3.org/2000/svg">
<g clip-path="url(#clip0_555_1019)">
<path d="M397.627 312.273C411.689 302.029 421.378 284.437 418.302 267.33C405.907 281.615 388.852 291.062 370.154 293.999C362.938 295.105 354.798 295.586 349.919 301.008C346.883 304.381 345.768 309.138 345.937 313.67C346.106 318.203 347.431 322.603 348.746 326.945L348.538 328.058C365.874 326.503 383.565 322.516 397.627 312.273Z" fill="#F0F0F0"/>
<path d="M417.937 267.345C413.191 280.929 404.28 292.675 392.47 300.913C389.958 302.732 387.176 304.144 384.225 305.097C381.32 305.933 378.243 305.977 375.316 305.224C372.572 304.577 369.84 303.598 366.986 303.628C365.526 303.665 364.089 304.01 362.772 304.641C361.454 305.271 360.285 306.172 359.34 307.286C356.915 309.998 355.611 313.419 354.451 316.809C353.164 320.573 351.887 324.503 349.013 327.392C348.665 327.742 349.229 328.261 349.577 327.911C354.576 322.885 354.752 315.235 358.588 309.507C360.379 306.835 362.986 304.685 366.299 304.425C369.196 304.198 372.013 305.206 374.786 305.885C377.631 306.661 380.624 306.73 383.502 306.085C386.492 305.284 389.325 303.982 391.877 302.233C397.688 298.386 402.856 293.651 407.193 288.202C412.178 282.009 416.065 275.011 418.686 267.51C418.848 267.045 418.098 266.884 417.937 267.345Z" fill="white"/>
<path d="M396.429 298.484C398.082 300.275 400.319 301.421 402.74 301.717C405.161 302.014 407.609 301.441 409.646 300.101C410.058 299.829 409.653 299.178 409.241 299.45C407.346 300.701 405.066 301.235 402.812 300.954C400.558 300.674 398.479 299.598 396.949 297.921C396.616 297.557 396.098 298.122 396.429 298.484Z" fill="white"/>
<path d="M376.664 305.736C376.822 300.758 378.853 296.024 382.352 292.476C382.699 292.125 382.135 291.606 381.788 291.956C378.154 295.655 376.051 300.587 375.897 305.766C375.883 306.26 376.649 306.227 376.664 305.736Z" fill="white"/>
<path d="M411.197 281.74C410.413 281.18 409.78 280.434 409.356 279.57C408.931 278.705 408.728 277.749 408.766 276.787C408.786 276.294 408.02 276.328 407.999 276.818C407.963 277.881 408.188 278.936 408.655 279.893C409.122 280.849 409.816 281.676 410.677 282.303C410.753 282.369 410.851 282.403 410.952 282.399C411.053 282.395 411.148 282.353 411.219 282.281C411.287 282.206 411.323 282.107 411.319 282.006C411.315 281.905 411.271 281.809 411.197 281.74Z" fill="white"/>
<path d="M366.966 238.429C366.944 238.736 366.923 239.044 366.896 239.355C366.584 243.49 365.936 247.592 364.959 251.622C364.888 251.935 364.812 252.25 364.733 252.561C362.275 262.244 358.038 271.388 352.237 279.527C349.926 282.764 347.372 285.82 344.596 288.67C340.763 292.605 336.293 296.567 334.051 301.395C333.812 301.896 333.604 302.411 333.428 302.938L347.194 327.718C347.254 327.759 347.308 327.803 347.368 327.844L347.872 328.858C348.025 328.721 348.181 328.576 348.335 328.439C348.424 328.36 348.51 328.275 348.6 328.196C348.658 328.142 348.717 328.087 348.773 328.041C348.792 328.023 348.812 328.005 348.826 327.99C348.882 327.944 348.929 327.895 348.979 327.853C349.854 327.043 350.725 326.225 351.592 325.4C351.598 325.396 351.598 325.396 351.601 325.388C358.19 319.083 364.31 312.173 369.185 304.556C369.331 304.327 369.484 304.095 369.624 303.854C371.802 300.408 373.695 296.791 375.283 293.037C376.146 290.979 376.904 288.878 377.555 286.743C379.224 281.224 380.014 275.477 379.896 269.713C379.657 258.222 375.742 246.935 367.594 239.027C367.386 238.825 367.18 238.628 366.966 238.429Z" fill="#F0F0F0"/>
<path d="M366.682 238.659C371.083 252.358 371.049 267.094 366.586 280.773C365.678 283.735 364.308 286.535 362.526 289.071C360.71 291.485 358.281 293.369 355.489 294.529C352.908 295.662 350.136 296.522 347.876 298.262C346.732 299.17 345.794 300.309 345.122 301.604C344.45 302.9 344.059 304.322 343.976 305.779C343.675 309.403 344.696 312.919 345.815 316.323C347.056 320.102 348.405 324.008 347.853 328.042C347.786 328.531 348.549 328.606 348.616 328.118C349.578 321.099 345.105 314.885 344.715 308.005C344.533 304.795 345.319 301.51 347.808 299.312C349.984 297.389 352.841 296.499 355.464 295.374C358.204 294.283 360.635 292.539 362.544 290.294C364.449 287.857 365.925 285.114 366.909 282.182C369.229 275.618 370.501 268.73 370.678 261.771C370.925 253.83 369.809 245.905 367.38 238.34C367.229 237.872 366.533 238.194 366.682 238.659Z" fill="white"/>
<path d="M368.283 276.453C370.683 276.889 373.16 276.459 375.272 275.24C377.384 274.021 378.993 272.091 379.812 269.797C379.976 269.332 379.26 269.055 379.096 269.521C378.337 271.659 376.838 273.456 374.869 274.587C372.9 275.719 370.591 276.11 368.359 275.69C367.874 275.6 367.801 276.363 368.283 276.453Z" fill="white"/>
<path d="M356.873 294.126C353.999 290.057 352.767 285.055 353.421 280.119C353.486 279.63 352.723 279.555 352.658 280.043C351.986 285.181 353.28 290.383 356.28 294.611C356.566 295.014 357.158 294.527 356.873 294.126Z" fill="white"/>
<path d="M369.979 254.204C369.015 254.229 368.061 254.014 367.201 253.579C366.34 253.144 365.602 252.502 365.052 251.711C364.771 251.305 364.179 251.793 364.458 252.197C365.07 253.067 365.887 253.775 366.836 254.258C367.785 254.741 368.838 254.984 369.903 254.967C370.004 254.973 370.103 254.942 370.181 254.878C370.259 254.814 370.31 254.723 370.323 254.623C370.332 254.522 370.302 254.422 370.237 254.343C370.173 254.265 370.08 254.215 369.979 254.204Z" fill="white"/>
<path d="M180.817 -13.4897C182.587 -15.058 184.443 -16.5706 186.335 -17.9853L187.029 -17.0599C185.163 -15.6639 183.332 -14.1717 181.586 -12.6245L180.817 -13.4897ZM192.206 -22.0087C194.21 -23.2624 196.291 -24.4477 198.392 -25.532L198.924 -24.5042C196.851 -23.4349 194.798 -22.2656 192.822 -21.0288L192.206 -22.0087ZM204.848 -28.531C207.027 -29.4361 209.275 -30.2628 211.528 -30.989L211.884 -29.8881C209.66 -29.172 207.443 -28.3559 205.293 -27.4632L204.848 -28.531ZM218.653 -31.77L218.388 -32.8956C220.693 -33.4371 223.044 -33.8894 225.377 -34.2402L225.549 -33.0963C223.248 -32.7504 220.927 -32.3041 218.653 -31.77ZM232.531 -33.854L232.454 -35.008C234.813 -35.1657 237.207 -35.2268 239.57 -35.1893L239.552 -34.0326C237.22 -34.0699 234.858 -34.0096 232.531 -33.854ZM246.564 -33.6295L246.678 -34.7802C249.031 -34.5467 251.405 -34.2114 253.732 -33.7835L253.523 -32.646C251.226 -33.0682 248.885 -33.3991 246.564 -33.6295ZM289.972 118.766C291.822 117.351 293.637 115.84 295.366 114.274L296.144 115.131C294.391 116.719 292.551 118.25 290.676 119.684L289.972 118.766ZM260.376 -31.0913L260.678 -32.2076C262.959 -31.59 265.244 -30.8692 267.47 -30.0654L267.076 -28.978C264.88 -29.7709 262.626 -30.4821 260.376 -31.0913ZM300.371 109.353C301.964 107.652 303.506 105.863 304.954 104.037L305.862 104.755C304.394 106.606 302.831 108.419 301.217 110.143L300.371 109.353ZM273.579 -26.3218L274.061 -27.3737C276.212 -26.3907 278.347 -25.307 280.409 -24.1519L279.843 -23.1434C277.808 -24.2828 275.701 -25.3523 273.579 -26.3218ZM309.085 98.3631C310.379 96.4238 311.608 94.4075 312.738 92.37L313.751 92.9304C312.606 94.9953 311.36 97.0389 310.049 99.0042L309.085 98.3631ZM285.824 -19.4639L286.471 -20.4228C288.431 -19.1036 290.361 -17.6866 292.207 -16.2112L291.483 -15.3083C289.662 -16.764 287.758 -18.1621 285.824 -19.4639ZM315.887 86.0986C316.846 83.9746 317.729 81.7847 318.511 79.5903L319.602 79.9778C318.81 82.2022 317.915 84.4214 316.943 86.5741L315.887 86.0986ZM296.781 -10.7045L297.576 -11.545C299.295 -9.92231 300.966 -8.20956 302.542 -6.45392L301.68 -5.68189C300.125 -7.41388 298.476 -9.10357 296.781 -10.7045ZM320.591 72.8886C321.19 70.6333 321.701 68.3285 322.11 66.0382L323.251 66.2414C322.836 68.563 322.317 70.8991 321.711 73.185L320.591 72.8886ZM306.147 -0.27346L307.07 -0.971962C308.497 0.909485 309.862 2.87296 311.127 4.86418L310.149 5.48363C308.901 3.51944 307.555 1.58234 306.147 -0.27346ZM323.057 59.0856C323.275 56.767 323.399 54.4095 323.423 52.0788L324.581 52.0913C324.556 54.4536 324.432 56.8433 324.21 59.1938L323.057 59.0856ZM313.662 11.5566L314.688 11.0204C315.783 13.1091 316.805 15.2723 317.726 17.4492L316.659 17.8992C315.751 15.7515 314.742 13.6177 313.662 11.5566ZM323.206 45.0661C323.038 42.7475 322.77 40.4027 322.409 38.0968L323.554 37.9185C323.919 40.2555 324.191 42.6323 324.361 44.9824L323.206 45.0661ZM319.123 24.4669L320.223 24.1057C320.96 26.3449 321.616 28.6528 322.169 30.9446L321.043 31.2157C320.497 28.9523 319.85 26.6769 319.123 24.4669Z" fill="#F0F0F0"/>
<path d="M299.239 156.125L307.153 129.707L292.13 126.026L286.6 152.931L277.146 190.672C275.908 191.314 274.885 192.305 274.203 193.521C273.522 194.737 273.212 196.126 273.312 197.516C273.412 198.906 273.917 200.236 274.766 201.343C275.614 202.449 276.768 203.283 278.085 203.743C279.403 204.202 280.826 204.266 282.18 203.926C283.533 203.587 284.758 202.859 285.702 201.833C286.646 200.807 287.269 199.528 287.493 198.152C287.717 196.777 287.534 195.366 286.964 194.094L287.11 194.142L299.239 156.125Z" fill="#FFB6B6"/>
<path d="M359.769 156.146L359.145 128.578L343.717 129.7L346.759 156.997L349.412 195.81C348.432 196.803 347.765 198.06 347.492 199.426C347.219 200.793 347.353 202.209 347.877 203.501C348.401 204.793 349.292 205.903 350.441 206.694C351.589 207.486 352.944 207.924 354.34 207.956C355.735 207.987 357.108 207.61 358.291 206.871C359.474 206.131 360.415 205.062 360.996 203.796C361.578 202.529 361.775 201.12 361.564 199.742C361.353 198.365 360.743 197.079 359.809 196.044L359.962 196.045L359.769 156.146Z" fill="#FFB6B6"/>
<path d="M293.344 320.485H283.864L280.9 283.967L293.346 283.968L293.344 320.485Z" fill="#FFB6B6"/>
<path d="M295.762 329.663L265.193 329.662V329.276C265.193 327.715 265.5 326.17 266.098 324.729C266.696 323.287 267.573 321.977 268.678 320.874C269.783 319.77 271.094 318.895 272.538 318.298C273.982 317.701 275.529 317.394 277.091 317.394H277.092L295.763 317.394L295.762 329.663Z" fill="#2F2E41"/>
<path d="M344.384 320.485H334.903L330.393 283.967L344.386 283.968L344.384 320.485Z" fill="#FFB6B6"/>
<path d="M346.801 329.663L316.232 329.662V329.276C316.232 327.715 316.539 326.17 317.137 324.729C317.735 323.287 318.612 321.977 319.717 320.874C320.822 319.77 322.133 318.895 323.577 318.298C325.021 317.701 326.568 317.394 328.13 317.394H328.131L346.802 317.394L346.801 329.663Z" fill="#2F2E41"/>
<path d="M342.702 308.801C342.632 308.801 342.561 308.798 342.49 308.794L334.33 308.341C333.457 308.294 332.63 307.94 331.992 307.344C331.355 306.747 330.949 305.945 330.845 305.079L320.85 216.197C320.826 216.009 320.744 215.833 320.616 215.693C320.488 215.553 320.32 215.456 320.135 215.414C319.95 215.373 319.756 215.39 319.581 215.463C319.405 215.536 319.257 215.661 319.155 215.821L306.419 235.958C304.154 239.529 302.687 243.545 302.119 247.734L295.649 301.119C295.525 302.008 295.085 302.824 294.408 303.415C293.731 304.006 292.863 304.334 291.964 304.337H282.909C281.954 304.338 281.036 303.972 280.344 303.314C279.652 302.657 279.241 301.758 279.195 300.806L277.127 252.431C276.792 245.69 277.719 238.946 279.861 232.544L299.355 182.723L299.468 182.691L346.392 169.302L346.413 305.188C346.387 306.154 345.984 307.072 345.292 307.746C344.599 308.421 343.67 308.799 342.702 308.801Z" fill="#2F2E41"/>
<path d="M335.955 104.355H311.012L292.585 113.182L298.844 183.391L345.677 184.632L355.274 114.982L335.955 104.355Z" fill="#FAA033"/>
<path d="M348.649 117.209L355.274 114.982L366.743 141.46L341.679 150.024L348.649 117.209Z" fill="#FAA033"/>
<path d="M301.985 116.258L292.585 113.181L278.301 136.585L301.985 148.892V116.258Z" fill="#FAA033"/>
<path d="M324.253 98.2344C332.218 98.2344 338.675 91.7864 338.675 83.8324C338.675 75.8783 332.218 69.4303 324.253 69.4303C316.288 69.4303 309.831 75.8783 309.831 83.8324C309.831 91.7864 316.288 98.2344 324.253 98.2344Z" fill="#FFB6B6"/>
<path d="M328.61 63.6055C326.158 63.2041 323.718 63.8899 321.278 63.9694C320.078 64.0084 318.872 63.8597 317.678 63.983C316.484 64.1064 315.248 64.5558 314.542 65.5251C314.047 66.2032 313.82 67.1139 313.114 67.5687C312.564 67.9233 311.839 67.9128 311.285 68.2613C310.218 68.9324 310.259 70.5503 309.4 71.4732C308.992 71.9121 308.392 72.1777 308.102 72.7021C307.943 73.0473 307.86 73.4225 307.858 73.8025L307.441 79.3164C307.384 79.475 307.368 79.6457 307.394 79.8123C307.421 79.979 307.489 80.1362 307.593 80.2693C307.697 80.4023 307.833 80.5069 307.988 80.5732C308.144 80.6395 308.313 80.6653 308.481 80.6483C309.478 80.7841 310.691 80.8325 311.27 80.0109C311.955 79.0393 311.436 77.2349 312.565 76.8596C313.566 76.5271 314.373 77.9287 315.427 77.958C316.221 77.98 316.789 77.2398 317.303 76.6345C317.817 76.0292 318.667 75.4548 319.346 75.8674C319.913 76.2116 319.958 77.0234 320.386 77.53C321.031 78.2951 322.26 78.104 323.173 77.6913C324.085 77.2785 325.03 76.6961 326.012 76.8954C327.383 77.1738 328.09 78.8343 329.432 79.2327C331.353 79.8032 333.42 77.5137 335.219 78.3943C336.063 78.807 336.466 79.7886 336.609 80.7157C336.752 81.6427 336.712 82.6051 337.007 83.4958C337.301 84.3867 338.071 85.2266 339.01 85.1881C338.943 84.546 339.1 83.9004 339.454 83.3603C339.732 82.9389 340.123 82.5969 340.375 82.1596C341.249 80.6468 340.188 78.7416 340.398 77.0081C340.451 76.5711 340.587 76.1441 340.599 75.7041C340.632 74.5183 339.793 73.5085 339.001 72.6238L338.071 71.5841C337.247 70.6056 336.337 69.7028 335.352 68.8864C334.57 68.3513 333.817 67.776 333.096 67.1627C331.647 65.7684 330.749 63.9558 328.61 63.6055Z" fill="#2F2E41"/>
<path d="M9.31396 196.794V14.5244C9.31483 13.7313 9.6307 12.971 10.1923 12.4102C10.7538 11.8494 11.5152 11.534 12.3094 11.5331H274.115C274.909 11.5339 275.671 11.8494 276.232 12.4102C276.794 12.971 277.11 13.7313 277.111 14.5244V196.794C277.11 197.587 276.794 198.347 276.232 198.908C275.671 199.469 274.909 199.784 274.115 199.785H12.3094C11.5152 199.784 10.7538 199.469 10.1923 198.908C9.6307 198.347 9.31483 197.587 9.31396 196.794Z" fill="white"/>
<path d="M12.3094 201.687C11.0111 201.684 9.76686 201.168 8.84865 200.251C7.93044 199.335 7.41295 198.092 7.4093 196.796V14.5244C7.41239 13.2279 7.92934 11.9854 8.84715 11.0685C9.76495 10.1515 11.009 9.63471 12.3072 9.63104H274.115C275.413 9.63416 276.658 10.1504 277.576 11.067C278.494 11.9835 279.012 13.2258 279.015 14.5223V196.794C279.012 198.09 278.495 199.333 277.577 200.25C276.66 201.167 275.416 201.683 274.117 201.687H12.3094ZM11.2186 196.792C11.2194 197.081 11.3348 197.358 11.5396 197.562C11.7444 197.767 12.0219 197.882 12.3115 197.883H274.115C274.404 197.882 274.682 197.766 274.886 197.562C275.09 197.357 275.205 197.08 275.206 196.792V14.5244C275.205 14.2355 275.089 13.9588 274.884 13.7547C274.68 13.5506 274.402 13.4357 274.113 13.435H12.3094C12.0201 13.4363 11.743 13.5517 11.5387 13.7562C11.3343 13.9607 11.2192 14.2376 11.2186 14.5265V196.792Z" fill="#E4E4E4"/>
<path d="M231.114 54.1071C231.737 54.1173 232.331 54.3717 232.768 54.8153C233.205 55.259 233.45 55.8563 233.45 56.4786C233.45 57.1009 233.205 57.6983 232.768 58.1419C232.331 58.5855 231.737 58.8399 231.114 58.8501H171.571C171.258 58.8556 170.948 58.7995 170.658 58.6852C170.368 58.5709 170.103 58.4006 169.878 58.184C169.654 57.9673 169.474 57.7087 169.35 57.4227C169.226 57.1368 169.159 56.8292 169.154 56.5176C169.149 56.206 169.206 55.8964 169.32 55.6065C169.435 55.3167 169.606 55.0523 169.823 54.8284C170.04 54.6045 170.299 54.4256 170.586 54.3018C170.872 54.1781 171.18 54.1119 171.493 54.1071C171.519 54.1067 171.545 54.1067 171.571 54.1071H231.114Z" fill="#E4E4E4"/>
<path d="M231.114 70.8709C231.737 70.8811 232.332 71.1354 232.769 71.5791C233.206 72.0227 233.451 72.6201 233.451 73.2424C233.451 73.8647 233.206 74.4621 232.769 74.9057C232.332 75.3494 231.737 75.6037 231.114 75.6139H171.571C171.259 75.619 170.949 75.5627 170.659 75.4483C170.369 75.3338 170.104 75.1634 169.88 74.9468C169.656 74.7302 169.477 74.4717 169.353 74.1859C169.228 73.9001 169.162 73.5928 169.157 73.2813C169.152 72.9699 169.208 72.6605 169.323 72.3708C169.437 72.0812 169.608 71.8169 169.825 71.593C170.042 71.3692 170.301 71.1902 170.587 71.0663C170.873 70.9424 171.181 70.876 171.493 70.8709C171.519 70.8705 171.545 70.8705 171.571 70.8709H231.114Z" fill="#E4E4E4"/>
<path d="M231.114 87.6347C231.737 87.645 232.331 87.8993 232.768 88.3429C233.205 88.7866 233.45 89.3839 233.45 90.0062C233.45 90.6285 233.205 91.2259 232.768 91.6695C232.331 92.1131 231.737 92.3675 231.114 92.3777H171.571C171.258 92.3832 170.948 92.3271 170.658 92.2128C170.368 92.0985 170.103 91.9282 169.878 91.7116C169.654 91.495 169.474 91.2363 169.35 90.9503C169.226 90.6644 169.159 90.3569 169.154 90.0452C169.149 89.7336 169.206 89.424 169.32 89.1341C169.435 88.8443 169.606 88.5799 169.823 88.356C170.04 88.1321 170.299 87.9532 170.586 87.8294C170.872 87.7057 171.18 87.6395 171.493 87.6347C171.519 87.6343 171.545 87.6343 171.571 87.6347H231.114Z" fill="#E4E4E4"/>
<path d="M193.172 113.55C193.172 111.944 193.649 110.374 194.543 109.039C195.436 107.704 196.706 106.663 198.192 106.048C199.678 105.434 201.312 105.273 202.89 105.586C204.467 105.899 205.916 106.673 207.053 107.808C208.19 108.944 208.965 110.391 209.278 111.966C209.592 113.541 209.431 115.174 208.816 116.657C208.2 118.141 207.158 119.409 205.821 120.301C204.484 121.194 202.912 121.67 201.303 121.67C200.236 121.67 199.178 121.46 198.192 121.052C197.205 120.644 196.309 120.045 195.554 119.292C194.799 118.538 194.2 117.642 193.791 116.657C193.383 115.672 193.172 114.616 193.172 113.55Z" fill="#FAA033"/>
<path d="M198.095 112.749H200.501V110.346C200.502 110.134 200.586 109.931 200.736 109.781C200.886 109.631 201.09 109.546 201.302 109.546C201.514 109.546 201.718 109.629 201.869 109.779C202.019 109.928 202.104 110.131 202.105 110.343V112.749H204.512C204.724 112.749 204.928 112.833 205.079 112.984C205.229 113.134 205.314 113.337 205.314 113.55C205.314 113.762 205.229 113.966 205.079 114.116C204.928 114.267 204.724 114.351 204.512 114.351H202.105V116.754C202.105 116.966 202.02 117.169 201.87 117.318C201.719 117.468 201.516 117.552 201.303 117.552C201.091 117.552 200.888 117.468 200.737 117.318C200.587 117.169 200.502 116.966 200.501 116.754V114.351H198.095C197.99 114.351 197.885 114.331 197.788 114.291C197.691 114.25 197.602 114.192 197.527 114.117C197.453 114.043 197.394 113.955 197.353 113.858C197.313 113.761 197.292 113.657 197.292 113.551C197.291 113.446 197.312 113.342 197.352 113.245C197.392 113.148 197.451 113.059 197.525 112.985C197.6 112.91 197.688 112.851 197.785 112.811C197.882 112.77 197.987 112.749 198.092 112.749H198.095Z" fill="white"/>
<path d="M116.985 75.6737C116.989 79.4665 116.312 83.2294 114.985 86.7832C114.382 88.411 113.643 89.985 112.775 91.4885C109.984 96.351 105.958 100.392 101.102 103.202C96.246 106.012 90.7333 107.491 85.1211 107.491C79.5088 107.491 73.9961 106.012 69.1403 103.202C64.2844 100.392 60.2577 96.351 57.4671 91.4885C57.1847 90.9994 56.9168 90.5031 56.6635 89.9995C54.4976 85.7089 53.3327 80.9842 53.2563 76.1799C53.18 71.3755 54.194 66.6163 56.2225 62.2593C58.251 57.9022 61.2412 54.0604 64.9688 51.0221C68.6964 47.9839 73.0645 45.828 77.7456 44.7163C82.4266 43.6046 87.299 43.5659 91.9972 44.6031C96.6954 45.6403 101.097 47.7265 104.873 50.7052C108.648 53.6838 111.699 57.4776 113.797 61.8019C115.895 66.1262 116.984 70.8687 116.985 75.6737Z" fill="#E4E4E4"/>
<path d="M86.7776 81.0454C90.1419 81.0454 92.8692 78.3219 92.8692 74.9622C92.8692 71.6026 90.1419 68.879 86.7776 68.879C83.4132 68.879 80.6859 71.6026 80.6859 74.9622C80.6859 78.3219 83.4132 81.0454 86.7776 81.0454Z" fill="#FAA033"/>
<path d="M56.6635 89.9994C59.3474 87.1029 62.9354 82.5043 66.3005 85.8271C67.9893 87.3945 70.6325 91.2784 73.1626 88.7393L92.9201 69.0092C93.292 68.6425 93.7336 68.3537 94.2189 68.1598C94.7042 67.966 95.2234 67.8709 95.746 67.8803C96.2686 67.8896 96.7841 68.0032 97.2621 68.2143C97.7401 68.4254 98.1711 68.7297 98.5297 69.1095L114.985 86.7832C114.382 88.411 113.643 89.985 112.775 91.4885H57.4671L56.6635 89.9994Z" fill="white"/>
<path d="M112.79 164.422C112.59 164.422 112.391 164.461 112.206 164.538C112.021 164.614 111.853 164.726 111.711 164.867C111.569 165.008 111.457 165.176 111.38 165.361C111.303 165.546 111.264 165.744 111.264 165.944C111.264 166.144 111.303 166.342 111.38 166.527C111.457 166.711 111.569 166.879 111.711 167.021C111.853 167.162 112.021 167.274 112.206 167.35C112.391 167.426 112.59 167.466 112.79 167.465H128.776C128.977 167.466 129.175 167.426 129.36 167.35C129.545 167.274 129.714 167.162 129.855 167.021C129.997 166.879 130.11 166.711 130.186 166.527C130.263 166.342 130.303 166.144 130.303 165.944C130.303 165.744 130.263 165.546 130.186 165.361C130.11 165.176 129.997 165.008 129.855 164.867C129.714 164.726 129.545 164.614 129.36 164.538C129.175 164.461 128.977 164.422 128.776 164.422H112.79Z" fill="#FAA033"/>
<path d="M40.7665 142.077C40.3625 142.077 39.975 142.238 39.6893 142.523C39.4036 142.808 39.243 143.195 39.243 143.599C39.243 144.002 39.4036 144.389 39.6893 144.674C39.975 144.96 40.3625 145.12 40.7665 145.12H129.476C129.88 145.12 130.267 144.96 130.553 144.674C130.839 144.389 130.999 144.002 130.999 143.599C130.999 143.195 130.839 142.808 130.553 142.523C130.267 142.238 129.88 142.077 129.476 142.077H40.7665Z" fill="#E5E5E5"/>
<path d="M40.7665 153.25C40.3625 153.25 39.975 153.41 39.6893 153.695C39.4036 153.981 39.243 154.368 39.243 154.771C39.243 155.175 39.4036 155.562 39.6893 155.847C39.975 156.132 40.3625 156.293 40.7665 156.293H129.476C129.88 156.293 130.267 156.132 130.553 155.847C130.839 155.562 130.999 155.175 130.999 154.771C130.999 154.368 130.839 153.981 130.553 153.695C130.267 153.41 129.88 153.25 129.476 153.25H40.7665Z" fill="#E5E5E5"/>
<path d="M228.972 164.422C228.772 164.422 228.574 164.461 228.389 164.538C228.203 164.614 228.035 164.726 227.893 164.867C227.752 165.008 227.639 165.176 227.563 165.361C227.486 165.546 227.446 165.744 227.446 165.944C227.446 166.144 227.486 166.342 227.563 166.527C227.639 166.711 227.752 166.879 227.893 167.021C228.035 167.162 228.203 167.274 228.389 167.35C228.574 167.426 228.772 167.466 228.972 167.465H244.959C245.159 167.466 245.358 167.426 245.543 167.35C245.728 167.274 245.896 167.162 246.038 167.021C246.18 166.879 246.292 166.711 246.369 166.527C246.446 166.342 246.485 166.144 246.485 165.944C246.485 165.744 246.446 165.546 246.369 165.361C246.292 165.176 246.18 165.008 246.038 164.867C245.896 164.726 245.728 164.614 245.543 164.538C245.358 164.461 245.159 164.422 244.959 164.422H228.972Z" fill="#FAA033"/>
<path d="M156.949 142.077C156.545 142.077 156.157 142.238 155.872 142.523C155.586 142.808 155.425 143.195 155.425 143.599C155.425 144.002 155.586 144.389 155.872 144.674C156.157 144.96 156.545 145.12 156.949 145.12H245.658C246.062 145.12 246.45 144.96 246.735 144.674C247.021 144.389 247.182 144.002 247.182 143.599C247.182 143.195 247.021 142.808 246.735 142.523C246.45 142.238 246.062 142.077 245.658 142.077H156.949Z" fill="#E5E5E5"/>
<path d="M156.949 153.25C156.545 153.25 156.157 153.41 155.872 153.695C155.586 153.981 155.425 154.368 155.425 154.771C155.425 155.175 155.586 155.562 155.872 155.847C156.157 156.132 156.545 156.293 156.949 156.293H245.658C246.062 156.293 246.45 156.132 246.735 155.847C247.021 155.562 247.182 155.175 247.182 154.771C247.182 154.368 247.021 153.981 246.735 153.695C246.45 153.41 246.062 153.25 245.658 153.25H156.949Z" fill="#E5E5E5"/>
<path d="M115.11 226.633C113.785 228.591 112.363 230.517 110.883 232.356L109.98 231.632C111.44 229.817 112.843 227.917 114.15 225.985L115.11 226.633ZM106.196 237.71C104.567 239.421 102.846 241.085 101.081 242.657L100.31 241.793C102.052 240.243 103.75 238.601 105.356 236.913L106.196 237.71ZM95.5727 247.163C93.6867 248.58 91.7154 249.938 89.7131 251.201L89.0947 250.223C91.0705 248.977 93.0155 247.637 94.8763 246.239L95.5727 247.163ZM83.0059 253.724L83.5428 254.749C81.4446 255.845 79.2791 256.867 77.1069 257.785L76.6553 256.72C78.7989 255.814 80.9355 254.806 83.0059 253.724ZM70.0807 259.185L70.4427 260.284C68.197 261.022 65.8929 261.675 63.5943 262.224L63.3243 261.099C65.5922 260.557 67.8653 259.913 70.0807 259.185ZM56.432 262.448L56.6074 263.591C54.2697 263.949 51.8872 264.212 49.5264 264.375L49.4465 263.221C51.7757 263.061 54.1259 262.801 56.432 262.448ZM-23.5182 125.593C-24.9581 127.423 -26.3403 129.337 -27.6263 131.282L-28.593 130.645C-27.2893 128.673 -25.8884 126.733 -24.4288 124.879L-23.5182 125.593ZM42.4216 263.415L42.4058 264.571C40.0427 264.539 37.6502 264.407 35.2945 264.181L35.4056 263.03C37.7299 263.253 40.0904 263.383 42.4216 263.415ZM-31.2506 137.291C-32.3702 139.333 -33.4189 141.448 -34.3673 143.577L-35.4256 143.107C-34.4642 140.949 -33.4012 138.806 -32.2665 136.736L-31.2506 137.291ZM28.4454 262.07L28.2401 263.208C25.9126 262.789 23.5746 262.269 21.29 261.662L21.5878 260.544C23.8419 261.143 26.1491 261.657 28.4454 262.07ZM-36.9577 150.097C-37.7289 152.297 -38.4178 154.555 -39.0055 156.809L-40.1264 156.517C-39.5306 154.233 -38.8324 151.944 -38.0512 149.716L-36.9577 150.097ZM14.8787 258.464L14.4903 259.553C12.2635 258.761 10.0418 257.867 7.88705 256.896L8.3635 255.842C10.4897 256.8 12.6816 257.682 14.8787 258.464ZM-40.4963 163.665C-40.8975 165.96 -41.2082 168.3 -41.4195 170.62L-42.5732 170.515C-42.3588 168.164 -42.0441 165.792 -41.6375 163.466L-40.4963 163.665ZM2.08703 252.696L1.52552 253.707C-0.543114 252.562 -2.58757 251.317 -4.55136 250.008L-3.90801 249.046C-1.97081 250.338 0.0462418 251.566 2.08703 252.696ZM-41.7675 177.627C-41.7868 179.961 -41.7087 182.32 -41.5355 184.64L-42.6908 184.726C-42.8661 182.374 -42.9451 179.983 -42.9259 177.618L-41.7675 177.627ZM-9.58011 244.915L-10.3005 245.82C-12.1507 244.352 -13.9613 242.788 -15.682 241.173L-14.8886 240.331C-13.1914 241.924 -11.4053 243.466 -9.58011 244.915ZM-40.7238 191.61C-40.3585 193.91 -39.8915 196.224 -39.3357 198.488L-40.4605 198.763C-41.0239 196.468 -41.4974 194.123 -41.8678 191.791L-40.7238 191.61ZM-19.8018 235.319L-20.6624 236.093C-22.2429 234.342 -23.7709 232.5 -25.2043 230.619L-24.2826 229.919C-22.8684 231.774 -21.3611 233.591 -19.8018 235.319ZM-37.3811 205.227C-36.6415 207.431 -35.7988 209.636 -34.8759 211.78L-35.9402 212.237C-36.8752 210.064 -37.7298 207.829 -38.4792 205.594L-37.3811 205.227ZM-28.3026 224.168L-29.2786 224.791C-30.5496 222.804 -31.759 220.732 -32.8647 218.649L-31.8412 218.107C-30.7498 220.164 -29.5566 222.207 -28.3026 224.168Z" fill="#F0F0F0"/>
<path d="M447.433 330H139.219C139.069 330 138.926 329.94 138.82 329.834C138.714 329.727 138.654 329.584 138.654 329.434C138.654 329.284 138.714 329.14 138.82 329.034C138.926 328.928 139.069 328.868 139.219 328.868H447.433C447.583 328.868 447.728 328.927 447.834 329.034C447.94 329.14 448 329.284 448 329.434C448 329.584 447.94 329.728 447.834 329.834C447.728 329.94 447.583 330 447.433 330Z" fill="#CACACA"/>
</g>
<defs>
<clipPath id="clip0_555_1019">
<rect width="448" height="330" fill="white"/>
</clipPath>
</defs>
</svg>
