<svg width="24" height="24" viewBox="0 0 24 24" fill="none" xmlns="http://www.w3.org/2000/svg">
<path d="M5.69998 6.70998C5.60727 6.80249 5.53372 6.91238 5.48354 7.03336C5.43336 7.15433 5.40753 7.28401 5.40753 7.41498C5.40753 7.54595 5.43336 7.67563 5.48354 7.7966C5.53372 7.91758 5.60727 8.02747 5.69998 8.11998L9.57998 12L5.69998 15.88C5.60739 15.9726 5.53395 16.0825 5.48385 16.2034C5.43374 16.3244 5.40796 16.454 5.40796 16.585C5.40796 16.7159 5.43374 16.8456 5.48385 16.9665C5.53395 17.0875 5.60739 17.1974 5.69998 17.29C5.79256 17.3826 5.90247 17.456 6.02343 17.5061C6.1444 17.5562 6.27405 17.582 6.40498 17.582C6.53591 17.582 6.66556 17.5562 6.78652 17.5061C6.90748 17.456 7.01739 17.3826 7.10998 17.29L11.7 12.7C11.7927 12.6075 11.8662 12.4976 11.9164 12.3766C11.9666 12.2556 11.9924 12.1259 11.9924 11.995C11.9924 11.864 11.9666 11.7343 11.9164 11.6134C11.8662 11.4924 11.7927 11.3825 11.7 11.29L7.11998 6.70998C6.72998 6.31998 6.08998 6.31998 5.69998 6.70998Z" fill="black"/>
<path d="M12.29 6.71002C12.1973 6.80254 12.1238 6.91242 12.0736 7.0334C12.0234 7.15437 11.9976 7.28405 11.9976 7.41502C11.9976 7.54599 12.0234 7.67567 12.0736 7.79665C12.1238 7.91762 12.1973 8.02751 12.29 8.12002L16.17 12L12.29 15.88C12.103 16.067 11.998 16.3206 11.998 16.585C11.998 16.8494 12.103 17.103 12.29 17.29C12.477 17.477 12.7306 17.582 12.995 17.582C13.2594 17.582 13.513 17.477 13.7 17.29L18.29 12.7C18.3827 12.6075 18.4563 12.4976 18.5064 12.3766C18.5566 12.2557 18.5824 12.126 18.5824 11.995C18.5824 11.8641 18.5566 11.7344 18.5064 11.6134C18.4563 11.4924 18.3827 11.3825 18.29 11.29L13.7 6.70002C13.32 6.32002 12.68 6.32002 12.29 6.71002Z" fill="black"/>
</svg>
