<svg width="20" height="20" viewBox="0 0 20 20" fill="none" xmlns="http://www.w3.org/2000/svg">
<g clip-path="url(#clip0_663_60)">
<path d="M10.0002 0.246094C4.47793 0.246094 0 4.72301 0 10.2461C0 14.6643 2.86531 18.4127 6.83859 19.735C7.33832 19.8276 7.52203 19.518 7.52203 19.2539C7.52203 19.0156 7.51266 18.2277 7.50844 17.3921C4.72625 17.9971 4.13922 16.2123 4.13922 16.2123C3.68449 15.0565 3.02891 14.7491 3.02891 14.7491C2.12164 14.1284 3.09746 14.1412 3.09746 14.1412C4.10137 14.2117 4.6302 15.1718 4.6302 15.1718C5.52223 16.7005 6.96957 16.2585 7.54043 16.003C7.63004 15.3568 7.8891 14.9155 8.17531 14.6658C5.95402 14.413 3.61914 13.5554 3.61914 9.72375C3.61914 8.63199 4.00984 7.73988 4.64961 7.03961C4.54578 6.78766 4.20324 5.77063 4.74633 4.39313C4.74633 4.39313 5.58629 4.12453 7.49711 5.41832C8.29469 5.19668 9.15016 5.08559 10.0001 5.08172C10.8498 5.08559 11.7059 5.19668 12.5051 5.41832C14.414 4.12449 15.2523 4.39313 15.2523 4.39313C15.7967 5.77063 15.4545 6.78766 15.3507 7.03961C15.9917 7.73992 16.3798 8.63203 16.3798 9.72375C16.3798 13.5646 14.0404 14.4103 11.8136 14.6578C12.1723 14.9682 12.4918 15.5767 12.4918 16.5096C12.4918 17.8477 12.4802 18.9245 12.4802 19.2539C12.4802 19.5201 12.6603 19.8319 13.1671 19.7337C17.1383 18.41 20 14.6629 20 10.2461C20 4.72301 15.5228 0.246094 10.0002 0.246094Z" fill="black"/>
</g>
<defs>
<clipPath id="clip0_663_60">
<rect width="20" height="20" fill="white"/>
</clipPath>
</defs>
</svg>
