<svg width="20" height="20" viewBox="0 0 20 20" fill="none" xmlns="http://www.w3.org/2000/svg">
<path d="M4.16669 18.3334C3.70835 18.3334 3.31599 18.1702 2.9896 17.8438C2.66321 17.5174 2.50002 17.125 2.50002 16.6667V7.27085C2.25002 7.11808 2.04863 6.92016 1.89585 6.6771C1.74308 6.43405 1.66669 6.1528 1.66669 5.83335V3.33335C1.66669 2.87502 1.82988 2.48266 2.15627 2.15627C2.48266 1.82988 2.87502 1.66669 3.33335 1.66669H16.6667C17.125 1.66669 17.5174 1.82988 17.8438 2.15627C18.1702 2.48266 18.3334 2.87502 18.3334 3.33335V5.83335C18.3334 6.1528 18.257 6.43405 18.1042 6.6771C17.9514 6.92016 17.75 7.11808 17.5 7.27085V16.6667C17.5 17.125 17.3368 17.5174 17.0104 17.8438C16.684 18.1702 16.2917 18.3334 15.8334 18.3334H4.16669ZM4.16669 7.50002V16.6667H15.8334V7.50002H4.16669ZM3.33335 5.83335H16.6667V3.33335H3.33335V5.83335ZM7.50002 11.6667H12.5V10H7.50002V11.6667Z" fill="black"/>
</svg>
