<svg width="20" height="20" viewBox="0 0 20 20" fill="none" xmlns="http://www.w3.org/2000/svg">
<g clip-path="url(#clip0_663_11)">
<path d="M7.37605 15.4667C7.37605 15.4667 6.61189 15.9117 7.92021 16.0617C9.50521 16.2433 10.3152 16.2175 12.0611 15.8858C12.0611 15.8858 12.5211 16.1742 13.1619 16.4242C9.24605 18.1017 4.30105 16.3258 7.37605 15.4667ZM6.89687 13.2775C6.89687 13.2775 6.04021 13.9117 7.34853 14.0475C9.04187 14.2217 10.3785 14.2367 12.6927 13.7909C12.6927 13.7909 13.0127 14.115 13.5152 14.2925C8.78269 15.6767 3.50935 14.4009 6.89685 13.2775H6.89687ZM10.9302 9.56252C11.8952 10.6734 10.6769 11.6734 10.6769 11.6734C10.6769 11.6734 13.126 10.4084 12.001 8.82502C10.9502 7.34836 10.1444 6.61502 14.5069 4.08502C14.5069 4.08418 7.66021 5.79418 10.9302 9.56252ZM16.1086 17.0867C16.1086 17.0867 16.6744 17.5525 15.4861 17.9125C13.2261 18.5975 6.07939 18.8034 4.09521 17.94C3.38187 17.6292 4.72021 17.1984 5.14021 17.1084C5.57937 17.0134 5.83021 17.0309 5.83021 17.0309C5.03605 16.4717 0.700214 18.1284 3.62771 18.6034C11.6111 19.8975 18.1794 18.02 16.1086 17.0867V17.0867ZM7.74355 11.0084C7.74355 11.0084 4.10855 11.8717 6.45689 12.185C7.44773 12.3175 9.42439 12.2875 11.2652 12.1334C12.7702 12.0067 14.2802 11.7359 14.2802 11.7359C14.2802 11.7359 13.7494 11.9625 13.3652 12.225C9.67439 13.1959 2.54357 12.7442 4.59689 11.7517C6.33189 10.9133 7.74355 11.0083 7.74355 11.0083V11.0084ZM14.2636 14.6534C18.0161 12.7034 16.2811 10.8292 15.0702 11.0825C14.7744 11.1442 14.6411 11.1975 14.6411 11.1975C14.6411 11.1975 14.7511 11.025 14.9619 10.95C17.3577 10.1075 19.2002 13.4342 14.1886 14.7517C14.1886 14.7508 14.2469 14.7 14.2636 14.6534ZM12.0011 1.95313e-05C12.0011 1.95313e-05 14.0794 2.07836 10.0302 5.27502C6.78355 7.83918 9.29021 9.30168 10.0294 10.9717C8.13437 9.26084 6.74353 7.75668 7.67603 6.35584C9.04603 4.29834 12.8402 3.30168 12.001 0L12.0011 1.95313e-05ZM8.11187 19.9367C11.7135 20.1675 17.2444 19.8092 17.3752 18.105C17.3752 18.105 17.1236 18.7509 14.3986 19.2642C11.3252 19.8425 7.53271 19.775 5.28439 19.4042C5.28439 19.4033 5.74523 19.785 8.11189 19.9367H8.11187Z" fill="black"/>
</g>
<defs>
<clipPath id="clip0_663_11">
<rect width="20" height="20" fill="white"/>
</clipPath>
</defs>
</svg>
