<svg width="20" height="20" viewBox="0 0 20 20" fill="none" xmlns="http://www.w3.org/2000/svg">
<g clip-path="url(#clip0_663_45)">
<rect x="0.638672" y="0.53125" width="18.7234" height="2.97872" fill="black"/>
<rect x="0.638672" y="16.4902" width="18.7234" height="2.97872" fill="black"/>
<rect x="0.638672" y="5.85156" width="1.48936" height="8.29787" fill="black"/>
<rect x="5.95703" y="5.85156" width="1.48936" height="8.29787" fill="black"/>
<rect x="8.51074" y="5.85156" width="1.48936" height="5.53191" fill="black"/>
<rect x="11.2764" y="5.85156" width="1.48936" height="5.53191" fill="black"/>
<rect x="13.8301" y="5.85156" width="1.48936" height="8.29787" fill="black"/>
<rect x="17.8721" y="5.85156" width="1.48936" height="8.29787" fill="black"/>
<rect x="15.3193" y="7.55273" width="1.2766" height="3.82979" fill="black"/>
<rect x="16.5957" y="8.83008" width="1.2766" height="3.82979" fill="black"/>
<rect x="10" y="8.61719" width="1.2766" height="5.53191" fill="black"/>
<rect x="3.19141" y="8.4043" width="1.48936" height="4.46809" fill="black"/>
<rect x="4.68066" y="6.91406" width="1.2766" height="4.46809" fill="black"/>
<rect x="1.91504" y="6.91406" width="1.2766" height="4.46809" fill="black"/>
</g>
<defs>
<clipPath id="clip0_663_45">
<rect width="20" height="20" fill="white"/>
</clipPath>
</defs>
</svg>
