<svg width="20" height="20" viewBox="0 0 20 20" fill="none" xmlns="http://www.w3.org/2000/svg">
<path d="M3.33335 16.6666C2.87502 16.6666 2.48266 16.5035 2.15627 16.1771C1.82988 15.8507 1.66669 15.4583 1.66669 15V4.99998C1.66669 4.54165 1.82988 4.14929 2.15627 3.8229C2.48266 3.49651 2.87502 3.33331 3.33335 3.33331H8.33335L10 4.99998H16.6667C17.125 4.99998 17.5174 5.16317 17.8438 5.48956C18.1702 5.81595 18.3334 6.20831 18.3334 6.66665H9.31252L7.64585 4.99998H3.33335V15L5.33335 8.33331H19.5834L17.4375 15.4791C17.3264 15.8403 17.1215 16.1285 16.8229 16.3437C16.5243 16.559 16.1945 16.6666 15.8334 16.6666H3.33335ZM5.08335 15H15.8334L17.3334 9.99998H6.58335L5.08335 15Z" fill="black"/>
</svg>
