<svg width="20" height="20" viewBox="0 0 20 20" fill="none" xmlns="http://www.w3.org/2000/svg">
<path d="M8.2182 1.39816C8.43607 1.36109 8.64311 1.30787 8.85289 1.29272C9.3187 1.25908 9.78638 1.22001 10.2523 1.22955C10.664 1.23798 11.0752 1.30244 11.485 1.35447C12.0448 1.42552 12.583 1.58577 13.1123 1.77664C13.7162 1.99441 14.2942 2.26824 14.8293 2.62285C15.1849 2.85853 15.543 3.0975 15.8642 3.37625C16.2326 3.69595 16.5765 4.0477 16.9027 4.41096C17.1704 4.70906 17.4121 5.03389 17.6379 5.36553C18.0425 5.95959 18.3569 6.60159 18.6024 7.27855C18.7719 7.7461 18.9045 8.22332 18.9936 8.71082C19.0527 9.03379 19.0886 9.3629 19.1074 9.69083C19.1308 10.0998 19.1451 10.5111 19.1274 10.9199C19.1124 11.2653 19.0491 11.609 19.002 11.9527C18.9263 12.5046 18.7676 13.0354 18.5782 13.5572C18.3404 14.2127 18.0343 14.8355 17.6109 15.3912C17.3791 15.6954 17.1278 15.9887 16.8567 16.2581C16.4296 16.6826 15.9407 17.0293 15.41 17.3183C14.89 17.6015 14.344 17.8125 13.7662 17.9362C13.4993 17.9934 13.228 18.0425 12.9563 18.0622C12.5997 18.0881 12.2393 18.105 11.883 18.0836C11.2661 18.0467 10.6636 17.9359 10.1454 17.5602C9.87957 17.3674 9.74752 17.0912 9.66719 16.7839C9.55982 16.3733 9.58601 15.9594 9.67249 15.5528C9.846 14.7371 10.0374 13.9251 10.2223 13.1118C10.3838 12.4015 10.5474 11.6916 10.7083 10.9812C10.8579 10.3204 11.0066 9.65938 11.1532 8.99792C11.3259 8.21908 11.4926 7.43889 11.6681 6.66071C11.8091 6.0354 11.9597 5.41223 12.1056 4.78803C12.1737 4.49721 12.2413 4.20628 12.3077 3.9151C12.3133 3.89081 12.3085 3.86415 12.3085 3.83197C12.2809 3.82889 12.2553 3.81994 12.2321 3.82432C11.806 3.90495 11.3801 3.98688 10.9543 4.06915C10.5393 4.14932 10.1247 4.23111 9.70959 4.31047C9.35164 4.3789 8.99275 4.44251 8.63573 4.51542C8.59695 4.52334 8.54684 4.57368 8.53743 4.61286C8.40055 5.18301 8.26873 5.75439 8.13779 6.32595C8.0582 6.67339 7.9822 7.02166 7.9027 7.37799C7.03269 7.37799 6.16737 7.37799 5.30043 7.37799C5.12247 8.14884 4.94662 8.9106 4.76732 9.68729C5.6386 9.68729 6.49249 9.68729 7.35637 9.68729C7.25419 10.111 7.15488 10.5212 7.05637 10.9316C6.86763 11.7179 6.67834 12.5041 6.49126 13.2908C6.38337 13.7445 6.27271 14.1977 6.17559 14.6537C6.09292 15.0419 6.01463 15.4319 5.95949 15.8247C5.92131 16.0966 5.90333 16.3756 5.91587 16.6496C5.94127 17.2042 6.04683 17.7469 6.31464 18.2401C6.43394 18.4599 6.5971 18.6558 6.74032 18.8626C6.75412 18.8825 6.76774 18.9025 6.76898 18.9453C6.70475 18.9224 6.63972 18.9016 6.57642 18.8764C5.94203 18.6239 5.34197 18.3057 4.78542 17.9106C4.51458 17.7184 4.25413 17.5101 4.00003 17.296C3.78344 17.1135 3.57203 16.9224 3.37701 16.7173C2.89406 16.2093 2.47215 15.6534 2.11219 15.0509C1.73374 14.4173 1.44047 13.746 1.22532 13.0414C1.09004 12.5984 1.0006 12.1449 0.928751 11.6862C0.832307 11.0705 0.820208 10.4513 0.852825 9.83462C0.877981 9.35899 0.962059 8.88434 1.04922 8.41469C1.14648 7.89059 1.31616 7.38488 1.52036 6.89185C1.76861 6.29246 2.06347 5.7164 2.44666 5.19267C2.71203 4.82997 3.00033 4.48284 3.2944 4.1426C3.78701 3.57267 4.37363 3.10924 5.00187 2.69849C5.86545 2.13387 6.79873 1.72783 7.80347 1.48897C7.93802 1.45698 8.07354 1.42908 8.2182 1.39816ZM12.2411 8.79013C12.315 9.06122 12.4515 9.29194 12.6542 9.4904C13.22 10.0442 14.1246 10.0628 14.7139 9.49168C15.0496 9.16632 15.2079 8.7606 15.1573 8.28219C15.1085 7.82085 14.896 7.45934 14.5175 7.19729C14.1904 6.9709 13.8285 6.88426 13.4331 6.95533C12.9074 7.04981 12.5388 7.3507 12.3142 7.8267C12.1716 8.12897 12.1711 8.45077 12.2411 8.79013Z" fill="#40A944"/>
</svg>
