<svg xmlns="http://www.w3.org/2000/svg" xmlns:xlink="http://www.w3.org/1999/xlink"><defs><style>
    .sprite-symbol-usage {display: none;}
    .sprite-symbol-usage:target {display: inline;}
  </style><symbol viewBox="0 0 24 24" id="arrow-right"><path d="M7.37999 21.01C7.86999 21.5 8.65999 21.5 9.14999 21.01L17.46 12.7C17.5527 12.6075 17.6262 12.4976 17.6764 12.3766C17.7266 12.2556 17.7524 12.126 17.7524 11.995C17.7524 11.864 17.7266 11.7343 17.6764 11.6134C17.6262 11.4924 17.5527 11.3825 17.46 11.29L9.14999 2.97999C8.65999 2.48999 7.86999 2.48999 7.37999 2.97999C6.88999 3.46999 6.88999 4.25999 7.37999 4.74999L14.62 12L7.36999 19.25C6.88999 19.73 6.88999 20.53 7.37999 21.01Z" /></symbol><symbol viewBox="0 0 24 24" id="double-arrow-right"><path d="M5.69998 6.70998C5.60727 6.80249 5.53372 6.91238 5.48354 7.03336C5.43336 7.15433 5.40753 7.28401 5.40753 7.41498C5.40753 7.54595 5.43336 7.67563 5.48354 7.7966C5.53372 7.91758 5.60727 8.02747 5.69998 8.11998L9.57998 12L5.69998 15.88C5.60739 15.9726 5.53395 16.0825 5.48385 16.2034C5.43374 16.3244 5.40796 16.454 5.40796 16.585C5.40796 16.7159 5.43374 16.8456 5.48385 16.9665C5.53395 17.0875 5.60739 17.1974 5.69998 17.29C5.79256 17.3826 5.90247 17.456 6.02343 17.5061C6.1444 17.5562 6.27405 17.582 6.40498 17.582C6.53591 17.582 6.66556 17.5562 6.78652 17.5061C6.90748 17.456 7.01739 17.3826 7.10998 17.29L11.7 12.7C11.7927 12.6075 11.8662 12.4976 11.9164 12.3766C11.9666 12.2556 11.9924 12.1259 11.9924 11.995C11.9924 11.864 11.9666 11.7343 11.9164 11.6134C11.8662 11.4924 11.7927 11.3825 11.7 11.29L7.11998 6.70998C6.72998 6.31998 6.08998 6.31998 5.69998 6.70998Z" /><path d="M12.29 6.71002C12.1973 6.80254 12.1238 6.91242 12.0736 7.0334C12.0234 7.15437 11.9976 7.28405 11.9976 7.41502C11.9976 7.54599 12.0234 7.67567 12.0736 7.79665C12.1238 7.91762 12.1973 8.02751 12.29 8.12002L16.17 12L12.29 15.88C12.103 16.067 11.998 16.3206 11.998 16.585C11.998 16.8494 12.103 17.103 12.29 17.29C12.477 17.477 12.7306 17.582 12.995 17.582C13.2594 17.582 13.513 17.477 13.7 17.29L18.29 12.7C18.3827 12.6075 18.4563 12.4976 18.5064 12.3766C18.5566 12.2557 18.5824 12.126 18.5824 11.995C18.5824 11.8641 18.5566 11.7344 18.5064 11.6134C18.4563 11.4924 18.3827 11.3825 18.29 11.29L13.7 6.70002C13.32 6.32002 12.68 6.32002 12.29 6.71002Z" /></symbol><symbol viewBox="0 0 24 24" id="file"><path d="M8 16H16V18H8V16ZM8 12H16V14H8V12ZM14 2H6C4.9 2 4 2.9 4 4V20C4 21.1 4.89 22 5.99 22H18C19.1 22 20 21.1 20 20V8L14 2ZM18 20H6V4H13V9H18V20Z" /></symbol><symbol viewBox="0 0 20 20" id="github"><g clip-path="url(#github_clip0_663_60)"><path d="M10.0002 0.246094C4.47793 0.246094 0 4.72301 0 10.2461C0 14.6643 2.86531 18.4127 6.83859 19.735C7.33832 19.8276 7.52203 19.518 7.52203 19.2539C7.52203 19.0156 7.51266 18.2277 7.50844 17.3921C4.72625 17.9971 4.13922 16.2123 4.13922 16.2123C3.68449 15.0565 3.02891 14.7491 3.02891 14.7491C2.12164 14.1284 3.09746 14.1412 3.09746 14.1412C4.10137 14.2117 4.6302 15.1718 4.6302 15.1718C5.52223 16.7005 6.96957 16.2585 7.54043 16.003C7.63004 15.3568 7.8891 14.9155 8.17531 14.6658C5.95402 14.413 3.61914 13.5554 3.61914 9.72375C3.61914 8.63199 4.00984 7.73988 4.64961 7.03961C4.54578 6.78766 4.20324 5.77063 4.74633 4.39313C4.74633 4.39313 5.58629 4.12453 7.49711 5.41832C8.29469 5.19668 9.15016 5.08559 10.0001 5.08172C10.8498 5.08559 11.7059 5.19668 12.5051 5.41832C14.414 4.12449 15.2523 4.39313 15.2523 4.39313C15.7967 5.77063 15.4545 6.78766 15.3507 7.03961C15.9917 7.73992 16.3798 8.63203 16.3798 9.72375C16.3798 13.5646 14.0404 14.4103 11.8136 14.6578C12.1723 14.9682 12.4918 15.5767 12.4918 16.5096C12.4918 17.8477 12.4802 18.9245 12.4802 19.2539C12.4802 19.5201 12.6603 19.8319 13.1671 19.7337C17.1383 18.41 20 14.6629 20 10.2461C20 4.72301 15.5228 0.246094 10.0002 0.246094Z" /></g><defs></defs></symbol><clipPath id="github_clip0_663_60"><rect width="20" height="20" fill="white" /></clipPath><symbol viewBox="0 0 20 20" id="inventory"><path d="M4.16669 18.3334C3.70835 18.3334 3.31599 18.1702 2.9896 17.8438C2.66321 17.5174 2.50002 17.125 2.50002 16.6667V7.27085C2.25002 7.11808 2.04863 6.92016 1.89585 6.6771C1.74308 6.43405 1.66669 6.1528 1.66669 5.83335V3.33335C1.66669 2.87502 1.82988 2.48266 2.15627 2.15627C2.48266 1.82988 2.87502 1.66669 3.33335 1.66669H16.6667C17.125 1.66669 17.5174 1.82988 17.8438 2.15627C18.1702 2.48266 18.3334 2.87502 18.3334 3.33335V5.83335C18.3334 6.1528 18.257 6.43405 18.1042 6.6771C17.9514 6.92016 17.75 7.11808 17.5 7.27085V16.6667C17.5 17.125 17.3368 17.5174 17.0104 17.8438C16.684 18.1702 16.2917 18.3334 15.8334 18.3334H4.16669ZM4.16669 7.50002V16.6667H15.8334V7.50002H4.16669ZM3.33335 5.83335H16.6667V3.33335H3.33335V5.83335ZM7.50002 11.6667H12.5V10H7.50002V11.6667Z" /></symbol><symbol viewBox="0 0 20 20" id="java"><g clip-path="url(#java_clip0_663_11)"><path d="M7.37605 15.4667C7.37605 15.4667 6.61189 15.9117 7.92021 16.0617C9.50521 16.2433 10.3152 16.2175 12.0611 15.8858C12.0611 15.8858 12.5211 16.1742 13.1619 16.4242C9.24605 18.1017 4.30105 16.3258 7.37605 15.4667ZM6.89687 13.2775C6.89687 13.2775 6.04021 13.9117 7.34853 14.0475C9.04187 14.2217 10.3785 14.2367 12.6927 13.7909C12.6927 13.7909 13.0127 14.115 13.5152 14.2925C8.78269 15.6767 3.50935 14.4009 6.89685 13.2775H6.89687ZM10.9302 9.56252C11.8952 10.6734 10.6769 11.6734 10.6769 11.6734C10.6769 11.6734 13.126 10.4084 12.001 8.82502C10.9502 7.34836 10.1444 6.61502 14.5069 4.08502C14.5069 4.08418 7.66021 5.79418 10.9302 9.56252ZM16.1086 17.0867C16.1086 17.0867 16.6744 17.5525 15.4861 17.9125C13.2261 18.5975 6.07939 18.8034 4.09521 17.94C3.38187 17.6292 4.72021 17.1984 5.14021 17.1084C5.57937 17.0134 5.83021 17.0309 5.83021 17.0309C5.03605 16.4717 0.700214 18.1284 3.62771 18.6034C11.6111 19.8975 18.1794 18.02 16.1086 17.0867V17.0867ZM7.74355 11.0084C7.74355 11.0084 4.10855 11.8717 6.45689 12.185C7.44773 12.3175 9.42439 12.2875 11.2652 12.1334C12.7702 12.0067 14.2802 11.7359 14.2802 11.7359C14.2802 11.7359 13.7494 11.9625 13.3652 12.225C9.67439 13.1959 2.54357 12.7442 4.59689 11.7517C6.33189 10.9133 7.74355 11.0083 7.74355 11.0083V11.0084ZM14.2636 14.6534C18.0161 12.7034 16.2811 10.8292 15.0702 11.0825C14.7744 11.1442 14.6411 11.1975 14.6411 11.1975C14.6411 11.1975 14.7511 11.025 14.9619 10.95C17.3577 10.1075 19.2002 13.4342 14.1886 14.7517C14.1886 14.7508 14.2469 14.7 14.2636 14.6534ZM12.0011 1.95313e-05C12.0011 1.95313e-05 14.0794 2.07836 10.0302 5.27502C6.78355 7.83918 9.29021 9.30168 10.0294 10.9717C8.13437 9.26084 6.74353 7.75668 7.67603 6.35584C9.04603 4.29834 12.8402 3.30168 12.001 0L12.0011 1.95313e-05ZM8.11187 19.9367C11.7135 20.1675 17.2444 19.8092 17.3752 18.105C17.3752 18.105 17.1236 18.7509 14.3986 19.2642C11.3252 19.8425 7.53271 19.775 5.28439 19.4042C5.28439 19.4033 5.74523 19.785 8.11189 19.9367H8.11187Z" /></g><defs></defs></symbol><clipPath id="java_clip0_663_11"><rect width="20" height="20" fill="white" /></clipPath><symbol viewBox="0 0 20 20" id="javatpoint-logo"><path d="M10 18.8321L1.24088 1.16791H18.7591L10 18.8321Z" fill="#FF0000" /><path d="M9.12415 13.7957H10.876V5.54749H13.7957V3.94165H6.20444V5.54749H9.12415V13.7957Z" fill="white" /></symbol><symbol viewBox="0 0 24 16" id="key"><path d="M21 6H12.65C12.2381 4.83048 11.4733 3.81762 10.4613 3.10116C9.44934 2.3847 8.23994 1.99995 7 2C3.69 2 1 4.69 1 8C1 11.31 3.69 14 7 14C8.23994 14 9.44934 13.6153 10.4613 12.8988C11.4733 12.1824 12.2381 11.1695 12.65 10H13L15 12L17 10L19 12L23 7.96L21 6ZM7 11C5.35 11 4 9.65 4 8C4 6.35 5.35 5 7 5C8.65 5 10 6.35 10 8C10 9.65 8.65 11 7 11Z" /></symbol><symbol viewBox="0 0 20 20" id="mvn-repository"><g clip-path="url(#mvn-repository_clip0_663_45)"><rect x="0.638672" y="0.53125" width="18.7234" height="2.97872" /><rect x="0.638672" y="16.4902" width="18.7234" height="2.97872" /><rect x="0.638672" y="5.85156" width="1.48936" height="8.29787" /><rect x="5.95703" y="5.85156" width="1.48936" height="8.29787" /><rect x="8.51074" y="5.85156" width="1.48936" height="5.53191" /><rect x="11.2764" y="5.85156" width="1.48936" height="5.53191" /><rect x="13.8301" y="5.85156" width="1.48936" height="8.29787" /><rect x="17.8721" y="5.85156" width="1.48936" height="8.29787" /><rect x="15.3193" y="7.55273" width="1.2766" height="3.82979" /><rect x="16.5957" y="8.83008" width="1.2766" height="3.82979" /><rect x="10" y="8.61719" width="1.2766" height="5.53191" /><rect x="3.19141" y="8.4043" width="1.48936" height="4.46809" /><rect x="4.68066" y="6.91406" width="1.2766" height="4.46809" /><rect x="1.91504" y="6.91406" width="1.2766" height="4.46809" /></g><defs></defs></symbol><clipPath id="mvn-repository_clip0_663_45"><rect width="20" height="20" fill="white" /></clipPath><symbol viewBox="0 0 20 20" id="opened-folder"><path d="M3.33335 16.6666C2.87502 16.6666 2.48266 16.5035 2.15627 16.1771C1.82988 15.8507 1.66669 15.4583 1.66669 15V4.99998C1.66669 4.54165 1.82988 4.14929 2.15627 3.8229C2.48266 3.49651 2.87502 3.33331 3.33335 3.33331H8.33335L10 4.99998H16.6667C17.125 4.99998 17.5174 5.16317 17.8438 5.48956C18.1702 5.81595 18.3334 6.20831 18.3334 6.66665H9.31252L7.64585 4.99998H3.33335V15L5.33335 8.33331H19.5834L17.4375 15.4791C17.3264 15.8403 17.1215 16.1285 16.8229 16.3437C16.5243 16.559 16.1945 16.6666 15.8334 16.6666H3.33335ZM5.08335 15H15.8334L17.3334 9.99998H6.58335L5.08335 15Z" /></symbol><symbol viewBox="0 0 24 24" id="package"><path d="M11 19.425V12.575L5 9.1V15.95L11 19.425ZM13 19.425L19 15.95V9.1L13 12.575V19.425ZM11 21.725L4 17.7C3.68333 17.5167 3.4375 17.275 3.2625 16.975C3.0875 16.675 3 16.3417 3 15.975V8.025C3 7.65833 3.0875 7.325 3.2625 7.025C3.4375 6.725 3.68333 6.48333 4 6.3L11 2.275C11.3167 2.09167 11.65 2 12 2C12.35 2 12.6833 2.09167 13 2.275L20 6.3C20.3167 6.48333 20.5625 6.725 20.7375 7.025C20.9125 7.325 21 7.65833 21 8.025V15.975C21 16.3417 20.9125 16.675 20.7375 16.975C20.5625 17.275 20.3167 17.5167 20 17.7L13 21.725C12.6833 21.9083 12.35 22 12 22C11.65 22 11.3167 21.9083 11 21.725ZM16 8.525L17.925 7.425L12 4L10.05 5.125L16 8.525ZM12 10.85L13.95 9.725L8.025 6.3L6.075 7.425L12 10.85Z" /></symbol><symbol viewBox="0 0 20 20" id="tutorialspoint-logo"><path d="M8.2182 1.39816C8.43607 1.36109 8.64311 1.30787 8.85289 1.29272C9.3187 1.25908 9.78638 1.22001 10.2523 1.22955C10.664 1.23798 11.0752 1.30244 11.485 1.35447C12.0448 1.42552 12.583 1.58577 13.1123 1.77664C13.7162 1.99441 14.2942 2.26824 14.8293 2.62285C15.1849 2.85853 15.543 3.0975 15.8642 3.37625C16.2326 3.69595 16.5765 4.0477 16.9027 4.41096C17.1704 4.70906 17.4121 5.03389 17.6379 5.36553C18.0425 5.95959 18.3569 6.60159 18.6024 7.27855C18.7719 7.7461 18.9045 8.22332 18.9936 8.71082C19.0527 9.03379 19.0886 9.3629 19.1074 9.69083C19.1308 10.0998 19.1451 10.5111 19.1274 10.9199C19.1124 11.2653 19.0491 11.609 19.002 11.9527C18.9263 12.5046 18.7676 13.0354 18.5782 13.5572C18.3404 14.2127 18.0343 14.8355 17.6109 15.3912C17.3791 15.6954 17.1278 15.9887 16.8567 16.2581C16.4296 16.6826 15.9407 17.0293 15.41 17.3183C14.89 17.6015 14.344 17.8125 13.7662 17.9362C13.4993 17.9934 13.228 18.0425 12.9563 18.0622C12.5997 18.0881 12.2393 18.105 11.883 18.0836C11.2661 18.0467 10.6636 17.9359 10.1454 17.5602C9.87957 17.3674 9.74752 17.0912 9.66719 16.7839C9.55982 16.3733 9.58601 15.9594 9.67249 15.5528C9.846 14.7371 10.0374 13.9251 10.2223 13.1118C10.3838 12.4015 10.5474 11.6916 10.7083 10.9812C10.8579 10.3204 11.0066 9.65938 11.1532 8.99792C11.3259 8.21908 11.4926 7.43889 11.6681 6.66071C11.8091 6.0354 11.9597 5.41223 12.1056 4.78803C12.1737 4.49721 12.2413 4.20628 12.3077 3.9151C12.3133 3.89081 12.3085 3.86415 12.3085 3.83197C12.2809 3.82889 12.2553 3.81994 12.2321 3.82432C11.806 3.90495 11.3801 3.98688 10.9543 4.06915C10.5393 4.14932 10.1247 4.23111 9.70959 4.31047C9.35164 4.3789 8.99275 4.44251 8.63573 4.51542C8.59695 4.52334 8.54684 4.57368 8.53743 4.61286C8.40055 5.18301 8.26873 5.75439 8.13779 6.32595C8.0582 6.67339 7.9822 7.02166 7.9027 7.37799C7.03269 7.37799 6.16737 7.37799 5.30043 7.37799C5.12247 8.14884 4.94662 8.9106 4.76732 9.68729C5.6386 9.68729 6.49249 9.68729 7.35637 9.68729C7.25419 10.111 7.15488 10.5212 7.05637 10.9316C6.86763 11.7179 6.67834 12.5041 6.49126 13.2908C6.38337 13.7445 6.27271 14.1977 6.17559 14.6537C6.09292 15.0419 6.01463 15.4319 5.95949 15.8247C5.92131 16.0966 5.90333 16.3756 5.91587 16.6496C5.94127 17.2042 6.04683 17.7469 6.31464 18.2401C6.43394 18.4599 6.5971 18.6558 6.74032 18.8626C6.75412 18.8825 6.76774 18.9025 6.76898 18.9453C6.70475 18.9224 6.63972 18.9016 6.57642 18.8764C5.94203 18.6239 5.34197 18.3057 4.78542 17.9106C4.51458 17.7184 4.25413 17.5101 4.00003 17.296C3.78344 17.1135 3.57203 16.9224 3.37701 16.7173C2.89406 16.2093 2.47215 15.6534 2.11219 15.0509C1.73374 14.4173 1.44047 13.746 1.22532 13.0414C1.09004 12.5984 1.0006 12.1449 0.928751 11.6862C0.832307 11.0705 0.820208 10.4513 0.852825 9.83462C0.877981 9.35899 0.962059 8.88434 1.04922 8.41469C1.14648 7.89059 1.31616 7.38488 1.52036 6.89185C1.76861 6.29246 2.06347 5.7164 2.44666 5.19267C2.71203 4.82997 3.00033 4.48284 3.2944 4.1426C3.78701 3.57267 4.37363 3.10924 5.00187 2.69849C5.86545 2.13387 6.79873 1.72783 7.80347 1.48897C7.93802 1.45698 8.07354 1.42908 8.2182 1.39816ZM12.2411 8.79013C12.315 9.06122 12.4515 9.29194 12.6542 9.4904C13.22 10.0442 14.1246 10.0628 14.7139 9.49168C15.0496 9.16632 15.2079 8.7606 15.1573 8.28219C15.1085 7.82085 14.896 7.45934 14.5175 7.19729C14.1904 6.9709 13.8285 6.88426 13.4331 6.95533C12.9074 7.04981 12.5388 7.3507 12.3142 7.8267C12.1716 8.12897 12.1711 8.45077 12.2411 8.79013Z" fill="#40A944" /></symbol></defs><use id="arrow-right-usage" xlink:href="#arrow-right" class="sprite-symbol-usage" /><use id="double-arrow-right-usage" xlink:href="#double-arrow-right" class="sprite-symbol-usage" /><use id="file-usage" xlink:href="#file" class="sprite-symbol-usage" /><use id="github-usage" xlink:href="#github" class="sprite-symbol-usage" /><use id="inventory-usage" xlink:href="#inventory" class="sprite-symbol-usage" /><use id="java-usage" xlink:href="#java" class="sprite-symbol-usage" /><use id="javatpoint-logo-usage" xlink:href="#javatpoint-logo" class="sprite-symbol-usage" /><use id="key-usage" xlink:href="#key" class="sprite-symbol-usage" /><use id="mvn-repository-usage" xlink:href="#mvn-repository" class="sprite-symbol-usage" /><use id="opened-folder-usage" xlink:href="#opened-folder" class="sprite-symbol-usage" /><use id="package-usage" xlink:href="#package" class="sprite-symbol-usage" /><use id="tutorialspoint-logo-usage" xlink:href="#tutorialspoint-logo" class="sprite-symbol-usage" /></svg>