<svg width="251" height="408" viewBox="0 0 251 408" fill="none" xmlns="http://www.w3.org/2000/svg">
<g clip-path="url(#clip0_404_26)">
<path d="M125.707 56.2929C125.317 55.9024 124.683 55.9024 124.293 56.2929L117.929 62.6569C117.538 63.0474 117.538 63.6805 117.929 64.0711C118.319 64.4616 118.953 64.4616 119.343 64.0711L125 58.4142L130.657 64.0711C131.047 64.4616 131.681 64.4616 132.071 64.0711C132.462 63.6805 132.462 63.0474 132.071 62.6569L125.707 56.2929ZM126 88V57H124V88H126Z" fill="#FAA033"/>
<path d="M125.707 144.293C125.317 143.902 124.683 143.902 124.293 144.293L117.929 150.657C117.538 151.047 117.538 151.681 117.929 152.071C118.319 152.462 118.953 152.462 119.343 152.071L125 146.414L130.657 152.071C131.047 152.462 131.681 152.462 132.071 152.071C132.462 151.681 132.462 151.047 132.071 150.657L125.707 144.293ZM126 176V145H124V176H126Z" fill="#FAA033"/>
<path d="M190.707 232.293C190.317 231.902 189.683 231.902 189.293 232.293L182.929 238.657C182.538 239.047 182.538 239.681 182.929 240.071C183.319 240.462 183.953 240.462 184.343 240.071L190 234.414L195.657 240.071C196.047 240.462 196.681 240.462 197.071 240.071C197.462 239.681 197.462 239.047 197.071 238.657L190.707 232.293ZM191 264V262.062H189V264H191ZM191 258.187V254.312H189V258.187H191ZM191 250.437V246.562H189V250.437H191ZM191 242.687V238.812H189V242.687H191ZM191 234.937V233H189V234.937H191Z" fill="#FAA033"/>
<path d="M49.7071 232.293C49.3166 231.902 48.6834 231.902 48.2929 232.293L41.9289 238.657C41.5384 239.047 41.5384 239.681 41.9289 240.071C42.3195 240.462 42.9526 240.462 43.3431 240.071L49 234.414L54.6569 240.071C55.0474 240.462 55.6805 240.462 56.0711 240.071C56.4616 239.681 56.4616 239.047 56.0711 238.657L49.7071 232.293ZM50 264L50 233H48L48 264H50Z" fill="#FAA033"/>
<path d="M190.707 320.293C190.317 319.902 189.683 319.902 189.293 320.293L182.929 326.657C182.538 327.047 182.538 327.681 182.929 328.071C183.319 328.462 183.953 328.462 184.343 328.071L190 322.414L195.657 328.071C196.047 328.462 196.681 328.462 197.071 328.071C197.462 327.681 197.462 327.047 197.071 326.657L190.707 320.293ZM191 352V321H189V352H191Z" fill="#FAA033"/>
<path d="M49.7071 320.293C49.3166 319.902 48.6834 319.902 48.2929 320.293L41.9289 326.657C41.5384 327.047 41.5384 327.681 41.9289 328.071C42.3195 328.462 42.9526 328.462 43.3431 328.071L49 322.414L54.6569 328.071C55.0474 328.462 55.6805 328.462 56.0711 328.071C56.4616 327.681 56.4616 327.047 56.0711 326.657L49.7071 320.293ZM50 352V350.062H48V352H50ZM50 346.187V342.312H48V346.187H50ZM50 338.437V334.562H48V338.437H50ZM50 330.687V326.812H48V330.687H50ZM50 322.937V321H48V322.937H50Z" fill="#FAA033"/>
<rect x="0.5" y="0.5" width="250" height="55" rx="3.5" fill="#F4EFEA"/>
<rect x="0.5" y="0.5" width="250" height="55" rx="3.5" stroke="#E4DED7"/>
<path d="M99.8389 18.0641C100.01 18.2774 100.223 18.5601 100.479 18.9121C100.746 19.2534 101.018 19.6374 101.295 20.0641C101.572 20.4801 101.844 20.9174 102.111 21.3761C102.388 21.8348 102.623 22.2774 102.815 22.7041H101.119C100.906 22.2988 100.671 21.8881 100.415 21.4721C100.17 21.0561 99.9189 20.6614 99.6629 20.2881C99.4069 19.9041 99.1509 19.5468 98.8949 19.2161C98.6496 18.8854 98.4256 18.5974 98.2229 18.3521C98.0843 18.3628 97.9403 18.3681 97.7909 18.3681C97.6523 18.3681 97.5083 18.3681 97.3589 18.3681H95.9669V22.7041H94.4149V11.7761C94.8523 11.6694 95.3376 11.6001 95.8709 11.5681C96.4149 11.5254 96.9109 11.5041 97.3589 11.5041C98.9163 11.5041 100.1 11.7974 100.911 12.3841C101.732 12.9708 102.143 13.8454 102.143 15.0081C102.143 15.7441 101.946 16.3734 101.551 16.8961C101.167 17.4188 100.596 17.8081 99.8389 18.0641ZM97.4869 12.8641C96.8256 12.8641 96.3189 12.8801 95.9669 12.9121V17.0881H97.0709C97.6043 17.0881 98.0843 17.0614 98.5109 17.0081C98.9376 16.9548 99.2949 16.8534 99.5829 16.7041C99.8816 16.5548 100.111 16.3468 100.271 16.0801C100.431 15.8028 100.511 15.4401 100.511 14.9921C100.511 14.5761 100.431 14.2294 100.271 13.9521C100.111 13.6748 99.8923 13.4561 99.6149 13.2961C99.3483 13.1361 99.0283 13.0241 98.6549 12.9601C98.2923 12.8961 97.9029 12.8641 97.4869 12.8641Z" fill="#5B5854"/>
<path d="M111.725 18.5441C111.725 19.2054 111.629 19.8028 111.437 20.3361C111.245 20.8694 110.973 21.3281 110.621 21.7121C110.28 22.0961 109.869 22.3948 109.389 22.6081C108.909 22.8108 108.387 22.9121 107.821 22.9121C107.256 22.9121 106.733 22.8108 106.253 22.6081C105.773 22.3948 105.357 22.0961 105.005 21.7121C104.664 21.3281 104.397 20.8694 104.205 20.3361C104.013 19.8028 103.917 19.2054 103.917 18.5441C103.917 17.8934 104.013 17.3014 104.205 16.7681C104.397 16.2241 104.664 15.7601 105.005 15.3761C105.357 14.9921 105.773 14.6988 106.253 14.4961C106.733 14.2828 107.256 14.1761 107.821 14.1761C108.387 14.1761 108.909 14.2828 109.389 14.4961C109.869 14.6988 110.28 14.9921 110.621 15.3761C110.973 15.7601 111.245 16.2241 111.437 16.7681C111.629 17.3014 111.725 17.8934 111.725 18.5441ZM110.173 18.5441C110.173 17.6054 109.96 16.8641 109.533 16.3201C109.117 15.7654 108.547 15.4881 107.821 15.4881C107.096 15.4881 106.52 15.7654 106.093 16.3201C105.677 16.8641 105.469 17.6054 105.469 18.5441C105.469 19.4828 105.677 20.2294 106.093 20.7841C106.52 21.3281 107.096 21.6001 107.821 21.6001C108.547 21.6001 109.117 21.3281 109.533 20.7841C109.96 20.2294 110.173 19.4828 110.173 18.5441Z" fill="#5B5854"/>
<path d="M119.026 15.5041C118.802 15.7494 118.504 16.0961 118.13 16.5441C117.768 16.9921 117.373 17.4881 116.946 18.0321C116.53 18.5761 116.109 19.1468 115.682 19.7441C115.266 20.3414 114.898 20.9121 114.578 21.4561H119.154V22.7041H112.802V21.7121C113.058 21.2428 113.373 20.7254 113.746 20.1601C114.12 19.5948 114.509 19.0348 114.914 18.4801C115.33 17.9148 115.73 17.3868 116.114 16.8961C116.509 16.3948 116.85 15.9734 117.138 15.6321H113.026V14.3841H119.026V15.5041Z" fill="#5B5854"/>
<path d="M121.038 22.7041V10.5441L122.526 10.2881V14.5441C122.803 14.4374 123.096 14.3574 123.406 14.3041C123.726 14.2401 124.04 14.2081 124.35 14.2081C125.011 14.2081 125.56 14.3041 125.998 14.4961C126.435 14.6774 126.782 14.9388 127.038 15.2801C127.304 15.6108 127.491 16.0108 127.598 16.4801C127.704 16.9494 127.758 17.4668 127.758 18.0321V22.7041H126.27V18.3521C126.27 17.8401 126.232 17.4028 126.158 17.0401C126.094 16.6774 125.982 16.3841 125.822 16.1601C125.662 15.9361 125.448 15.7761 125.182 15.6801C124.915 15.5734 124.584 15.5201 124.19 15.5201C124.03 15.5201 123.864 15.5308 123.694 15.5521C123.523 15.5734 123.358 15.6001 123.198 15.6321C123.048 15.6534 122.91 15.6801 122.782 15.7121C122.664 15.7441 122.579 15.7708 122.526 15.7921V22.7041H121.038Z" fill="#5B5854"/>
<path d="M133.25 14.2081C133.378 14.2081 133.522 14.2188 133.682 14.2401C133.853 14.2508 134.018 14.2721 134.178 14.3041C134.338 14.3254 134.482 14.3521 134.61 14.3841C134.749 14.4054 134.85 14.4268 134.914 14.4481L134.658 15.7441C134.541 15.7014 134.344 15.6534 134.066 15.6001C133.8 15.5361 133.453 15.5041 133.026 15.5041C132.749 15.5041 132.472 15.5361 132.194 15.6001C131.928 15.6534 131.752 15.6908 131.666 15.7121V22.7041H130.178V14.7361C130.53 14.6081 130.968 14.4908 131.49 14.3841C132.013 14.2668 132.6 14.2081 133.25 14.2081Z" fill="#5B5854"/>
<path d="M139.166 21.6321C139.518 21.6321 139.827 21.6268 140.094 21.6161C140.371 21.5948 140.601 21.5628 140.782 21.5201V19.0401C140.675 18.9868 140.499 18.9441 140.254 18.9121C140.019 18.8694 139.732 18.8481 139.39 18.8481C139.166 18.8481 138.926 18.8641 138.67 18.8961C138.425 18.9281 138.195 18.9974 137.982 19.1041C137.779 19.2001 137.609 19.3388 137.47 19.5201C137.331 19.6908 137.262 19.9201 137.262 20.2081C137.262 20.7414 137.433 21.1148 137.774 21.3281C138.115 21.5308 138.58 21.6321 139.166 21.6321ZM139.038 14.1761C139.635 14.1761 140.137 14.2561 140.542 14.4161C140.958 14.5654 141.289 14.7841 141.534 15.0721C141.79 15.3494 141.972 15.6854 142.078 16.0801C142.185 16.4641 142.238 16.8908 142.238 17.3601V22.5601C142.11 22.5814 141.929 22.6134 141.694 22.6561C141.47 22.6881 141.214 22.7201 140.926 22.7521C140.638 22.7841 140.323 22.8108 139.982 22.8321C139.651 22.8641 139.321 22.8801 138.99 22.8801C138.521 22.8801 138.089 22.8321 137.694 22.7361C137.3 22.6401 136.958 22.4908 136.67 22.2881C136.382 22.0748 136.158 21.7974 135.998 21.4561C135.838 21.1148 135.758 20.7041 135.758 20.2241C135.758 19.7654 135.849 19.3708 136.03 19.0401C136.222 18.7094 136.478 18.4428 136.798 18.2401C137.118 18.0374 137.492 17.8881 137.918 17.7921C138.345 17.6961 138.793 17.6481 139.262 17.6481C139.412 17.6481 139.566 17.6588 139.726 17.6801C139.886 17.6908 140.036 17.7121 140.174 17.7441C140.324 17.7654 140.451 17.7868 140.558 17.8081C140.665 17.8294 140.739 17.8454 140.782 17.8561V17.4401C140.782 17.1948 140.756 16.9548 140.702 16.7201C140.649 16.4748 140.553 16.2614 140.414 16.0801C140.275 15.8881 140.083 15.7388 139.838 15.6321C139.603 15.5148 139.294 15.4561 138.91 15.4561C138.42 15.4561 137.987 15.4934 137.614 15.5681C137.251 15.6321 136.98 15.7014 136.798 15.7761L136.622 14.5441C136.814 14.4588 137.134 14.3788 137.582 14.3041C138.03 14.2188 138.515 14.1761 139.038 14.1761Z" fill="#5B5854"/>
<path d="M144.71 14.6241C145.051 14.5388 145.504 14.4481 146.07 14.3521C146.635 14.2561 147.286 14.2081 148.022 14.2081C148.683 14.2081 149.232 14.3041 149.67 14.4961C150.107 14.6774 150.454 14.9388 150.71 15.2801C150.976 15.6108 151.163 16.0108 151.27 16.4801C151.376 16.9494 151.43 17.4668 151.43 18.0321V22.7041H149.942V18.3521C149.942 17.8401 149.904 17.4028 149.83 17.0401C149.766 16.6774 149.654 16.3841 149.494 16.1601C149.334 15.9361 149.12 15.7761 148.854 15.6801C148.587 15.5734 148.256 15.5201 147.862 15.5201C147.702 15.5201 147.536 15.5254 147.366 15.5361C147.195 15.5468 147.03 15.5628 146.87 15.5841C146.72 15.5948 146.582 15.6108 146.454 15.6321C146.336 15.6534 146.251 15.6694 146.198 15.6801V22.7041H144.71V14.6241Z" fill="#5B5854"/>
<path d="M155.385 22.7041H153.897V14.3841H155.385V22.7041ZM156.585 11.2321L154.329 13.4241L153.577 12.7521L155.625 10.2881L156.585 11.2321Z" fill="#5B5854"/>
<path d="M105.766 38.9761C105.766 39.5201 105.702 40.0321 105.574 40.5121C105.456 40.9921 105.243 41.4134 104.934 41.7761C104.635 42.1281 104.224 42.4108 103.702 42.6241C103.19 42.8268 102.539 42.9281 101.75 42.9281C101.024 42.9281 100.4 42.8428 99.8777 42.6721C99.3551 42.4908 98.9231 42.2828 98.5817 42.0481L99.4137 40.1121C99.7231 40.2934 100.054 40.4534 100.406 40.5921C100.758 40.7308 101.142 40.8001 101.558 40.8001C102.166 40.8001 102.603 40.6508 102.87 40.3521C103.136 40.0534 103.27 39.5521 103.27 38.8481V31.6161H105.766V38.9761Z" fill="#5B5854"/>
<path d="M110.426 40.9921C110.864 40.9921 111.173 40.9494 111.354 40.8641C111.536 40.7788 111.626 40.6134 111.626 40.3681C111.626 40.1761 111.509 40.0108 111.274 39.8721C111.04 39.7228 110.682 39.5574 110.202 39.3761C109.829 39.2374 109.488 39.0934 109.178 38.9441C108.88 38.7948 108.624 38.6188 108.41 38.4161C108.197 38.2028 108.032 37.9521 107.914 37.6641C107.797 37.3761 107.738 37.0294 107.738 36.6241C107.738 35.8348 108.032 35.2108 108.618 34.7521C109.205 34.2934 110.01 34.0641 111.034 34.0641C111.546 34.0641 112.037 34.1121 112.506 34.2081C112.976 34.2934 113.349 34.3894 113.626 34.4961L113.21 36.3521C112.933 36.2561 112.629 36.1708 112.298 36.0961C111.978 36.0214 111.616 35.9841 111.21 35.9841C110.464 35.9841 110.09 36.1921 110.09 36.6081C110.09 36.7041 110.106 36.7894 110.138 36.8641C110.17 36.9388 110.234 37.0134 110.33 37.0881C110.426 37.1521 110.554 37.2268 110.714 37.3121C110.885 37.3868 111.098 37.4721 111.354 37.5681C111.877 37.7601 112.309 37.9521 112.65 38.1441C112.992 38.3254 113.258 38.5281 113.45 38.7521C113.653 38.9654 113.792 39.2054 113.866 39.4721C113.952 39.7388 113.994 40.0481 113.994 40.4001C113.994 41.2321 113.68 41.8614 113.05 42.2881C112.432 42.7148 111.552 42.9281 110.41 42.9281C109.664 42.9281 109.04 42.8641 108.538 42.7361C108.048 42.6081 107.706 42.5014 107.514 42.4161L107.914 40.4801C108.32 40.6401 108.736 40.7681 109.162 40.8641C109.589 40.9494 110.01 40.9921 110.426 40.9921Z" fill="#5B5854"/>
<path d="M121.168 38.5601C121.168 37.8241 121.003 37.2374 120.672 36.8001C120.341 36.3521 119.851 36.1281 119.2 36.1281C118.987 36.1281 118.789 36.1388 118.608 36.1601C118.427 36.1708 118.277 36.1868 118.16 36.2081V40.5121C118.309 40.6081 118.501 40.6881 118.736 40.7521C118.981 40.8161 119.227 40.8481 119.472 40.8481C120.603 40.8481 121.168 40.0854 121.168 38.5601ZM123.6 38.4961C123.6 39.1468 123.52 39.7388 123.36 40.2721C123.2 40.8054 122.965 41.2641 122.656 41.6481C122.347 42.0321 121.963 42.3308 121.504 42.5441C121.045 42.7574 120.517 42.8641 119.92 42.8641C119.589 42.8641 119.28 42.8321 118.992 42.7681C118.704 42.7041 118.427 42.6134 118.16 42.4961V45.6641H115.776V34.5761C115.989 34.5121 116.235 34.4534 116.512 34.4001C116.789 34.3361 117.077 34.2828 117.376 34.2401C117.685 34.1974 117.995 34.1654 118.304 34.1441C118.624 34.1121 118.928 34.0961 119.216 34.0961C119.909 34.0961 120.528 34.2028 121.072 34.4161C121.616 34.6188 122.075 34.9121 122.448 35.2961C122.821 35.6694 123.104 36.1281 123.296 36.6721C123.499 37.2161 123.6 37.8241 123.6 38.4961Z" fill="#5B5854"/>
<path d="M133.816 31.6161V33.7441H130.472V42.7041H127.976V33.7441H124.632V31.6161H133.816Z" fill="#5B5854"/>
<path d="M137.273 41.0401C137.508 41.0401 137.732 41.0348 137.945 41.0241C138.159 41.0134 138.329 40.9974 138.457 40.9761V39.1681C138.361 39.1468 138.217 39.1254 138.025 39.1041C137.833 39.0828 137.657 39.0721 137.497 39.0721C137.273 39.0721 137.06 39.0881 136.857 39.1201C136.665 39.1414 136.495 39.1894 136.345 39.2641C136.196 39.3388 136.079 39.4401 135.993 39.5681C135.908 39.6961 135.865 39.8561 135.865 40.0481C135.865 40.4214 135.988 40.6828 136.233 40.8321C136.489 40.9708 136.836 41.0401 137.273 41.0401ZM137.081 34.0641C137.785 34.0641 138.372 34.1441 138.841 34.3041C139.311 34.4641 139.684 34.6934 139.961 34.9921C140.249 35.2908 140.452 35.6534 140.569 36.0801C140.687 36.5068 140.745 36.9814 140.745 37.5041V42.4641C140.404 42.5388 139.929 42.6241 139.321 42.7201C138.713 42.8268 137.977 42.8801 137.113 42.8801C136.569 42.8801 136.073 42.8321 135.625 42.7361C135.188 42.6401 134.809 42.4854 134.489 42.2721C134.169 42.0481 133.924 41.7601 133.753 41.4081C133.583 41.0561 133.497 40.6241 133.497 40.1121C133.497 39.6214 133.593 39.2054 133.785 38.8641C133.988 38.5228 134.255 38.2508 134.585 38.0481C134.916 37.8454 135.295 37.7014 135.721 37.6161C136.148 37.5201 136.591 37.4721 137.049 37.4721C137.359 37.4721 137.631 37.4881 137.865 37.5201C138.111 37.5414 138.308 37.5734 138.457 37.6161V37.3921C138.457 36.9868 138.335 36.6614 138.089 36.4161C137.844 36.1708 137.417 36.0481 136.809 36.0481C136.404 36.0481 136.004 36.0801 135.609 36.1441C135.215 36.1974 134.873 36.2774 134.585 36.3841L134.281 34.4641C134.42 34.4214 134.591 34.3788 134.793 34.3361C135.007 34.2828 135.236 34.2401 135.481 34.2081C135.727 34.1654 135.983 34.1334 136.249 34.1121C136.527 34.0801 136.804 34.0641 137.081 34.0641Z" fill="#5B5854"/>
<path d="M144.933 38.2241C144.933 39.5574 145.472 40.2241 146.549 40.2241C146.794 40.2241 147.024 40.1921 147.237 40.1281C147.45 40.0641 147.632 39.9894 147.781 39.9041V36.0961C147.664 36.0748 147.525 36.0588 147.365 36.0481C147.205 36.0268 147.018 36.0161 146.805 36.0161C146.176 36.0161 145.706 36.2241 145.397 36.6401C145.088 37.0561 144.933 37.5841 144.933 38.2241ZM150.165 41.6481C150.165 43.0241 149.813 44.0428 149.109 44.7041C148.416 45.3761 147.338 45.7121 145.877 45.7121C145.365 45.7121 144.853 45.6641 144.341 45.5681C143.829 45.4828 143.354 45.3654 142.917 45.2161L143.333 43.2161C143.706 43.3654 144.096 43.4828 144.501 43.5681C144.917 43.6534 145.386 43.6961 145.909 43.6961C146.592 43.6961 147.072 43.5468 147.349 43.2481C147.637 42.9494 147.781 42.5654 147.781 42.0961V41.7921C147.525 41.9094 147.258 42.0001 146.981 42.0641C146.714 42.1174 146.421 42.1441 146.101 42.1441C144.938 42.1441 144.048 41.8028 143.429 41.1201C142.81 40.4268 142.501 39.4614 142.501 38.2241C142.501 37.6054 142.597 37.0454 142.789 36.5441C142.981 36.0321 143.258 35.5948 143.621 35.2321C143.994 34.8694 144.448 34.5921 144.981 34.4001C145.514 34.1974 146.117 34.0961 146.789 34.0961C147.077 34.0961 147.37 34.1121 147.669 34.1441C147.978 34.1654 148.282 34.1974 148.581 34.2401C148.88 34.2828 149.162 34.3361 149.429 34.4001C149.706 34.4534 149.952 34.5121 150.165 34.5761V41.6481Z" fill="#5B5854"/>
<rect x="0.5" y="88.5" width="250" height="55" rx="3.5" fill="#F4EFEA"/>
<rect x="0.5" y="88.5" width="250" height="55" rx="3.5" stroke="#E4DED7"/>
<path d="M99.8389 106.064C100.01 106.277 100.223 106.56 100.479 106.912C100.746 107.253 101.018 107.637 101.295 108.064C101.572 108.48 101.844 108.917 102.111 109.376C102.388 109.835 102.623 110.277 102.815 110.704H101.119C100.906 110.299 100.671 109.888 100.415 109.472C100.17 109.056 99.9189 108.661 99.6629 108.288C99.4069 107.904 99.1509 107.547 98.8949 107.216C98.6496 106.885 98.4256 106.597 98.2229 106.352C98.0843 106.363 97.9403 106.368 97.7909 106.368C97.6523 106.368 97.5083 106.368 97.3589 106.368H95.9669V110.704H94.4149V99.7761C94.8523 99.6694 95.3376 99.6001 95.8709 99.5681C96.4149 99.5254 96.9109 99.5041 97.3589 99.5041C98.9163 99.5041 100.1 99.7974 100.911 100.384C101.732 100.971 102.143 101.845 102.143 103.008C102.143 103.744 101.946 104.373 101.551 104.896C101.167 105.419 100.596 105.808 99.8389 106.064ZM97.4869 100.864C96.8256 100.864 96.3189 100.88 95.9669 100.912V105.088H97.0709C97.6043 105.088 98.0843 105.061 98.5109 105.008C98.9376 104.955 99.2949 104.853 99.5829 104.704C99.8816 104.555 100.111 104.347 100.271 104.08C100.431 103.803 100.511 103.44 100.511 102.992C100.511 102.576 100.431 102.229 100.271 101.952C100.111 101.675 99.8923 101.456 99.6149 101.296C99.3483 101.136 99.0283 101.024 98.6549 100.96C98.2923 100.896 97.9029 100.864 97.4869 100.864Z" fill="#5B5854"/>
<path d="M111.725 106.544C111.725 107.205 111.629 107.803 111.437 108.336C111.245 108.869 110.973 109.328 110.621 109.712C110.28 110.096 109.869 110.395 109.389 110.608C108.909 110.811 108.387 110.912 107.821 110.912C107.256 110.912 106.733 110.811 106.253 110.608C105.773 110.395 105.357 110.096 105.005 109.712C104.664 109.328 104.397 108.869 104.205 108.336C104.013 107.803 103.917 107.205 103.917 106.544C103.917 105.893 104.013 105.301 104.205 104.768C104.397 104.224 104.664 103.76 105.005 103.376C105.357 102.992 105.773 102.699 106.253 102.496C106.733 102.283 107.256 102.176 107.821 102.176C108.387 102.176 108.909 102.283 109.389 102.496C109.869 102.699 110.28 102.992 110.621 103.376C110.973 103.76 111.245 104.224 111.437 104.768C111.629 105.301 111.725 105.893 111.725 106.544ZM110.173 106.544C110.173 105.605 109.96 104.864 109.533 104.32C109.117 103.765 108.547 103.488 107.821 103.488C107.096 103.488 106.52 103.765 106.093 104.32C105.677 104.864 105.469 105.605 105.469 106.544C105.469 107.483 105.677 108.229 106.093 108.784C106.52 109.328 107.096 109.6 107.821 109.6C108.547 109.6 109.117 109.328 109.533 108.784C109.96 108.229 110.173 107.483 110.173 106.544Z" fill="#5B5854"/>
<path d="M119.026 103.504C118.802 103.749 118.504 104.096 118.13 104.544C117.768 104.992 117.373 105.488 116.946 106.032C116.53 106.576 116.109 107.147 115.682 107.744C115.266 108.341 114.898 108.912 114.578 109.456H119.154V110.704H112.802V109.712C113.058 109.243 113.373 108.725 113.746 108.16C114.12 107.595 114.509 107.035 114.914 106.48C115.33 105.915 115.73 105.387 116.114 104.896C116.509 104.395 116.85 103.973 117.138 103.632H113.026V102.384H119.026V103.504Z" fill="#5B5854"/>
<path d="M121.038 110.704V98.5441L122.526 98.2881V102.544C122.803 102.437 123.096 102.357 123.406 102.304C123.726 102.24 124.04 102.208 124.35 102.208C125.011 102.208 125.56 102.304 125.998 102.496C126.435 102.677 126.782 102.939 127.038 103.28C127.304 103.611 127.491 104.011 127.598 104.48C127.704 104.949 127.758 105.467 127.758 106.032V110.704H126.27V106.352C126.27 105.84 126.232 105.403 126.158 105.04C126.094 104.677 125.982 104.384 125.822 104.16C125.662 103.936 125.448 103.776 125.182 103.68C124.915 103.573 124.584 103.52 124.19 103.52C124.03 103.52 123.864 103.531 123.694 103.552C123.523 103.573 123.358 103.6 123.198 103.632C123.048 103.653 122.91 103.68 122.782 103.712C122.664 103.744 122.579 103.771 122.526 103.792V110.704H121.038Z" fill="#5B5854"/>
<path d="M133.25 102.208C133.378 102.208 133.522 102.219 133.682 102.24C133.853 102.251 134.018 102.272 134.178 102.304C134.338 102.325 134.482 102.352 134.61 102.384C134.749 102.405 134.85 102.427 134.914 102.448L134.658 103.744C134.541 103.701 134.344 103.653 134.066 103.6C133.8 103.536 133.453 103.504 133.026 103.504C132.749 103.504 132.472 103.536 132.194 103.6C131.928 103.653 131.752 103.691 131.666 103.712V110.704H130.178V102.736C130.53 102.608 130.968 102.491 131.49 102.384C132.013 102.267 132.6 102.208 133.25 102.208Z" fill="#5B5854"/>
<path d="M139.166 109.632C139.518 109.632 139.827 109.627 140.094 109.616C140.371 109.595 140.601 109.563 140.782 109.52V107.04C140.675 106.987 140.499 106.944 140.254 106.912C140.019 106.869 139.732 106.848 139.39 106.848C139.166 106.848 138.926 106.864 138.67 106.896C138.425 106.928 138.195 106.997 137.982 107.104C137.779 107.2 137.609 107.339 137.47 107.52C137.331 107.691 137.262 107.92 137.262 108.208C137.262 108.741 137.433 109.115 137.774 109.328C138.115 109.531 138.58 109.632 139.166 109.632ZM139.038 102.176C139.635 102.176 140.137 102.256 140.542 102.416C140.958 102.565 141.289 102.784 141.534 103.072C141.79 103.349 141.972 103.685 142.078 104.08C142.185 104.464 142.238 104.891 142.238 105.36V110.56C142.11 110.581 141.929 110.613 141.694 110.656C141.47 110.688 141.214 110.72 140.926 110.752C140.638 110.784 140.323 110.811 139.982 110.832C139.651 110.864 139.321 110.88 138.99 110.88C138.521 110.88 138.089 110.832 137.694 110.736C137.3 110.64 136.958 110.491 136.67 110.288C136.382 110.075 136.158 109.797 135.998 109.456C135.838 109.115 135.758 108.704 135.758 108.224C135.758 107.765 135.849 107.371 136.03 107.04C136.222 106.709 136.478 106.443 136.798 106.24C137.118 106.037 137.492 105.888 137.918 105.792C138.345 105.696 138.793 105.648 139.262 105.648C139.412 105.648 139.566 105.659 139.726 105.68C139.886 105.691 140.036 105.712 140.174 105.744C140.324 105.765 140.451 105.787 140.558 105.808C140.665 105.829 140.739 105.845 140.782 105.856V105.44C140.782 105.195 140.756 104.955 140.702 104.72C140.649 104.475 140.553 104.261 140.414 104.08C140.275 103.888 140.083 103.739 139.838 103.632C139.603 103.515 139.294 103.456 138.91 103.456C138.42 103.456 137.987 103.493 137.614 103.568C137.251 103.632 136.98 103.701 136.798 103.776L136.622 102.544C136.814 102.459 137.134 102.379 137.582 102.304C138.03 102.219 138.515 102.176 139.038 102.176Z" fill="#5B5854"/>
<path d="M144.71 102.624C145.051 102.539 145.504 102.448 146.07 102.352C146.635 102.256 147.286 102.208 148.022 102.208C148.683 102.208 149.232 102.304 149.67 102.496C150.107 102.677 150.454 102.939 150.71 103.28C150.976 103.611 151.163 104.011 151.27 104.48C151.376 104.949 151.43 105.467 151.43 106.032V110.704H149.942V106.352C149.942 105.84 149.904 105.403 149.83 105.04C149.766 104.677 149.654 104.384 149.494 104.16C149.334 103.936 149.12 103.776 148.854 103.68C148.587 103.573 148.256 103.52 147.862 103.52C147.702 103.52 147.536 103.525 147.366 103.536C147.195 103.547 147.03 103.563 146.87 103.584C146.72 103.595 146.582 103.611 146.454 103.632C146.336 103.653 146.251 103.669 146.198 103.68V110.704H144.71V102.624Z" fill="#5B5854"/>
<path d="M155.385 110.704H153.897V102.384H155.385V110.704ZM156.585 99.2321L154.329 101.424L153.577 100.752L155.625 98.2881L156.585 99.2321Z" fill="#5B5854"/>
<path d="M120.871 119.616V121.744H117.527V130.704H115.031V121.744H111.687V119.616H120.871Z" fill="#5B5854"/>
<path d="M124.328 129.04C124.563 129.04 124.787 129.035 125 129.024C125.213 129.013 125.384 128.997 125.512 128.976V127.168C125.416 127.147 125.272 127.125 125.08 127.104C124.888 127.083 124.712 127.072 124.552 127.072C124.328 127.072 124.115 127.088 123.912 127.12C123.72 127.141 123.549 127.189 123.4 127.264C123.251 127.339 123.133 127.44 123.048 127.568C122.963 127.696 122.92 127.856 122.92 128.048C122.92 128.421 123.043 128.683 123.288 128.832C123.544 128.971 123.891 129.04 124.328 129.04ZM124.136 122.064C124.84 122.064 125.427 122.144 125.896 122.304C126.365 122.464 126.739 122.693 127.016 122.992C127.304 123.291 127.507 123.653 127.624 124.08C127.741 124.507 127.8 124.981 127.8 125.504V130.464C127.459 130.539 126.984 130.624 126.376 130.72C125.768 130.827 125.032 130.88 124.168 130.88C123.624 130.88 123.128 130.832 122.68 130.736C122.243 130.64 121.864 130.485 121.544 130.272C121.224 130.048 120.979 129.76 120.808 129.408C120.637 129.056 120.552 128.624 120.552 128.112C120.552 127.621 120.648 127.205 120.84 126.864C121.043 126.523 121.309 126.251 121.64 126.048C121.971 125.845 122.349 125.701 122.776 125.616C123.203 125.52 123.645 125.472 124.104 125.472C124.413 125.472 124.685 125.488 124.92 125.52C125.165 125.541 125.363 125.573 125.512 125.616V125.392C125.512 124.987 125.389 124.661 125.144 124.416C124.899 124.171 124.472 124.048 123.864 124.048C123.459 124.048 123.059 124.08 122.664 124.144C122.269 124.197 121.928 124.277 121.64 124.384L121.336 122.464C121.475 122.421 121.645 122.379 121.848 122.336C122.061 122.283 122.291 122.24 122.536 122.208C122.781 122.165 123.037 122.133 123.304 122.112C123.581 122.08 123.859 122.064 124.136 122.064Z" fill="#5B5854"/>
<path d="M131.988 126.224C131.988 127.557 132.526 128.224 133.604 128.224C133.849 128.224 134.078 128.192 134.292 128.128C134.505 128.064 134.686 127.989 134.836 127.904V124.096C134.718 124.075 134.58 124.059 134.42 124.048C134.26 124.027 134.073 124.016 133.86 124.016C133.23 124.016 132.761 124.224 132.452 124.64C132.142 125.056 131.988 125.584 131.988 126.224ZM137.22 129.648C137.22 131.024 136.868 132.043 136.164 132.704C135.47 133.376 134.393 133.712 132.932 133.712C132.42 133.712 131.908 133.664 131.396 133.568C130.884 133.483 130.409 133.365 129.972 133.216L130.388 131.216C130.761 131.365 131.15 131.483 131.556 131.568C131.972 131.653 132.441 131.696 132.964 131.696C133.646 131.696 134.126 131.547 134.404 131.248C134.692 130.949 134.836 130.565 134.836 130.096V129.792C134.58 129.909 134.313 130 134.036 130.064C133.769 130.117 133.476 130.144 133.156 130.144C131.993 130.144 131.102 129.803 130.484 129.12C129.865 128.427 129.556 127.461 129.556 126.224C129.556 125.605 129.652 125.045 129.844 124.544C130.036 124.032 130.313 123.595 130.676 123.232C131.049 122.869 131.502 122.592 132.036 122.4C132.569 122.197 133.172 122.096 133.844 122.096C134.132 122.096 134.425 122.112 134.724 122.144C135.033 122.165 135.337 122.197 135.636 122.24C135.934 122.283 136.217 122.336 136.484 122.4C136.761 122.453 137.006 122.512 137.22 122.576V129.648Z" fill="#5B5854"/>
<rect x="0.5" y="176.5" width="250" height="55" rx="3.5" fill="#F4EFEA"/>
<rect x="0.5" y="176.5" width="250" height="55" rx="3.5" stroke="#E4DED7"/>
<path d="M100.405 194.064C100.576 194.277 100.789 194.56 101.045 194.912C101.312 195.253 101.584 195.637 101.861 196.064C102.139 196.48 102.411 196.917 102.677 197.376C102.955 197.835 103.189 198.277 103.381 198.704H101.685C101.472 198.299 101.237 197.888 100.981 197.472C100.736 197.056 100.485 196.661 100.229 196.288C99.9735 195.904 99.7175 195.547 99.4615 195.216C99.2162 194.885 98.9922 194.597 98.7895 194.352C98.6508 194.363 98.5068 194.368 98.3575 194.368C98.2188 194.368 98.0748 194.368 97.9255 194.368H96.5335V198.704H94.9815V187.776C95.4188 187.669 95.9042 187.6 96.4375 187.568C96.9815 187.525 97.4775 187.504 97.9255 187.504C99.4828 187.504 100.667 187.797 101.477 188.384C102.299 188.971 102.709 189.845 102.709 191.008C102.709 191.744 102.512 192.373 102.117 192.896C101.733 193.419 101.163 193.808 100.405 194.064ZM98.0535 188.864C97.3922 188.864 96.8855 188.88 96.5335 188.912V193.088H97.6375C98.1708 193.088 98.6508 193.061 99.0775 193.008C99.5042 192.955 99.8615 192.853 100.149 192.704C100.448 192.555 100.677 192.347 100.837 192.08C100.997 191.803 101.077 191.44 101.077 190.992C101.077 190.576 100.997 190.229 100.837 189.952C100.677 189.675 100.459 189.456 100.181 189.296C99.9148 189.136 99.5948 189.024 99.2215 188.96C98.8588 188.896 98.4695 188.864 98.0535 188.864Z" fill="#5B5854"/>
<path d="M112.292 194.544C112.292 195.205 112.196 195.803 112.004 196.336C111.812 196.869 111.54 197.328 111.188 197.712C110.847 198.096 110.436 198.395 109.956 198.608C109.476 198.811 108.953 198.912 108.388 198.912C107.823 198.912 107.3 198.811 106.82 198.608C106.34 198.395 105.924 198.096 105.572 197.712C105.231 197.328 104.964 196.869 104.772 196.336C104.58 195.803 104.484 195.205 104.484 194.544C104.484 193.893 104.58 193.301 104.772 192.768C104.964 192.224 105.231 191.76 105.572 191.376C105.924 190.992 106.34 190.699 106.82 190.496C107.3 190.283 107.823 190.176 108.388 190.176C108.953 190.176 109.476 190.283 109.956 190.496C110.436 190.699 110.847 190.992 111.188 191.376C111.54 191.76 111.812 192.224 112.004 192.768C112.196 193.301 112.292 193.893 112.292 194.544ZM110.74 194.544C110.74 193.605 110.527 192.864 110.1 192.32C109.684 191.765 109.113 191.488 108.388 191.488C107.663 191.488 107.087 191.765 106.66 192.32C106.244 192.864 106.036 193.605 106.036 194.544C106.036 195.483 106.244 196.229 106.66 196.784C107.087 197.328 107.663 197.6 108.388 197.6C109.113 197.6 109.684 197.328 110.1 196.784C110.527 196.229 110.74 195.483 110.74 194.544Z" fill="#5B5854"/>
<path d="M119.593 191.504C119.369 191.749 119.07 192.096 118.697 192.544C118.334 192.992 117.94 193.488 117.513 194.032C117.097 194.576 116.676 195.147 116.249 195.744C115.833 196.341 115.465 196.912 115.145 197.456H119.721V198.704H113.369V197.712C113.625 197.243 113.94 196.725 114.313 196.16C114.686 195.595 115.076 195.035 115.481 194.48C115.897 193.915 116.297 193.387 116.681 192.896C117.076 192.395 117.417 191.973 117.705 191.632H113.593V190.384H119.593V191.504Z" fill="#5B5854"/>
<path d="M121.604 198.704V186.544L123.092 186.288V190.544C123.37 190.437 123.663 190.357 123.972 190.304C124.292 190.24 124.607 190.208 124.916 190.208C125.578 190.208 126.127 190.304 126.564 190.496C127.002 190.677 127.348 190.939 127.604 191.28C127.871 191.611 128.058 192.011 128.164 192.48C128.271 192.949 128.324 193.467 128.324 194.032V198.704H126.836V194.352C126.836 193.84 126.799 193.403 126.724 193.04C126.66 192.677 126.548 192.384 126.388 192.16C126.228 191.936 126.015 191.776 125.748 191.68C125.482 191.573 125.151 191.52 124.756 191.52C124.596 191.52 124.431 191.531 124.26 191.552C124.09 191.573 123.924 191.6 123.764 191.632C123.615 191.653 123.476 191.68 123.348 191.712C123.231 191.744 123.146 191.771 123.092 191.792V198.704H121.604Z" fill="#5B5854"/>
<path d="M133.817 190.208C133.945 190.208 134.089 190.219 134.249 190.24C134.42 190.251 134.585 190.272 134.745 190.304C134.905 190.325 135.049 190.352 135.177 190.384C135.316 190.405 135.417 190.427 135.481 190.448L135.225 191.744C135.108 191.701 134.91 191.653 134.633 191.6C134.366 191.536 134.02 191.504 133.593 191.504C133.316 191.504 133.038 191.536 132.761 191.6C132.494 191.653 132.318 191.691 132.233 191.712V198.704H130.745V190.736C131.097 190.608 131.534 190.491 132.057 190.384C132.58 190.267 133.166 190.208 133.817 190.208Z" fill="#5B5854"/>
<path d="M139.733 197.632C140.085 197.632 140.394 197.627 140.661 197.616C140.938 197.595 141.167 197.563 141.349 197.52V195.04C141.242 194.987 141.066 194.944 140.821 194.912C140.586 194.869 140.298 194.848 139.957 194.848C139.733 194.848 139.493 194.864 139.237 194.896C138.991 194.928 138.762 194.997 138.549 195.104C138.346 195.2 138.175 195.339 138.037 195.52C137.898 195.691 137.829 195.92 137.829 196.208C137.829 196.741 137.999 197.115 138.341 197.328C138.682 197.531 139.146 197.632 139.733 197.632ZM139.605 190.176C140.202 190.176 140.703 190.256 141.109 190.416C141.525 190.565 141.855 190.784 142.101 191.072C142.357 191.349 142.538 191.685 142.645 192.08C142.751 192.464 142.805 192.891 142.805 193.36V198.56C142.677 198.581 142.495 198.613 142.261 198.656C142.037 198.688 141.781 198.72 141.493 198.752C141.205 198.784 140.89 198.811 140.549 198.832C140.218 198.864 139.887 198.88 139.557 198.88C139.087 198.88 138.655 198.832 138.261 198.736C137.866 198.64 137.525 198.491 137.237 198.288C136.949 198.075 136.725 197.797 136.565 197.456C136.405 197.115 136.325 196.704 136.325 196.224C136.325 195.765 136.415 195.371 136.597 195.04C136.789 194.709 137.045 194.443 137.365 194.24C137.685 194.037 138.058 193.888 138.485 193.792C138.911 193.696 139.359 193.648 139.829 193.648C139.978 193.648 140.133 193.659 140.293 193.68C140.453 193.691 140.602 193.712 140.741 193.744C140.89 193.765 141.018 193.787 141.125 193.808C141.231 193.829 141.306 193.845 141.349 193.856V193.44C141.349 193.195 141.322 192.955 141.269 192.72C141.215 192.475 141.119 192.261 140.981 192.08C140.842 191.888 140.65 191.739 140.405 191.632C140.17 191.515 139.861 191.456 139.477 191.456C138.986 191.456 138.554 191.493 138.181 191.568C137.818 191.632 137.546 191.701 137.365 191.776L137.189 190.544C137.381 190.459 137.701 190.379 138.149 190.304C138.597 190.219 139.082 190.176 139.605 190.176Z" fill="#5B5854"/>
<path d="M145.276 190.624C145.617 190.539 146.071 190.448 146.636 190.352C147.201 190.256 147.852 190.208 148.588 190.208C149.249 190.208 149.799 190.304 150.236 190.496C150.673 190.677 151.02 190.939 151.276 191.28C151.543 191.611 151.729 192.011 151.836 192.48C151.943 192.949 151.996 193.467 151.996 194.032V198.704H150.508V194.352C150.508 193.84 150.471 193.403 150.396 193.04C150.332 192.677 150.22 192.384 150.06 192.16C149.9 191.936 149.687 191.776 149.42 191.68C149.153 191.573 148.823 191.52 148.428 191.52C148.268 191.52 148.103 191.525 147.932 191.536C147.761 191.547 147.596 191.563 147.436 191.584C147.287 191.595 147.148 191.611 147.02 191.632C146.903 191.653 146.817 191.669 146.764 191.68V198.704H145.276V190.624Z" fill="#5B5854"/>
<path d="M155.952 198.704H154.464V190.384H155.952V198.704ZM157.152 187.232L154.896 189.424L154.144 188.752L156.192 186.288L157.152 187.232Z" fill="#5B5854"/>
<path d="M79.4558 207.616H81.9518V218.704H79.4558V207.616Z" fill="#5B5854"/>
<path d="M84.2783 208.192L86.6623 207.808V210.288H89.5263V212.272H86.6623V215.232C86.6623 215.733 86.7476 216.133 86.9183 216.432C87.0996 216.731 87.457 216.88 87.9903 216.88C88.2463 216.88 88.5076 216.859 88.7743 216.816C89.0516 216.763 89.3023 216.693 89.5263 216.608L89.8623 218.464C89.5743 218.581 89.2543 218.683 88.9023 218.768C88.5503 218.853 88.1183 218.896 87.6063 218.896C86.9556 218.896 86.417 218.811 85.9903 218.64C85.5636 218.459 85.2223 218.213 84.9663 217.904C84.7103 217.584 84.529 217.2 84.4223 216.752C84.3263 216.304 84.2783 215.808 84.2783 215.264V208.192Z" fill="#5B5854"/>
<path d="M90.7552 214.56C90.7552 213.813 90.8672 213.163 91.0912 212.608C91.3259 212.043 91.6299 211.573 92.0032 211.2C92.3765 210.827 92.8032 210.544 93.2832 210.352C93.7739 210.16 94.2752 210.064 94.7872 210.064C95.9819 210.064 96.9259 210.432 97.6192 211.168C98.3125 211.893 98.6592 212.965 98.6592 214.384C98.6592 214.523 98.6539 214.677 98.6432 214.848C98.6325 215.008 98.6219 215.152 98.6112 215.28H93.2032C93.2565 215.771 93.4859 216.16 93.8912 216.448C94.2965 216.736 94.8405 216.88 95.5232 216.88C95.9605 216.88 96.3872 216.843 96.8032 216.768C97.2299 216.683 97.5765 216.581 97.8432 216.464L98.1632 218.4C98.0352 218.464 97.8645 218.528 97.6512 218.592C97.4379 218.656 97.1979 218.709 96.9312 218.752C96.6752 218.805 96.3979 218.848 96.0992 218.88C95.8005 218.912 95.5019 218.928 95.2032 218.928C94.4459 218.928 93.7845 218.816 93.2192 218.592C92.6645 218.368 92.2005 218.064 91.8272 217.68C91.4645 217.285 91.1925 216.821 91.0112 216.288C90.8405 215.755 90.7552 215.179 90.7552 214.56ZM96.3552 213.648C96.3445 213.445 96.3072 213.248 96.2432 213.056C96.1899 212.864 96.0992 212.693 95.9712 212.544C95.8539 212.395 95.6992 212.272 95.5072 212.176C95.3259 212.08 95.0965 212.032 94.8192 212.032C94.5525 212.032 94.3232 212.08 94.1312 212.176C93.9392 212.261 93.7792 212.379 93.6512 212.528C93.5232 212.677 93.4219 212.853 93.3472 213.056C93.2832 213.248 93.2352 213.445 93.2032 213.648H96.3552Z" fill="#5B5854"/>
<path d="M105.571 212.4C105.358 212.347 105.107 212.293 104.819 212.24C104.531 212.176 104.222 212.144 103.891 212.144C103.742 212.144 103.56 212.16 103.347 212.192C103.144 212.213 102.99 212.24 102.883 212.272V218.704H100.499V210.736C100.926 210.587 101.427 210.448 102.003 210.32C102.59 210.181 103.24 210.112 103.955 210.112C104.083 210.112 104.238 210.123 104.419 210.144C104.6 210.155 104.782 210.176 104.963 210.208C105.144 210.229 105.326 210.261 105.507 210.304C105.688 210.336 105.843 210.379 105.971 210.432L105.571 212.4Z" fill="#5B5854"/>
<path d="M110.309 217.04C110.543 217.04 110.767 217.035 110.981 217.024C111.194 217.013 111.365 216.997 111.493 216.976V215.168C111.397 215.147 111.253 215.125 111.061 215.104C110.869 215.083 110.693 215.072 110.533 215.072C110.309 215.072 110.095 215.088 109.893 215.12C109.701 215.141 109.53 215.189 109.381 215.264C109.231 215.339 109.114 215.44 109.029 215.568C108.943 215.696 108.901 215.856 108.901 216.048C108.901 216.421 109.023 216.683 109.269 216.832C109.525 216.971 109.871 217.04 110.309 217.04ZM110.117 210.064C110.821 210.064 111.407 210.144 111.877 210.304C112.346 210.464 112.719 210.693 112.997 210.992C113.285 211.291 113.487 211.653 113.605 212.08C113.722 212.507 113.781 212.981 113.781 213.504V218.464C113.439 218.539 112.965 218.624 112.357 218.72C111.749 218.827 111.013 218.88 110.149 218.88C109.605 218.88 109.109 218.832 108.661 218.736C108.223 218.64 107.845 218.485 107.525 218.272C107.205 218.048 106.959 217.76 106.789 217.408C106.618 217.056 106.533 216.624 106.533 216.112C106.533 215.621 106.629 215.205 106.821 214.864C107.023 214.523 107.29 214.251 107.621 214.048C107.951 213.845 108.33 213.701 108.757 213.616C109.183 213.52 109.626 213.472 110.085 213.472C110.394 213.472 110.666 213.488 110.901 213.52C111.146 213.541 111.343 213.573 111.493 213.616V213.392C111.493 212.987 111.37 212.661 111.125 212.416C110.879 212.171 110.453 212.048 109.845 212.048C109.439 212.048 109.039 212.08 108.645 212.144C108.25 212.197 107.909 212.277 107.621 212.384L107.317 210.464C107.455 210.421 107.626 210.379 107.829 210.336C108.042 210.283 108.271 210.24 108.517 210.208C108.762 210.165 109.018 210.133 109.285 210.112C109.562 210.08 109.839 210.064 110.117 210.064Z" fill="#5B5854"/>
<path d="M115.856 208.192L118.24 207.808V210.288H121.104V212.272H118.24V215.232C118.24 215.733 118.326 216.133 118.496 216.432C118.678 216.731 119.035 216.88 119.568 216.88C119.824 216.88 120.086 216.859 120.352 216.816C120.63 216.763 120.88 216.693 121.104 216.608L121.44 218.464C121.152 218.581 120.832 218.683 120.48 218.768C120.128 218.853 119.696 218.896 119.184 218.896C118.534 218.896 117.995 218.811 117.568 218.64C117.142 218.459 116.8 218.213 116.544 217.904C116.288 217.584 116.107 217.2 116 216.752C115.904 216.304 115.856 215.808 115.856 215.264V208.192Z" fill="#5B5854"/>
<path d="M125.43 218.704H123.046V210.288H125.43V218.704ZM125.654 207.856C125.654 208.293 125.51 208.64 125.222 208.896C124.944 209.141 124.614 209.264 124.23 209.264C123.846 209.264 123.51 209.141 123.222 208.896C122.944 208.64 122.806 208.293 122.806 207.856C122.806 207.419 122.944 207.077 123.222 206.832C123.51 206.576 123.846 206.448 124.23 206.448C124.614 206.448 124.944 206.576 125.222 206.832C125.51 207.077 125.654 207.419 125.654 207.856Z" fill="#5B5854"/>
<path d="M135.543 214.48C135.543 215.141 135.447 215.749 135.255 216.304C135.063 216.848 134.785 217.317 134.423 217.712C134.06 218.096 133.623 218.395 133.111 218.608C132.609 218.821 132.044 218.928 131.415 218.928C130.796 218.928 130.231 218.821 129.719 218.608C129.217 218.395 128.785 218.096 128.423 217.712C128.06 217.317 127.777 216.848 127.575 216.304C127.372 215.749 127.271 215.141 127.271 214.48C127.271 213.819 127.372 213.216 127.575 212.672C127.788 212.128 128.076 211.664 128.439 211.28C128.812 210.896 129.249 210.597 129.751 210.384C130.263 210.171 130.817 210.064 131.415 210.064C132.023 210.064 132.577 210.171 133.079 210.384C133.591 210.597 134.028 210.896 134.391 211.28C134.753 211.664 135.036 212.128 135.239 212.672C135.441 213.216 135.543 213.819 135.543 214.48ZM133.111 214.48C133.111 213.744 132.961 213.168 132.663 212.752C132.375 212.325 131.959 212.112 131.415 212.112C130.871 212.112 130.449 212.325 130.151 212.752C129.852 213.168 129.703 213.744 129.703 214.48C129.703 215.216 129.852 215.803 130.151 216.24C130.449 216.667 130.871 216.88 131.415 216.88C131.959 216.88 132.375 216.667 132.663 216.24C132.961 215.803 133.111 215.216 133.111 214.48Z" fill="#5B5854"/>
<path d="M137.39 210.576C137.795 210.459 138.318 210.352 138.958 210.256C139.598 210.149 140.27 210.096 140.974 210.096C141.688 210.096 142.28 210.192 142.75 210.384C143.23 210.565 143.608 210.827 143.886 211.168C144.163 211.509 144.36 211.915 144.478 212.384C144.595 212.853 144.654 213.376 144.654 213.952V218.704H142.27V214.24C142.27 213.472 142.168 212.928 141.966 212.608C141.763 212.288 141.384 212.128 140.83 212.128C140.659 212.128 140.478 212.139 140.286 212.16C140.094 212.171 139.923 212.187 139.774 212.208V218.704H137.39V210.576Z" fill="#5B5854"/>
<path d="M155.195 207.616V209.744H151.851V218.704H149.355V209.744H146.011V207.616H155.195Z" fill="#5B5854"/>
<path d="M158.652 217.04C158.887 217.04 159.111 217.035 159.324 217.024C159.538 217.013 159.708 216.997 159.836 216.976V215.168C159.74 215.147 159.596 215.125 159.404 215.104C159.212 215.083 159.036 215.072 158.876 215.072C158.652 215.072 158.439 215.088 158.236 215.12C158.044 215.141 157.874 215.189 157.724 215.264C157.575 215.339 157.458 215.44 157.372 215.568C157.287 215.696 157.244 215.856 157.244 216.048C157.244 216.421 157.367 216.683 157.612 216.832C157.868 216.971 158.215 217.04 158.652 217.04ZM158.46 210.064C159.164 210.064 159.751 210.144 160.22 210.304C160.69 210.464 161.063 210.693 161.34 210.992C161.628 211.291 161.831 211.653 161.948 212.08C162.066 212.507 162.124 212.981 162.124 213.504V218.464C161.783 218.539 161.308 218.624 160.7 218.72C160.092 218.827 159.356 218.88 158.492 218.88C157.948 218.88 157.452 218.832 157.004 218.736C156.567 218.64 156.188 218.485 155.868 218.272C155.548 218.048 155.303 217.76 155.132 217.408C154.962 217.056 154.876 216.624 154.876 216.112C154.876 215.621 154.972 215.205 155.164 214.864C155.367 214.523 155.634 214.251 155.964 214.048C156.295 213.845 156.674 213.701 157.1 213.616C157.527 213.52 157.97 213.472 158.428 213.472C158.738 213.472 159.01 213.488 159.244 213.52C159.49 213.541 159.687 213.573 159.836 213.616V213.392C159.836 212.987 159.714 212.661 159.468 212.416C159.223 212.171 158.796 212.048 158.188 212.048C157.783 212.048 157.383 212.08 156.988 212.144C156.594 212.197 156.252 212.277 155.964 212.384L155.66 210.464C155.799 210.421 155.97 210.379 156.172 210.336C156.386 210.283 156.615 210.24 156.86 210.208C157.106 210.165 157.362 210.133 157.628 210.112C157.906 210.08 158.183 210.064 158.46 210.064Z" fill="#5B5854"/>
<path d="M166.312 214.224C166.312 215.557 166.851 216.224 167.928 216.224C168.174 216.224 168.403 216.192 168.616 216.128C168.83 216.064 169.011 215.989 169.16 215.904V212.096C169.043 212.075 168.904 212.059 168.744 212.048C168.584 212.027 168.398 212.016 168.184 212.016C167.555 212.016 167.086 212.224 166.776 212.64C166.467 213.056 166.312 213.584 166.312 214.224ZM171.544 217.648C171.544 219.024 171.192 220.043 170.488 220.704C169.795 221.376 168.718 221.712 167.256 221.712C166.744 221.712 166.232 221.664 165.72 221.568C165.208 221.483 164.734 221.365 164.296 221.216L164.712 219.216C165.086 219.365 165.475 219.483 165.88 219.568C166.296 219.653 166.766 219.696 167.288 219.696C167.971 219.696 168.451 219.547 168.728 219.248C169.016 218.949 169.16 218.565 169.16 218.096V217.792C168.904 217.909 168.638 218 168.36 218.064C168.094 218.117 167.8 218.144 167.48 218.144C166.318 218.144 165.427 217.803 164.808 217.12C164.19 216.427 163.88 215.461 163.88 214.224C163.88 213.605 163.976 213.045 164.168 212.544C164.36 212.032 164.638 211.595 165 211.232C165.374 210.869 165.827 210.592 166.36 210.4C166.894 210.197 167.496 210.096 168.168 210.096C168.456 210.096 168.75 210.112 169.048 210.144C169.358 210.165 169.662 210.197 169.96 210.24C170.259 210.283 170.542 210.336 170.808 210.4C171.086 210.453 171.331 210.512 171.544 210.576V217.648Z" fill="#5B5854"/>
<rect x="0.5" y="264.5" width="94.2505" height="55" rx="3.5" fill="#F4EFEA"/>
<rect x="0.5" y="264.5" width="94.2505" height="55" rx="3.5" stroke="#E4DED7"/>
<path d="M22.5044 282.064C22.675 282.277 22.8884 282.56 23.1444 282.912C23.411 283.253 23.683 283.637 23.9604 284.064C24.2377 284.48 24.5097 284.917 24.7764 285.376C25.0537 285.835 25.2884 286.277 25.4804 286.704H23.7844C23.571 286.299 23.3364 285.888 23.0804 285.472C22.835 285.056 22.5844 284.661 22.3284 284.288C22.0724 283.904 21.8164 283.547 21.5604 283.216C21.315 282.885 21.091 282.597 20.8884 282.352C20.7497 282.363 20.6057 282.368 20.4564 282.368C20.3177 282.368 20.1737 282.368 20.0244 282.368H18.6324V286.704H17.0804V275.776C17.5177 275.669 18.003 275.6 18.5364 275.568C19.0804 275.525 19.5764 275.504 20.0244 275.504C21.5817 275.504 22.7657 275.797 23.5764 276.384C24.3977 276.971 24.8084 277.845 24.8084 279.008C24.8084 279.744 24.611 280.373 24.2164 280.896C23.8324 281.419 23.2617 281.808 22.5044 282.064ZM20.1524 276.864C19.491 276.864 18.9844 276.88 18.6324 276.912V281.088H19.7364C20.2697 281.088 20.7497 281.061 21.1764 281.008C21.603 280.955 21.9604 280.853 22.2484 280.704C22.547 280.555 22.7764 280.347 22.9364 280.08C23.0964 279.803 23.1764 279.44 23.1764 278.992C23.1764 278.576 23.0964 278.229 22.9364 277.952C22.7764 277.675 22.5577 277.456 22.2804 277.296C22.0137 277.136 21.6937 277.024 21.3204 276.96C20.9577 276.896 20.5684 276.864 20.1524 276.864Z" fill="#5B5854"/>
<path d="M34.3909 282.544C34.3909 283.205 34.2949 283.803 34.1029 284.336C33.9109 284.869 33.6389 285.328 33.2869 285.712C32.9455 286.096 32.5349 286.395 32.0549 286.608C31.5749 286.811 31.0522 286.912 30.4869 286.912C29.9215 286.912 29.3989 286.811 28.9189 286.608C28.4389 286.395 28.0229 286.096 27.6709 285.712C27.3295 285.328 27.0629 284.869 26.8709 284.336C26.6789 283.803 26.5829 283.205 26.5829 282.544C26.5829 281.893 26.6789 281.301 26.8709 280.768C27.0629 280.224 27.3295 279.76 27.6709 279.376C28.0229 278.992 28.4389 278.699 28.9189 278.496C29.3989 278.283 29.9215 278.176 30.4869 278.176C31.0522 278.176 31.5749 278.283 32.0549 278.496C32.5349 278.699 32.9455 278.992 33.2869 279.376C33.6389 279.76 33.9109 280.224 34.1029 280.768C34.2949 281.301 34.3909 281.893 34.3909 282.544ZM32.8389 282.544C32.8389 281.605 32.6255 280.864 32.1989 280.32C31.7829 279.765 31.2122 279.488 30.4869 279.488C29.7615 279.488 29.1855 279.765 28.7589 280.32C28.3429 280.864 28.1349 281.605 28.1349 282.544C28.1349 283.483 28.3429 284.229 28.7589 284.784C29.1855 285.328 29.7615 285.6 30.4869 285.6C31.2122 285.6 31.7829 285.328 32.1989 284.784C32.6255 284.229 32.8389 283.483 32.8389 282.544Z" fill="#5B5854"/>
<path d="M41.6919 279.504C41.4679 279.749 41.1692 280.096 40.7959 280.544C40.4332 280.992 40.0385 281.488 39.6119 282.032C39.1959 282.576 38.7745 283.147 38.3479 283.744C37.9319 284.341 37.5639 284.912 37.2439 285.456H41.8199V286.704H35.4679V285.712C35.7239 285.243 36.0385 284.725 36.4119 284.16C36.7852 283.595 37.1745 283.035 37.5799 282.48C37.9959 281.915 38.3959 281.387 38.7799 280.896C39.1745 280.395 39.5159 279.973 39.8039 279.632H35.6919V278.384H41.6919V279.504Z" fill="#5B5854"/>
<path d="M43.7031 286.704V274.544L45.1911 274.288V278.544C45.4685 278.437 45.7618 278.357 46.0711 278.304C46.3911 278.24 46.7058 278.208 47.0151 278.208C47.6765 278.208 48.2258 278.304 48.6631 278.496C49.1005 278.677 49.4471 278.939 49.7031 279.28C49.9698 279.611 50.1565 280.011 50.2631 280.48C50.3698 280.949 50.4231 281.467 50.4231 282.032V286.704H48.9351V282.352C48.9351 281.84 48.8978 281.403 48.8231 281.04C48.7591 280.677 48.6471 280.384 48.4871 280.16C48.3271 279.936 48.1138 279.776 47.8471 279.68C47.5805 279.573 47.2498 279.52 46.8551 279.52C46.6951 279.52 46.5298 279.531 46.3591 279.552C46.1885 279.573 46.0231 279.6 45.8631 279.632C45.7138 279.653 45.5751 279.68 45.4471 279.712C45.3298 279.744 45.2445 279.771 45.1911 279.792V286.704H43.7031Z" fill="#5B5854"/>
<path d="M55.9157 278.208C56.0437 278.208 56.1878 278.219 56.3478 278.24C56.5184 278.251 56.6838 278.272 56.8438 278.304C57.0038 278.325 57.1477 278.352 57.2757 278.384C57.4144 278.405 57.5157 278.427 57.5798 278.448L57.3237 279.744C57.2064 279.701 57.0091 279.653 56.7318 279.6C56.4651 279.536 56.1184 279.504 55.6917 279.504C55.4144 279.504 55.1371 279.536 54.8597 279.6C54.5931 279.653 54.4171 279.691 54.3317 279.712V286.704H52.8438V278.736C53.1957 278.608 53.6331 278.491 54.1558 278.384C54.6784 278.267 55.2651 278.208 55.9157 278.208Z" fill="#5B5854"/>
<path d="M61.8316 285.632C62.1836 285.632 62.493 285.627 62.7596 285.616C63.037 285.595 63.2663 285.563 63.4476 285.52V283.04C63.341 282.987 63.165 282.944 62.9196 282.912C62.685 282.869 62.397 282.848 62.0556 282.848C61.8316 282.848 61.5916 282.864 61.3356 282.896C61.0903 282.928 60.861 282.997 60.6476 283.104C60.445 283.2 60.2743 283.339 60.1356 283.52C59.997 283.691 59.9276 283.92 59.9276 284.208C59.9276 284.741 60.0983 285.115 60.4396 285.328C60.781 285.531 61.245 285.632 61.8316 285.632ZM61.7036 278.176C62.301 278.176 62.8023 278.256 63.2076 278.416C63.6236 278.565 63.9543 278.784 64.1996 279.072C64.4556 279.349 64.637 279.685 64.7436 280.08C64.8503 280.464 64.9036 280.891 64.9036 281.36V286.56C64.7756 286.581 64.5943 286.613 64.3596 286.656C64.1356 286.688 63.8796 286.72 63.5916 286.752C63.3036 286.784 62.989 286.811 62.6476 286.832C62.317 286.864 61.9863 286.88 61.6556 286.88C61.1863 286.88 60.7543 286.832 60.3596 286.736C59.965 286.64 59.6236 286.491 59.3356 286.288C59.0476 286.075 58.8236 285.797 58.6636 285.456C58.5036 285.115 58.4236 284.704 58.4236 284.224C58.4236 283.765 58.5143 283.371 58.6956 283.04C58.8876 282.709 59.1436 282.443 59.4636 282.24C59.7836 282.037 60.157 281.888 60.5836 281.792C61.0103 281.696 61.4583 281.648 61.9276 281.648C62.077 281.648 62.2316 281.659 62.3916 281.68C62.5516 281.691 62.701 281.712 62.8396 281.744C62.989 281.765 63.117 281.787 63.2236 281.808C63.3303 281.829 63.405 281.845 63.4476 281.856V281.44C63.4476 281.195 63.421 280.955 63.3676 280.72C63.3143 280.475 63.2183 280.261 63.0796 280.08C62.941 279.888 62.749 279.739 62.5036 279.632C62.269 279.515 61.9596 279.456 61.5756 279.456C61.085 279.456 60.653 279.493 60.2796 279.568C59.917 279.632 59.645 279.701 59.4636 279.776L59.2876 278.544C59.4796 278.459 59.7996 278.379 60.2476 278.304C60.6956 278.219 61.181 278.176 61.7036 278.176Z" fill="#5B5854"/>
<path d="M67.375 278.624C67.7163 278.539 68.1697 278.448 68.735 278.352C69.3003 278.256 69.951 278.208 70.687 278.208C71.3483 278.208 71.8977 278.304 72.335 278.496C72.7723 278.677 73.119 278.939 73.375 279.28C73.6417 279.611 73.8283 280.011 73.935 280.48C74.0417 280.949 74.095 281.467 74.095 282.032V286.704H72.607V282.352C72.607 281.84 72.5697 281.403 72.495 281.04C72.431 280.677 72.319 280.384 72.159 280.16C71.999 279.936 71.7857 279.776 71.519 279.68C71.2523 279.573 70.9217 279.52 70.527 279.52C70.367 279.52 70.2017 279.525 70.031 279.536C69.8603 279.547 69.695 279.563 69.535 279.584C69.3857 279.595 69.247 279.611 69.119 279.632C69.0017 279.653 68.9163 279.669 68.863 279.68V286.704H67.375V278.624Z" fill="#5B5854"/>
<path d="M78.0505 286.704H76.5625V278.384H78.0505V286.704ZM79.2505 275.232L76.9945 277.424L76.2425 276.752L78.2905 274.288L79.2505 275.232Z" fill="#5B5854"/>
<path d="M19.696 306.848C19.088 306.848 18.48 306.827 17.872 306.784C17.2747 306.752 16.6507 306.667 16 306.528V295.776C16.512 295.68 17.072 295.611 17.68 295.568C18.288 295.515 18.8533 295.488 19.376 295.488C20.08 295.488 20.7253 295.541 21.312 295.648C21.9093 295.744 22.4213 295.915 22.848 296.16C23.2747 296.405 23.6053 296.731 23.84 297.136C24.0853 297.531 24.208 298.021 24.208 298.608C24.208 299.493 23.7813 300.192 22.928 300.704C23.632 300.971 24.112 301.333 24.368 301.792C24.624 302.251 24.752 302.768 24.752 303.344C24.752 304.507 24.3253 305.381 23.472 305.968C22.6293 306.555 21.3707 306.848 19.696 306.848ZM18.432 301.872V304.736C18.6133 304.757 18.8107 304.773 19.024 304.784C19.2373 304.795 19.472 304.8 19.728 304.8C20.4747 304.8 21.0773 304.693 21.536 304.48C21.9947 304.267 22.224 303.872 22.224 303.296C22.224 302.784 22.032 302.421 21.648 302.208C21.264 301.984 20.7147 301.872 20 301.872H18.432ZM18.432 299.968H19.648C20.416 299.968 20.9653 299.872 21.296 299.68C21.6267 299.477 21.792 299.157 21.792 298.72C21.792 298.272 21.6213 297.957 21.28 297.776C20.9387 297.595 20.4373 297.504 19.776 297.504C19.5627 297.504 19.3333 297.509 19.088 297.52C18.8427 297.52 18.624 297.531 18.432 297.552V299.968Z" fill="#5B5854"/>
<path d="M34.462 302.48C34.462 303.141 34.366 303.749 34.174 304.304C33.982 304.848 33.7047 305.317 33.342 305.712C32.9793 306.096 32.542 306.395 32.03 306.608C31.5287 306.821 30.9633 306.928 30.334 306.928C29.7153 306.928 29.15 306.821 28.638 306.608C28.1367 306.395 27.7047 306.096 27.342 305.712C26.9793 305.317 26.6967 304.848 26.494 304.304C26.2913 303.749 26.19 303.141 26.19 302.48C26.19 301.819 26.2913 301.216 26.494 300.672C26.7073 300.128 26.9953 299.664 27.358 299.28C27.7313 298.896 28.1687 298.597 28.67 298.384C29.182 298.171 29.7367 298.064 30.334 298.064C30.942 298.064 31.4967 298.171 31.998 298.384C32.51 298.597 32.9473 298.896 33.31 299.28C33.6727 299.664 33.9553 300.128 34.158 300.672C34.3607 301.216 34.462 301.819 34.462 302.48ZM32.03 302.48C32.03 301.744 31.8807 301.168 31.582 300.752C31.294 300.325 30.878 300.112 30.334 300.112C29.79 300.112 29.3687 300.325 29.07 300.752C28.7713 301.168 28.622 301.744 28.622 302.48C28.622 303.216 28.7713 303.803 29.07 304.24C29.3687 304.667 29.79 304.88 30.334 304.88C30.878 304.88 31.294 304.667 31.582 304.24C31.8807 303.803 32.03 303.216 32.03 302.48Z" fill="#5B5854"/>
<path d="M38.3407 302.432C38.3407 303.168 38.5061 303.76 38.8368 304.208C39.1674 304.656 39.6581 304.88 40.3088 304.88C40.5221 304.88 40.7194 304.875 40.9008 304.864C41.0821 304.843 41.2314 304.821 41.3488 304.8V300.464C41.1994 300.368 41.0021 300.288 40.7568 300.224C40.5221 300.16 40.2821 300.128 40.0368 300.128C38.9061 300.128 38.3407 300.896 38.3407 302.432ZM43.7327 306.432C43.5194 306.496 43.2741 306.56 42.9967 306.624C42.7194 306.677 42.4261 306.725 42.1168 306.768C41.8181 306.811 41.5088 306.843 41.1888 306.864C40.8794 306.896 40.5807 306.912 40.2927 306.912C39.5994 306.912 38.9808 306.811 38.4368 306.608C37.8928 306.405 37.4341 306.117 37.0607 305.744C36.6874 305.36 36.3994 304.901 36.1968 304.368C36.0048 303.824 35.9088 303.216 35.9088 302.544C35.9088 301.861 35.9941 301.248 36.1647 300.704C36.3354 300.149 36.5807 299.68 36.9007 299.296C37.2207 298.912 37.6101 298.619 38.0688 298.416C38.5381 298.213 39.0714 298.112 39.6688 298.112C39.9994 298.112 40.2928 298.144 40.5487 298.208C40.8154 298.272 41.0821 298.363 41.3488 298.48V294.672L43.7327 294.288V306.432Z" fill="#5B5854"/>
<path d="M53.187 298.288C52.707 299.909 52.2057 301.429 51.683 302.848C51.1603 304.267 50.5897 305.643 49.971 306.976C49.747 307.456 49.523 307.861 49.299 308.192C49.075 308.533 48.8297 308.811 48.563 309.024C48.2963 309.248 47.9923 309.408 47.651 309.504C47.3203 309.611 46.931 309.664 46.483 309.664C46.1097 309.664 45.763 309.627 45.443 309.552C45.1337 309.488 44.8777 309.413 44.675 309.328L45.091 307.424C45.3363 307.509 45.555 307.568 45.747 307.6C45.939 307.632 46.1417 307.648 46.355 307.648C46.7817 307.648 47.107 307.531 47.331 307.296C47.5657 307.072 47.763 306.757 47.923 306.352C47.379 305.285 46.835 304.091 46.291 302.768C45.747 301.435 45.235 299.941 44.755 298.288H47.283C47.3897 298.704 47.5123 299.157 47.651 299.648C47.8003 300.128 47.955 300.619 48.115 301.12C48.275 301.611 48.435 302.091 48.595 302.56C48.7657 303.029 48.9257 303.456 49.075 303.84C49.2137 303.456 49.3577 303.029 49.507 302.56C49.6563 302.091 49.8003 301.611 49.939 301.12C50.0883 300.619 50.227 300.128 50.355 299.648C50.4937 299.157 50.6163 298.704 50.723 298.288H53.187Z" fill="#5B5854"/>
<path d="M62.849 295.616V297.744H59.505V306.704H57.009V297.744H53.665V295.616H62.849Z" fill="#5B5854"/>
<path d="M66.306 305.04C66.5407 305.04 66.7647 305.035 66.978 305.024C67.1913 305.013 67.362 304.997 67.49 304.976V303.168C67.394 303.147 67.25 303.125 67.058 303.104C66.866 303.083 66.69 303.072 66.53 303.072C66.306 303.072 66.0927 303.088 65.89 303.12C65.698 303.141 65.5273 303.189 65.378 303.264C65.2287 303.339 65.1113 303.44 65.026 303.568C64.9407 303.696 64.898 303.856 64.898 304.048C64.898 304.421 65.0207 304.683 65.266 304.832C65.522 304.971 65.8687 305.04 66.306 305.04ZM66.114 298.064C66.818 298.064 67.4047 298.144 67.874 298.304C68.3433 298.464 68.7167 298.693 68.994 298.992C69.282 299.291 69.4847 299.653 69.602 300.08C69.7193 300.507 69.778 300.981 69.778 301.504V306.464C69.4367 306.539 68.962 306.624 68.354 306.72C67.746 306.827 67.01 306.88 66.146 306.88C65.602 306.88 65.106 306.832 64.658 306.736C64.2207 306.64 63.842 306.485 63.522 306.272C63.202 306.048 62.9567 305.76 62.786 305.408C62.6153 305.056 62.53 304.624 62.53 304.112C62.53 303.621 62.626 303.205 62.818 302.864C63.0207 302.523 63.2873 302.251 63.618 302.048C63.9487 301.845 64.3273 301.701 64.754 301.616C65.1807 301.52 65.6233 301.472 66.082 301.472C66.3913 301.472 66.6633 301.488 66.898 301.52C67.1433 301.541 67.3407 301.573 67.49 301.616V301.392C67.49 300.987 67.3673 300.661 67.122 300.416C66.8767 300.171 66.45 300.048 65.842 300.048C65.4367 300.048 65.0367 300.08 64.642 300.144C64.2473 300.197 63.906 300.277 63.618 300.384L63.314 298.464C63.4527 298.421 63.6233 298.379 63.826 298.336C64.0393 298.283 64.2687 298.24 64.514 298.208C64.7593 298.165 65.0153 298.133 65.282 298.112C65.5593 298.08 65.8367 298.064 66.114 298.064Z" fill="#5B5854"/>
<path d="M73.9658 302.224C73.9658 303.557 74.5044 304.224 75.5817 304.224C75.8271 304.224 76.0564 304.192 76.2697 304.128C76.4831 304.064 76.6644 303.989 76.8138 303.904V300.096C76.6964 300.075 76.5578 300.059 76.3978 300.048C76.2378 300.027 76.0511 300.016 75.8377 300.016C75.2084 300.016 74.7391 300.224 74.4297 300.64C74.1204 301.056 73.9658 301.584 73.9658 302.224ZM79.1978 305.648C79.1978 307.024 78.8458 308.043 78.1418 308.704C77.4484 309.376 76.3711 309.712 74.9098 309.712C74.3978 309.712 73.8857 309.664 73.3737 309.568C72.8617 309.483 72.3871 309.365 71.9497 309.216L72.3657 307.216C72.7391 307.365 73.1284 307.483 73.5337 307.568C73.9497 307.653 74.4191 307.696 74.9417 307.696C75.6244 307.696 76.1044 307.547 76.3818 307.248C76.6698 306.949 76.8138 306.565 76.8138 306.096V305.792C76.5578 305.909 76.2911 306 76.0138 306.064C75.7471 306.117 75.4538 306.144 75.1338 306.144C73.9711 306.144 73.0804 305.803 72.4618 305.12C71.8431 304.427 71.5337 303.461 71.5337 302.224C71.5337 301.605 71.6298 301.045 71.8218 300.544C72.0138 300.032 72.2911 299.595 72.6538 299.232C73.0271 298.869 73.4804 298.592 74.0137 298.4C74.5471 298.197 75.1498 298.096 75.8218 298.096C76.1098 298.096 76.4031 298.112 76.7018 298.144C77.0111 298.165 77.3151 298.197 77.6138 298.24C77.9124 298.283 78.1951 298.336 78.4618 298.4C78.7391 298.453 78.9844 298.512 79.1978 298.576V305.648Z" fill="#5B5854"/>
<rect x="130.5" y="264.5" width="118.788" height="55" rx="3.5" fill="#F4EFEA"/>
<rect x="130.5" y="264.5" width="118.788" height="55" rx="3.5" stroke="#E4DED7"/>
<path d="M180.558 275.616V276.96H177.07V286.704H175.518V276.96H172.03V275.616H180.558Z" fill="#5B5854"/>
<path d="M184.532 278.208C184.66 278.208 184.804 278.219 184.964 278.24C185.135 278.251 185.3 278.272 185.46 278.304C185.62 278.325 185.764 278.352 185.892 278.384C186.031 278.405 186.132 278.427 186.196 278.448L185.94 279.744C185.823 279.701 185.625 279.653 185.348 279.6C185.081 279.536 184.735 279.504 184.308 279.504C184.031 279.504 183.753 279.536 183.476 279.6C183.209 279.653 183.033 279.691 182.948 279.712V286.704H181.46V278.736C181.812 278.608 182.249 278.491 182.772 278.384C183.295 278.267 183.881 278.208 184.532 278.208ZM181.668 275.04L182.292 274.336L183.844 275.744L185.396 274.336L186.02 275.04L183.844 277.328L181.668 275.04Z" fill="#5B5854"/>
<path d="M189.12 286.704H187.632V278.384H189.12V286.704ZM190.32 275.232L188.064 277.424L187.312 276.752L189.36 274.288L190.32 275.232Z" fill="#5B5854"/>
<path d="M197.055 280.144C196.873 279.995 196.612 279.851 196.271 279.712C195.929 279.573 195.556 279.504 195.151 279.504C194.724 279.504 194.356 279.584 194.047 279.744C193.748 279.893 193.503 280.107 193.311 280.384C193.119 280.651 192.98 280.971 192.895 281.344C192.809 281.717 192.767 282.117 192.767 282.544C192.767 283.515 193.007 284.267 193.487 284.8C193.967 285.323 194.607 285.584 195.407 285.584C195.812 285.584 196.148 285.568 196.415 285.536C196.692 285.493 196.905 285.451 197.055 285.408V280.144ZM197.055 274.544L198.543 274.288V286.464C198.201 286.56 197.764 286.656 197.231 286.752C196.697 286.848 196.084 286.896 195.391 286.896C194.751 286.896 194.175 286.795 193.663 286.592C193.151 286.389 192.713 286.101 192.351 285.728C191.988 285.355 191.705 284.901 191.503 284.368C191.311 283.824 191.215 283.216 191.215 282.544C191.215 281.904 191.295 281.317 191.455 280.784C191.625 280.251 191.871 279.792 192.191 279.408C192.511 279.024 192.9 278.725 193.359 278.512C193.828 278.299 194.361 278.192 194.959 278.192C195.439 278.192 195.86 278.256 196.223 278.384C196.596 278.512 196.873 278.635 197.055 278.752V274.544Z" fill="#5B5854"/>
<path d="M203.917 285.632C204.269 285.632 204.578 285.627 204.845 285.616C205.122 285.595 205.351 285.563 205.533 285.52V283.04C205.426 282.987 205.25 282.944 205.005 282.912C204.77 282.869 204.482 282.848 204.141 282.848C203.917 282.848 203.677 282.864 203.421 282.896C203.175 282.928 202.946 282.997 202.733 283.104C202.53 283.2 202.359 283.339 202.221 283.52C202.082 283.691 202.013 283.92 202.013 284.208C202.013 284.741 202.183 285.115 202.525 285.328C202.866 285.531 203.33 285.632 203.917 285.632ZM203.789 278.176C204.386 278.176 204.887 278.256 205.293 278.416C205.709 278.565 206.039 278.784 206.285 279.072C206.541 279.349 206.722 279.685 206.829 280.08C206.935 280.464 206.989 280.891 206.989 281.36V286.56C206.861 286.581 206.679 286.613 206.445 286.656C206.221 286.688 205.965 286.72 205.677 286.752C205.389 286.784 205.074 286.811 204.733 286.832C204.402 286.864 204.071 286.88 203.741 286.88C203.271 286.88 202.839 286.832 202.445 286.736C202.05 286.64 201.709 286.491 201.421 286.288C201.133 286.075 200.909 285.797 200.749 285.456C200.589 285.115 200.509 284.704 200.509 284.224C200.509 283.765 200.599 283.371 200.781 283.04C200.973 282.709 201.229 282.443 201.549 282.24C201.869 282.037 202.242 281.888 202.669 281.792C203.095 281.696 203.543 281.648 204.013 281.648C204.162 281.648 204.317 281.659 204.477 281.68C204.637 281.691 204.786 281.712 204.925 281.744C205.074 281.765 205.202 281.787 205.309 281.808C205.415 281.829 205.49 281.845 205.533 281.856V281.44C205.533 281.195 205.506 280.955 205.453 280.72C205.399 280.475 205.303 280.261 205.165 280.08C205.026 279.888 204.834 279.739 204.589 279.632C204.354 279.515 204.045 279.456 203.661 279.456C203.17 279.456 202.738 279.493 202.365 279.568C202.002 279.632 201.73 279.701 201.549 279.776L201.373 278.544C201.565 278.459 201.885 278.379 202.333 278.304C202.781 278.219 203.266 278.176 203.789 278.176Z" fill="#5B5854"/>
<path d="M155.184 295.616V297.744H151.84V306.704H149.344V297.744H146V295.616H155.184Z" fill="#5B5854"/>
<path d="M158.641 305.04C158.876 305.04 159.1 305.035 159.313 305.024C159.526 305.013 159.697 304.997 159.825 304.976V303.168C159.729 303.147 159.585 303.125 159.393 303.104C159.201 303.083 159.025 303.072 158.865 303.072C158.641 303.072 158.428 303.088 158.225 303.12C158.033 303.141 157.862 303.189 157.713 303.264C157.564 303.339 157.446 303.44 157.361 303.568C157.276 303.696 157.233 303.856 157.233 304.048C157.233 304.421 157.356 304.683 157.601 304.832C157.857 304.971 158.204 305.04 158.641 305.04ZM158.449 298.064C159.153 298.064 159.74 298.144 160.209 298.304C160.678 298.464 161.052 298.693 161.329 298.992C161.617 299.291 161.82 299.653 161.937 300.08C162.054 300.507 162.113 300.981 162.113 301.504V306.464C161.772 306.539 161.297 306.624 160.689 306.72C160.081 306.827 159.345 306.88 158.481 306.88C157.937 306.88 157.441 306.832 156.993 306.736C156.556 306.64 156.177 306.485 155.857 306.272C155.537 306.048 155.292 305.76 155.121 305.408C154.95 305.056 154.865 304.624 154.865 304.112C154.865 303.621 154.961 303.205 155.153 302.864C155.356 302.523 155.622 302.251 155.953 302.048C156.284 301.845 156.662 301.701 157.089 301.616C157.516 301.52 157.958 301.472 158.417 301.472C158.726 301.472 158.998 301.488 159.233 301.52C159.478 301.541 159.676 301.573 159.825 301.616V301.392C159.825 300.987 159.702 300.661 159.457 300.416C159.212 300.171 158.785 300.048 158.177 300.048C157.772 300.048 157.372 300.08 156.977 300.144C156.582 300.197 156.241 300.277 155.953 300.384L155.649 298.464C155.788 298.421 155.958 298.379 156.161 298.336C156.374 298.283 156.604 298.24 156.849 298.208C157.094 298.165 157.35 298.133 157.617 298.112C157.894 298.08 158.172 298.064 158.449 298.064Z" fill="#5B5854"/>
<path d="M166.301 302.224C166.301 303.557 166.839 304.224 167.917 304.224C168.162 304.224 168.391 304.192 168.605 304.128C168.818 304.064 168.999 303.989 169.149 303.904V300.096C169.031 300.075 168.893 300.059 168.733 300.048C168.573 300.027 168.386 300.016 168.173 300.016C167.543 300.016 167.074 300.224 166.765 300.64C166.455 301.056 166.301 301.584 166.301 302.224ZM171.533 305.648C171.533 307.024 171.181 308.043 170.477 308.704C169.783 309.376 168.706 309.712 167.245 309.712C166.733 309.712 166.221 309.664 165.709 309.568C165.197 309.483 164.722 309.365 164.285 309.216L164.701 307.216C165.074 307.365 165.463 307.483 165.869 307.568C166.285 307.653 166.754 307.696 167.277 307.696C167.959 307.696 168.439 307.547 168.717 307.248C169.005 306.949 169.149 306.565 169.149 306.096V305.792C168.893 305.909 168.626 306 168.349 306.064C168.082 306.117 167.789 306.144 167.469 306.144C166.306 306.144 165.415 305.803 164.797 305.12C164.178 304.427 163.869 303.461 163.869 302.224C163.869 301.605 163.965 301.045 164.157 300.544C164.349 300.032 164.626 299.595 164.989 299.232C165.362 298.869 165.815 298.592 166.349 298.4C166.882 298.197 167.485 298.096 168.157 298.096C168.445 298.096 168.738 298.112 169.037 298.144C169.346 298.165 169.65 298.197 169.949 298.24C170.247 298.283 170.53 298.336 170.797 298.4C171.074 298.453 171.319 298.512 171.533 298.576V305.648Z" fill="#5B5854"/>
<path d="M176.953 304.8C177.305 304.8 177.593 304.773 177.817 304.72C178.051 304.656 178.238 304.576 178.377 304.48C178.515 304.373 178.611 304.251 178.665 304.112C178.718 303.973 178.745 303.819 178.745 303.648C178.745 303.285 178.574 302.987 178.233 302.752C177.891 302.507 177.305 302.245 176.473 301.968C176.11 301.84 175.747 301.696 175.385 301.536C175.022 301.365 174.697 301.157 174.409 300.912C174.121 300.656 173.886 300.352 173.705 300C173.523 299.637 173.433 299.2 173.433 298.688C173.433 298.176 173.529 297.717 173.721 297.312C173.913 296.896 174.185 296.544 174.537 296.256C174.889 295.968 175.315 295.749 175.817 295.6C176.318 295.44 176.883 295.36 177.513 295.36C178.259 295.36 178.905 295.44 179.449 295.6C179.993 295.76 180.441 295.936 180.793 296.128L180.073 298.096C179.763 297.936 179.417 297.797 179.033 297.68C178.659 297.552 178.206 297.488 177.673 297.488C177.075 297.488 176.643 297.573 176.377 297.744C176.121 297.904 175.993 298.155 175.993 298.496C175.993 298.699 176.041 298.869 176.137 299.008C176.233 299.147 176.366 299.275 176.537 299.392C176.718 299.499 176.921 299.6 177.145 299.696C177.379 299.781 177.635 299.872 177.913 299.968C178.489 300.181 178.99 300.395 179.417 300.608C179.843 300.811 180.195 301.051 180.473 301.328C180.761 301.605 180.974 301.931 181.113 302.304C181.251 302.677 181.321 303.131 181.321 303.664C181.321 304.699 180.958 305.504 180.233 306.08C179.507 306.645 178.414 306.928 176.953 306.928C176.462 306.928 176.019 306.896 175.625 306.832C175.23 306.779 174.878 306.709 174.569 306.624C174.27 306.539 174.009 306.448 173.785 306.352C173.571 306.256 173.39 306.165 173.241 306.08L173.945 304.096C174.275 304.277 174.681 304.443 175.161 304.592C175.651 304.731 176.249 304.8 176.953 304.8Z" fill="#5B5854"/>
<path d="M190.265 306.416C189.86 306.533 189.337 306.64 188.697 306.736C188.057 306.843 187.385 306.896 186.681 306.896C185.967 306.896 185.369 306.8 184.889 306.608C184.42 306.416 184.047 306.149 183.769 305.808C183.492 305.456 183.295 305.04 183.177 304.56C183.06 304.08 183.001 303.552 183.001 302.976V298.288H185.385V302.688C185.385 303.456 185.487 304.011 185.689 304.352C185.892 304.693 186.271 304.864 186.825 304.864C186.996 304.864 187.177 304.859 187.369 304.848C187.561 304.827 187.732 304.805 187.881 304.784V298.288H190.265V306.416Z" fill="#5B5854"/>
<path d="M197.895 302.56C197.895 301.824 197.73 301.237 197.399 300.8C197.068 300.352 196.578 300.128 195.927 300.128C195.714 300.128 195.516 300.139 195.335 300.16C195.154 300.171 195.004 300.187 194.887 300.208V304.512C195.036 304.608 195.228 304.688 195.463 304.752C195.708 304.816 195.954 304.848 196.199 304.848C197.33 304.848 197.895 304.085 197.895 302.56ZM200.327 302.496C200.327 303.147 200.247 303.739 200.087 304.272C199.927 304.805 199.692 305.264 199.383 305.648C199.074 306.032 198.69 306.331 198.231 306.544C197.772 306.757 197.244 306.864 196.647 306.864C196.316 306.864 196.007 306.832 195.719 306.768C195.431 306.704 195.154 306.613 194.887 306.496V309.664H192.503V298.576C192.716 298.512 192.962 298.453 193.239 298.4C193.516 298.336 193.804 298.283 194.103 298.24C194.412 298.197 194.722 298.165 195.031 298.144C195.351 298.112 195.655 298.096 195.943 298.096C196.636 298.096 197.255 298.203 197.799 298.416C198.343 298.619 198.802 298.912 199.175 299.296C199.548 299.669 199.831 300.128 200.023 300.672C200.226 301.216 200.327 301.824 200.327 302.496Z" fill="#5B5854"/>
<path d="M207.551 302.56C207.551 301.824 207.386 301.237 207.055 300.8C206.725 300.352 206.234 300.128 205.583 300.128C205.37 300.128 205.173 300.139 204.991 300.16C204.81 300.171 204.661 300.187 204.543 300.208V304.512C204.693 304.608 204.885 304.688 205.119 304.752C205.365 304.816 205.61 304.848 205.855 304.848C206.986 304.848 207.551 304.085 207.551 302.56ZM209.983 302.496C209.983 303.147 209.903 303.739 209.743 304.272C209.583 304.805 209.349 305.264 209.039 305.648C208.73 306.032 208.346 306.331 207.887 306.544C207.429 306.757 206.901 306.864 206.303 306.864C205.973 306.864 205.663 306.832 205.375 306.768C205.087 306.704 204.81 306.613 204.543 306.496V309.664H202.159V298.576C202.373 298.512 202.618 298.453 202.895 298.4C203.173 298.336 203.461 298.283 203.759 298.24C204.069 298.197 204.378 298.165 204.687 298.144C205.007 298.112 205.311 298.096 205.599 298.096C206.293 298.096 206.911 298.203 207.455 298.416C207.999 298.619 208.458 298.912 208.831 299.296C209.205 299.669 209.487 300.128 209.679 300.672C209.882 301.216 209.983 301.824 209.983 302.496Z" fill="#5B5854"/>
<path d="M219.688 302.48C219.688 303.141 219.592 303.749 219.4 304.304C219.208 304.848 218.93 305.317 218.568 305.712C218.205 306.096 217.768 306.395 217.256 306.608C216.754 306.821 216.189 306.928 215.56 306.928C214.941 306.928 214.376 306.821 213.864 306.608C213.362 306.395 212.93 306.096 212.568 305.712C212.205 305.317 211.922 304.848 211.72 304.304C211.517 303.749 211.416 303.141 211.416 302.48C211.416 301.819 211.517 301.216 211.72 300.672C211.933 300.128 212.221 299.664 212.584 299.28C212.957 298.896 213.394 298.597 213.896 298.384C214.408 298.171 214.962 298.064 215.56 298.064C216.168 298.064 216.722 298.171 217.224 298.384C217.736 298.597 218.173 298.896 218.536 299.28C218.898 299.664 219.181 300.128 219.384 300.672C219.586 301.216 219.688 301.819 219.688 302.48ZM217.256 302.48C217.256 301.744 217.106 301.168 216.808 300.752C216.52 300.325 216.104 300.112 215.56 300.112C215.016 300.112 214.594 300.325 214.296 300.752C213.997 301.168 213.848 301.744 213.848 302.48C213.848 303.216 213.997 303.803 214.296 304.24C214.594 304.667 215.016 304.88 215.56 304.88C216.104 304.88 216.52 304.667 216.808 304.24C217.106 303.803 217.256 303.216 217.256 302.48Z" fill="#5B5854"/>
<path d="M226.606 300.4C226.393 300.347 226.142 300.293 225.854 300.24C225.566 300.176 225.257 300.144 224.926 300.144C224.777 300.144 224.596 300.16 224.382 300.192C224.18 300.213 224.025 300.24 223.918 300.272V306.704H221.534V298.736C221.961 298.587 222.462 298.448 223.038 298.32C223.625 298.181 224.276 298.112 224.99 298.112C225.118 298.112 225.273 298.123 225.454 298.144C225.636 298.155 225.817 298.176 225.998 298.208C226.18 298.229 226.361 298.261 226.542 298.304C226.724 298.336 226.878 298.379 227.006 298.432L226.606 300.4Z" fill="#5B5854"/>
<path d="M228.204 296.192L230.588 295.808V298.288H233.452V300.272H230.588V303.232C230.588 303.733 230.674 304.133 230.844 304.432C231.026 304.731 231.383 304.88 231.916 304.88C232.172 304.88 232.434 304.859 232.7 304.816C232.978 304.763 233.228 304.693 233.452 304.608L233.788 306.464C233.5 306.581 233.18 306.683 232.828 306.768C232.476 306.853 232.044 306.896 231.532 306.896C230.882 306.896 230.343 306.811 229.916 306.64C229.49 306.459 229.148 306.213 228.892 305.904C228.636 305.584 228.455 305.2 228.348 304.752C228.252 304.304 228.204 303.808 228.204 303.264V296.192Z" fill="#5B5854"/>
<rect x="0.5" y="352.5" width="250" height="55" rx="3.5" fill="#F4EFEA"/>
<rect x="0.5" y="352.5" width="250" height="55" rx="3.5" stroke="#E4DED7"/>
<path d="M115.684 363.616V364.96H112.196V374.704H110.644V364.96H107.156V363.616H115.684Z" fill="#5B5854"/>
<path d="M119.658 366.208C119.786 366.208 119.93 366.219 120.09 366.24C120.26 366.251 120.426 366.272 120.586 366.304C120.746 366.325 120.89 366.352 121.018 366.384C121.156 366.405 121.258 366.427 121.322 366.448L121.066 367.744C120.948 367.701 120.751 367.653 120.474 367.6C120.207 367.536 119.86 367.504 119.434 367.504C119.156 367.504 118.879 367.536 118.602 367.6C118.335 367.653 118.159 367.691 118.074 367.712V374.704H116.586V366.736C116.938 366.608 117.375 366.491 117.898 366.384C118.42 366.267 119.007 366.208 119.658 366.208ZM116.794 363.04L117.418 362.336L118.97 363.744L120.522 362.336L121.146 363.04L118.97 365.328L116.794 363.04Z" fill="#5B5854"/>
<path d="M124.246 374.704H122.758V366.384H124.246V374.704ZM125.446 363.232L123.19 365.424L122.438 364.752L124.486 362.288L125.446 363.232Z" fill="#5B5854"/>
<path d="M132.181 368.144C131.999 367.995 131.738 367.851 131.397 367.712C131.055 367.573 130.682 367.504 130.277 367.504C129.85 367.504 129.482 367.584 129.173 367.744C128.874 367.893 128.629 368.107 128.437 368.384C128.245 368.651 128.106 368.971 128.021 369.344C127.935 369.717 127.893 370.117 127.893 370.544C127.893 371.515 128.133 372.267 128.613 372.8C129.093 373.323 129.733 373.584 130.533 373.584C130.938 373.584 131.274 373.568 131.541 373.536C131.818 373.493 132.031 373.451 132.181 373.408V368.144ZM132.181 362.544L133.669 362.288V374.464C133.327 374.56 132.89 374.656 132.357 374.752C131.823 374.848 131.21 374.896 130.517 374.896C129.877 374.896 129.301 374.795 128.789 374.592C128.277 374.389 127.839 374.101 127.477 373.728C127.114 373.355 126.831 372.901 126.629 372.368C126.437 371.824 126.341 371.216 126.341 370.544C126.341 369.904 126.421 369.317 126.581 368.784C126.751 368.251 126.997 367.792 127.317 367.408C127.637 367.024 128.026 366.725 128.485 366.512C128.954 366.299 129.487 366.192 130.085 366.192C130.565 366.192 130.986 366.256 131.349 366.384C131.722 366.512 131.999 366.635 132.181 366.752V362.544Z" fill="#5B5854"/>
<path d="M139.042 373.632C139.394 373.632 139.704 373.627 139.97 373.616C140.248 373.595 140.477 373.563 140.658 373.52V371.04C140.552 370.987 140.376 370.944 140.13 370.912C139.896 370.869 139.608 370.848 139.266 370.848C139.042 370.848 138.802 370.864 138.546 370.896C138.301 370.928 138.072 370.997 137.858 371.104C137.656 371.2 137.485 371.339 137.346 371.52C137.208 371.691 137.138 371.92 137.138 372.208C137.138 372.741 137.309 373.115 137.65 373.328C137.992 373.531 138.456 373.632 139.042 373.632ZM138.914 366.176C139.512 366.176 140.013 366.256 140.418 366.416C140.834 366.565 141.165 366.784 141.41 367.072C141.666 367.349 141.848 367.685 141.954 368.08C142.061 368.464 142.114 368.891 142.114 369.36V374.56C141.986 374.581 141.805 374.613 141.57 374.656C141.346 374.688 141.09 374.72 140.802 374.752C140.514 374.784 140.2 374.811 139.858 374.832C139.528 374.864 139.197 374.88 138.866 374.88C138.397 374.88 137.965 374.832 137.57 374.736C137.176 374.64 136.834 374.491 136.546 374.288C136.258 374.075 136.034 373.797 135.874 373.456C135.714 373.115 135.634 372.704 135.634 372.224C135.634 371.765 135.725 371.371 135.906 371.04C136.098 370.709 136.354 370.443 136.674 370.24C136.994 370.037 137.368 369.888 137.794 369.792C138.221 369.696 138.669 369.648 139.138 369.648C139.288 369.648 139.442 369.659 139.602 369.68C139.762 369.691 139.912 369.712 140.05 369.744C140.2 369.765 140.328 369.787 140.434 369.808C140.541 369.829 140.616 369.845 140.658 369.856V369.44C140.658 369.195 140.632 368.955 140.578 368.72C140.525 368.475 140.429 368.261 140.29 368.08C140.152 367.888 139.96 367.739 139.714 367.632C139.48 367.515 139.17 367.456 138.786 367.456C138.296 367.456 137.864 367.493 137.49 367.568C137.128 367.632 136.856 367.701 136.674 367.776L136.498 366.544C136.69 366.459 137.01 366.379 137.458 366.304C137.906 366.219 138.392 366.176 138.914 366.176Z" fill="#5B5854"/>
<path d="M66.4693 394.848C65.8613 394.848 65.2533 394.827 64.6453 394.784C64.048 394.752 63.424 394.667 62.7733 394.528V383.776C63.2853 383.68 63.8453 383.611 64.4533 383.568C65.0613 383.515 65.6266 383.488 66.1493 383.488C66.8533 383.488 67.4986 383.541 68.0853 383.648C68.6826 383.744 69.1946 383.915 69.6213 384.16C70.048 384.405 70.3786 384.731 70.6133 385.136C70.8586 385.531 70.9813 386.021 70.9813 386.608C70.9813 387.493 70.5546 388.192 69.7013 388.704C70.4053 388.971 70.8853 389.333 71.1413 389.792C71.3973 390.251 71.5253 390.768 71.5253 391.344C71.5253 392.507 71.0986 393.381 70.2453 393.968C69.4026 394.555 68.144 394.848 66.4693 394.848ZM65.2053 389.872V392.736C65.3866 392.757 65.584 392.773 65.7973 392.784C66.0106 392.795 66.2453 392.8 66.5013 392.8C67.248 392.8 67.8506 392.693 68.3093 392.48C68.768 392.267 68.9973 391.872 68.9973 391.296C68.9973 390.784 68.8053 390.421 68.4213 390.208C68.0373 389.984 67.488 389.872 66.7733 389.872H65.2053ZM65.2053 387.968H66.4213C67.1893 387.968 67.7386 387.872 68.0693 387.68C68.4 387.477 68.5653 387.157 68.5653 386.72C68.5653 386.272 68.3946 385.957 68.0533 385.776C67.712 385.595 67.2106 385.504 66.5493 385.504C66.336 385.504 66.1066 385.509 65.8613 385.52C65.616 385.52 65.3973 385.531 65.2053 385.552V387.968Z" fill="#5B5854"/>
<path d="M81.2353 390.48C81.2353 391.141 81.1393 391.749 80.9473 392.304C80.7553 392.848 80.478 393.317 80.1153 393.712C79.7526 394.096 79.3153 394.395 78.8033 394.608C78.302 394.821 77.7366 394.928 77.1073 394.928C76.4886 394.928 75.9233 394.821 75.4113 394.608C74.91 394.395 74.478 394.096 74.1153 393.712C73.7526 393.317 73.47 392.848 73.2673 392.304C73.0646 391.749 72.9633 391.141 72.9633 390.48C72.9633 389.819 73.0646 389.216 73.2673 388.672C73.4806 388.128 73.7686 387.664 74.1313 387.28C74.5046 386.896 74.942 386.597 75.4433 386.384C75.9553 386.171 76.51 386.064 77.1073 386.064C77.7153 386.064 78.27 386.171 78.7713 386.384C79.2833 386.597 79.7206 386.896 80.0833 387.28C80.446 387.664 80.7286 388.128 80.9313 388.672C81.134 389.216 81.2353 389.819 81.2353 390.48ZM78.8033 390.48C78.8033 389.744 78.654 389.168 78.3553 388.752C78.0673 388.325 77.6513 388.112 77.1073 388.112C76.5633 388.112 76.142 388.325 75.8433 388.752C75.5446 389.168 75.3953 389.744 75.3953 390.48C75.3953 391.216 75.5446 391.803 75.8433 392.24C76.142 392.667 76.5633 392.88 77.1073 392.88C77.6513 392.88 78.0673 392.667 78.3553 392.24C78.654 391.803 78.8033 391.216 78.8033 390.48Z" fill="#5B5854"/>
<path d="M85.1141 390.432C85.1141 391.168 85.2794 391.76 85.6101 392.208C85.9407 392.656 86.4314 392.88 87.0821 392.88C87.2954 392.88 87.4927 392.875 87.6741 392.864C87.8554 392.843 88.0047 392.821 88.1221 392.8V388.464C87.9727 388.368 87.7754 388.288 87.5301 388.224C87.2954 388.16 87.0554 388.128 86.8101 388.128C85.6794 388.128 85.1141 388.896 85.1141 390.432ZM90.5061 394.432C90.2927 394.496 90.0474 394.56 89.7701 394.624C89.4927 394.677 89.1994 394.725 88.8901 394.768C88.5914 394.811 88.2821 394.843 87.9621 394.864C87.6527 394.896 87.3541 394.912 87.0661 394.912C86.3727 394.912 85.7541 394.811 85.2101 394.608C84.6661 394.405 84.2074 394.117 83.8341 393.744C83.4607 393.36 83.1727 392.901 82.9701 392.368C82.7781 391.824 82.6821 391.216 82.6821 390.544C82.6821 389.861 82.7674 389.248 82.9381 388.704C83.1087 388.149 83.3541 387.68 83.6741 387.296C83.9941 386.912 84.3834 386.619 84.8421 386.416C85.3114 386.213 85.8447 386.112 86.4421 386.112C86.7727 386.112 87.0661 386.144 87.3221 386.208C87.5887 386.272 87.8554 386.363 88.1221 386.48V382.672L90.5061 382.288V394.432Z" fill="#5B5854"/>
<path d="M99.9603 386.288C99.4803 387.909 98.979 389.429 98.4563 390.848C97.9336 392.267 97.363 393.643 96.7443 394.976C96.5203 395.456 96.2963 395.861 96.0723 396.192C95.8483 396.533 95.603 396.811 95.3363 397.024C95.0696 397.248 94.7656 397.408 94.4243 397.504C94.0936 397.611 93.7043 397.664 93.2563 397.664C92.883 397.664 92.5363 397.627 92.2163 397.552C91.907 397.488 91.651 397.413 91.4483 397.328L91.8643 395.424C92.1096 395.509 92.3283 395.568 92.5203 395.6C92.7123 395.632 92.915 395.648 93.1283 395.648C93.555 395.648 93.8803 395.531 94.1043 395.296C94.339 395.072 94.5363 394.757 94.6963 394.352C94.1523 393.285 93.6083 392.091 93.0643 390.768C92.5203 389.435 92.0083 387.941 91.5283 386.288H94.0563C94.163 386.704 94.2856 387.157 94.4243 387.648C94.5736 388.128 94.7283 388.619 94.8883 389.12C95.0483 389.611 95.2083 390.091 95.3683 390.56C95.539 391.029 95.699 391.456 95.8483 391.84C95.987 391.456 96.131 391.029 96.2803 390.56C96.4296 390.091 96.5736 389.611 96.7123 389.12C96.8616 388.619 97.0003 388.128 97.1283 387.648C97.267 387.157 97.3896 386.704 97.4963 386.288H99.9603Z" fill="#5B5854"/>
<path d="M109.622 383.616V385.744H106.278V394.704H103.782V385.744H100.438V383.616H109.622Z" fill="#5B5854"/>
<path d="M113.079 393.04C113.314 393.04 113.538 393.035 113.751 393.024C113.965 393.013 114.135 392.997 114.263 392.976V391.168C114.167 391.147 114.023 391.125 113.831 391.104C113.639 391.083 113.463 391.072 113.303 391.072C113.079 391.072 112.866 391.088 112.663 391.12C112.471 391.141 112.301 391.189 112.151 391.264C112.002 391.339 111.885 391.44 111.799 391.568C111.714 391.696 111.671 391.856 111.671 392.048C111.671 392.421 111.794 392.683 112.039 392.832C112.295 392.971 112.642 393.04 113.079 393.04ZM112.887 386.064C113.591 386.064 114.178 386.144 114.647 386.304C115.117 386.464 115.49 386.693 115.767 386.992C116.055 387.291 116.258 387.653 116.375 388.08C116.493 388.507 116.551 388.981 116.551 389.504V394.464C116.21 394.539 115.735 394.624 115.127 394.72C114.519 394.827 113.783 394.88 112.919 394.88C112.375 394.88 111.879 394.832 111.431 394.736C110.994 394.64 110.615 394.485 110.295 394.272C109.975 394.048 109.73 393.76 109.559 393.408C109.389 393.056 109.303 392.624 109.303 392.112C109.303 391.621 109.399 391.205 109.591 390.864C109.794 390.523 110.061 390.251 110.391 390.048C110.722 389.845 111.101 389.701 111.527 389.616C111.954 389.52 112.397 389.472 112.855 389.472C113.165 389.472 113.437 389.488 113.671 389.52C113.917 389.541 114.114 389.573 114.263 389.616V389.392C114.263 388.987 114.141 388.661 113.895 388.416C113.65 388.171 113.223 388.048 112.615 388.048C112.21 388.048 111.81 388.08 111.415 388.144C111.021 388.197 110.679 388.277 110.391 388.384L110.087 386.464C110.226 386.421 110.397 386.379 110.599 386.336C110.813 386.283 111.042 386.24 111.287 386.208C111.533 386.165 111.789 386.133 112.055 386.112C112.333 386.08 112.61 386.064 112.887 386.064Z" fill="#5B5854"/>
<path d="M120.739 390.224C120.739 391.557 121.278 392.224 122.355 392.224C122.6 392.224 122.83 392.192 123.043 392.128C123.256 392.064 123.438 391.989 123.587 391.904V388.096C123.47 388.075 123.331 388.059 123.171 388.048C123.011 388.027 122.824 388.016 122.611 388.016C121.982 388.016 121.512 388.224 121.203 388.64C120.894 389.056 120.739 389.584 120.739 390.224ZM125.971 393.648C125.971 395.024 125.619 396.043 124.915 396.704C124.222 397.376 123.144 397.712 121.683 397.712C121.171 397.712 120.659 397.664 120.147 397.568C119.635 397.483 119.16 397.365 118.723 397.216L119.139 395.216C119.512 395.365 119.902 395.483 120.307 395.568C120.723 395.653 121.192 395.696 121.715 395.696C122.398 395.696 122.878 395.547 123.155 395.248C123.443 394.949 123.587 394.565 123.587 394.096V393.792C123.331 393.909 123.064 394 122.787 394.064C122.52 394.117 122.227 394.144 121.907 394.144C120.744 394.144 119.854 393.803 119.235 393.12C118.616 392.427 118.307 391.461 118.307 390.224C118.307 389.605 118.403 389.045 118.595 388.544C118.787 388.032 119.064 387.595 119.427 387.232C119.8 386.869 120.254 386.592 120.787 386.4C121.32 386.197 121.923 386.096 122.595 386.096C122.883 386.096 123.176 386.112 123.475 386.144C123.784 386.165 124.088 386.197 124.387 386.24C124.686 386.283 124.968 386.336 125.235 386.4C125.512 386.453 125.758 386.512 125.971 386.576V393.648Z" fill="#5B5854"/>
<path d="M131.391 392.8C131.743 392.8 132.031 392.773 132.255 392.72C132.49 392.656 132.676 392.576 132.815 392.48C132.954 392.373 133.05 392.251 133.103 392.112C133.156 391.973 133.183 391.819 133.183 391.648C133.183 391.285 133.012 390.987 132.671 390.752C132.33 390.507 131.743 390.245 130.911 389.968C130.548 389.84 130.186 389.696 129.823 389.536C129.46 389.365 129.135 389.157 128.847 388.912C128.559 388.656 128.324 388.352 128.143 388C127.962 387.637 127.871 387.2 127.871 386.688C127.871 386.176 127.967 385.717 128.159 385.312C128.351 384.896 128.623 384.544 128.975 384.256C129.327 383.968 129.754 383.749 130.255 383.6C130.756 383.44 131.322 383.36 131.951 383.36C132.698 383.36 133.343 383.44 133.887 383.6C134.431 383.76 134.879 383.936 135.231 384.128L134.511 386.096C134.202 385.936 133.855 385.797 133.471 385.68C133.098 385.552 132.644 385.488 132.111 385.488C131.514 385.488 131.082 385.573 130.815 385.744C130.559 385.904 130.431 386.155 130.431 386.496C130.431 386.699 130.479 386.869 130.575 387.008C130.671 387.147 130.804 387.275 130.975 387.392C131.156 387.499 131.359 387.6 131.583 387.696C131.818 387.781 132.074 387.872 132.351 387.968C132.927 388.181 133.428 388.395 133.855 388.608C134.282 388.811 134.634 389.051 134.911 389.328C135.199 389.605 135.412 389.931 135.551 390.304C135.69 390.677 135.759 391.131 135.759 391.664C135.759 392.699 135.396 393.504 134.671 394.08C133.946 394.645 132.852 394.928 131.391 394.928C130.9 394.928 130.458 394.896 130.063 394.832C129.668 394.779 129.316 394.709 129.007 394.624C128.708 394.539 128.447 394.448 128.223 394.352C128.01 394.256 127.828 394.165 127.679 394.08L128.383 392.096C128.714 392.277 129.119 392.443 129.599 392.592C130.09 392.731 130.687 392.8 131.391 392.8Z" fill="#5B5854"/>
<path d="M144.704 394.416C144.298 394.533 143.776 394.64 143.136 394.736C142.496 394.843 141.824 394.896 141.12 394.896C140.405 394.896 139.808 394.8 139.328 394.608C138.858 394.416 138.485 394.149 138.208 393.808C137.93 393.456 137.733 393.04 137.616 392.56C137.498 392.08 137.44 391.552 137.44 390.976V386.288H139.824V390.688C139.824 391.456 139.925 392.011 140.128 392.352C140.33 392.693 140.709 392.864 141.264 392.864C141.434 392.864 141.616 392.859 141.808 392.848C142 392.827 142.17 392.805 142.32 392.784V386.288H144.704V394.416Z" fill="#5B5854"/>
<path d="M152.333 390.56C152.333 389.824 152.168 389.237 151.837 388.8C151.507 388.352 151.016 388.128 150.365 388.128C150.152 388.128 149.955 388.139 149.773 388.16C149.592 388.171 149.443 388.187 149.325 388.208V392.512C149.475 392.608 149.667 392.688 149.901 392.752C150.147 392.816 150.392 392.848 150.637 392.848C151.768 392.848 152.333 392.085 152.333 390.56ZM154.765 390.496C154.765 391.147 154.685 391.739 154.525 392.272C154.365 392.805 154.131 393.264 153.821 393.648C153.512 394.032 153.128 394.331 152.669 394.544C152.211 394.757 151.683 394.864 151.085 394.864C150.755 394.864 150.445 394.832 150.157 394.768C149.869 394.704 149.592 394.613 149.325 394.496V397.664H146.941V386.576C147.155 386.512 147.4 386.453 147.677 386.4C147.955 386.336 148.243 386.283 148.541 386.24C148.851 386.197 149.16 386.165 149.469 386.144C149.789 386.112 150.093 386.096 150.381 386.096C151.075 386.096 151.693 386.203 152.237 386.416C152.781 386.619 153.24 386.912 153.613 387.296C153.987 387.669 154.269 388.128 154.461 388.672C154.664 389.216 154.765 389.824 154.765 390.496Z" fill="#5B5854"/>
<path d="M161.99 390.56C161.99 389.824 161.824 389.237 161.494 388.8C161.163 388.352 160.672 388.128 160.022 388.128C159.808 388.128 159.611 388.139 159.43 388.16C159.248 388.171 159.099 388.187 158.982 388.208V392.512C159.131 392.608 159.323 392.688 159.558 392.752C159.803 392.816 160.048 392.848 160.294 392.848C161.424 392.848 161.99 392.085 161.99 390.56ZM164.422 390.496C164.422 391.147 164.342 391.739 164.182 392.272C164.022 392.805 163.787 393.264 163.478 393.648C163.168 394.032 162.784 394.331 162.326 394.544C161.867 394.757 161.339 394.864 160.742 394.864C160.411 394.864 160.102 394.832 159.814 394.768C159.526 394.704 159.248 394.613 158.982 394.496V397.664H156.598V386.576C156.811 386.512 157.056 386.453 157.334 386.4C157.611 386.336 157.899 386.283 158.198 386.24C158.507 386.197 158.816 386.165 159.126 386.144C159.446 386.112 159.75 386.096 160.038 386.096C160.731 386.096 161.35 386.203 161.894 386.416C162.438 386.619 162.896 386.912 163.27 387.296C163.643 387.669 163.926 388.128 164.118 388.672C164.32 389.216 164.422 389.824 164.422 390.496Z" fill="#5B5854"/>
<path d="M174.126 390.48C174.126 391.141 174.03 391.749 173.838 392.304C173.646 392.848 173.369 393.317 173.006 393.712C172.643 394.096 172.206 394.395 171.694 394.608C171.193 394.821 170.627 394.928 169.998 394.928C169.379 394.928 168.814 394.821 168.302 394.608C167.801 394.395 167.369 394.096 167.006 393.712C166.643 393.317 166.361 392.848 166.158 392.304C165.955 391.749 165.854 391.141 165.854 390.48C165.854 389.819 165.955 389.216 166.158 388.672C166.371 388.128 166.659 387.664 167.022 387.28C167.395 386.896 167.833 386.597 168.334 386.384C168.846 386.171 169.401 386.064 169.998 386.064C170.606 386.064 171.161 386.171 171.662 386.384C172.174 386.597 172.611 386.896 172.974 387.28C173.337 387.664 173.619 388.128 173.822 388.672C174.025 389.216 174.126 389.819 174.126 390.48ZM171.694 390.48C171.694 389.744 171.545 389.168 171.246 388.752C170.958 388.325 170.542 388.112 169.998 388.112C169.454 388.112 169.033 388.325 168.734 388.752C168.435 389.168 168.286 389.744 168.286 390.48C168.286 391.216 168.435 391.803 168.734 392.24C169.033 392.667 169.454 392.88 169.998 392.88C170.542 392.88 170.958 392.667 171.246 392.24C171.545 391.803 171.694 391.216 171.694 390.48Z" fill="#5B5854"/>
<path d="M181.045 388.4C180.831 388.347 180.581 388.293 180.293 388.24C180.005 388.176 179.695 388.144 179.365 388.144C179.215 388.144 179.034 388.16 178.821 388.192C178.618 388.213 178.463 388.24 178.357 388.272V394.704H175.973V386.736C176.399 386.587 176.901 386.448 177.477 386.32C178.063 386.181 178.714 386.112 179.429 386.112C179.557 386.112 179.711 386.123 179.893 386.144C180.074 386.155 180.255 386.176 180.437 386.208C180.618 386.229 180.799 386.261 180.981 386.304C181.162 386.336 181.317 386.379 181.445 386.432L181.045 388.4Z" fill="#5B5854"/>
<path d="M182.643 384.192L185.027 383.808V386.288H187.891V388.272H185.027V391.232C185.027 391.733 185.112 392.133 185.283 392.432C185.464 392.731 185.821 392.88 186.355 392.88C186.611 392.88 186.872 392.859 187.139 392.816C187.416 392.763 187.667 392.693 187.891 392.608L188.227 394.464C187.939 394.581 187.619 394.683 187.267 394.768C186.915 394.853 186.483 394.896 185.971 394.896C185.32 394.896 184.781 394.811 184.355 394.64C183.928 394.459 183.587 394.213 183.331 393.904C183.075 393.584 182.893 393.2 182.787 392.752C182.691 392.304 182.643 391.808 182.643 391.264V384.192Z" fill="#5B5854"/>
</g>
<defs>
<clipPath id="clip0_404_26">
<rect width="251" height="408" fill="white"/>
</clipPath>
</defs>
</svg>
