<svg width="381" height="104" viewBox="0 0 381 104" fill="none" xmlns="http://www.w3.org/2000/svg">
<rect width="162" height="36" rx="4" fill="#F4EFEA"/>
<path d="M26.1928 11.528C27.7501 11.528 28.9448 11.8267 29.7768 12.424C30.6194 13.0107 31.0408 13.8907 31.0408 15.064C31.0408 15.704 30.9234 16.2533 30.6888 16.712C30.4648 17.16 30.1341 17.528 29.6968 17.816C29.2701 18.0933 28.7474 18.296 28.1288 18.424C27.5101 18.552 26.8114 18.616 26.0328 18.616H24.8008V22.728H23.2488V11.8C23.6861 11.6933 24.1714 11.624 24.7048 11.592C25.2488 11.5493 25.7448 11.528 26.1928 11.528ZM26.3208 12.888C25.6594 12.888 25.1528 12.904 24.8008 12.936V17.288H25.9688C26.5021 17.288 26.9821 17.256 27.4088 17.192C27.8354 17.1173 28.1928 17 28.4808 16.84C28.7794 16.6693 29.0088 16.44 29.1688 16.152C29.3288 15.864 29.4088 15.496 29.4088 15.048C29.4088 14.6213 29.3234 14.2693 29.1528 13.992C28.9928 13.7147 28.7688 13.496 28.4808 13.336C28.2034 13.1653 27.8781 13.048 27.5048 12.984C27.1314 12.92 26.7368 12.888 26.3208 12.888Z" fill="#5B5854"/>
<path d="M35.9592 14.232C36.0872 14.232 36.2312 14.2427 36.3912 14.264C36.5618 14.2747 36.7272 14.296 36.8872 14.328C37.0472 14.3493 37.1912 14.376 37.3192 14.408C37.4578 14.4293 37.5592 14.4507 37.6232 14.472L37.3672 15.768C37.2498 15.7253 37.0525 15.6773 36.7752 15.624C36.5085 15.56 36.1618 15.528 35.7352 15.528C35.4578 15.528 35.1805 15.56 34.9032 15.624C34.6365 15.6773 34.4605 15.7147 34.3752 15.736V22.728H32.8872V14.76C33.2392 14.632 33.6765 14.5147 34.1992 14.408C34.7218 14.2907 35.3085 14.232 35.9592 14.232ZM33.0952 11.064L33.7192 10.36L35.2712 11.768L36.8232 10.36L37.4472 11.064L35.2712 13.352L33.0952 11.064Z" fill="#5B5854"/>
<path d="M40.547 22.728H39.059V14.408H40.547V22.728ZM41.747 11.256L39.491 13.448L38.739 12.776L40.787 10.312L41.747 11.256Z" fill="#5B5854"/>
<path d="M46.7219 22.92C46.0499 22.92 45.4579 22.8133 44.9459 22.6C44.4446 22.3867 44.0179 22.088 43.6659 21.704C43.3246 21.32 43.0686 20.8667 42.8979 20.344C42.7272 19.8107 42.6419 19.224 42.6419 18.584C42.6419 17.944 42.7326 17.3573 42.9139 16.824C43.1059 16.2907 43.3726 15.832 43.7139 15.448C44.0552 15.0533 44.4712 14.7493 44.9619 14.536C45.4632 14.312 46.0179 14.2 46.6259 14.2C46.9992 14.2 47.3726 14.232 47.7459 14.296C48.1192 14.36 48.4766 14.4613 48.8179 14.6L48.4819 15.864C48.2579 15.7573 47.9966 15.672 47.6979 15.608C47.4099 15.544 47.1006 15.512 46.7699 15.512C45.9379 15.512 45.2979 15.7733 44.8499 16.296C44.4126 16.8187 44.1939 17.5813 44.1939 18.584C44.1939 19.032 44.2419 19.4427 44.3379 19.816C44.4446 20.1893 44.6046 20.5093 44.8179 20.776C45.0419 21.0427 45.3246 21.2507 45.6659 21.4C46.0072 21.5387 46.4232 21.608 46.9139 21.608C47.3086 21.608 47.6659 21.5707 47.9859 21.496C48.3059 21.4213 48.5566 21.3413 48.7379 21.256L48.9459 22.504C48.8606 22.5573 48.7379 22.6107 48.5779 22.664C48.4179 22.7067 48.2366 22.744 48.0339 22.776C47.8312 22.8187 47.6126 22.8507 47.3779 22.872C47.1539 22.904 46.9352 22.92 46.7219 22.92Z" fill="#5B5854"/>
<path d="M50.5434 22.728V10.568L52.0314 10.312V14.568C52.3087 14.4613 52.6021 14.3813 52.9114 14.328C53.2314 14.264 53.5461 14.232 53.8554 14.232C54.5167 14.232 55.0661 14.328 55.5034 14.52C55.9407 14.7013 56.2874 14.9627 56.5434 15.304C56.8101 15.6347 56.9967 16.0347 57.1034 16.504C57.2101 16.9733 57.2634 17.4907 57.2634 18.056V22.728H55.7754V18.376C55.7754 17.864 55.7381 17.4267 55.6634 17.064C55.5994 16.7013 55.4874 16.408 55.3274 16.184C55.1674 15.96 54.9541 15.8 54.6874 15.704C54.4207 15.5973 54.0901 15.544 53.6954 15.544C53.5354 15.544 53.3701 15.5547 53.1994 15.576C53.0287 15.5973 52.8634 15.624 52.7034 15.656C52.5541 15.6773 52.4154 15.704 52.2874 15.736C52.1701 15.768 52.0847 15.7947 52.0314 15.816V22.728H50.5434Z" fill="#5B5854"/>
<path d="M67.028 18.568C67.028 19.2293 66.932 19.8267 66.74 20.36C66.548 20.8933 66.276 21.352 65.924 21.736C65.5827 22.12 65.172 22.4187 64.692 22.632C64.212 22.8347 63.6894 22.936 63.124 22.936C62.5587 22.936 62.036 22.8347 61.556 22.632C61.076 22.4187 60.66 22.12 60.308 21.736C59.9667 21.352 59.7 20.8933 59.508 20.36C59.316 19.8267 59.22 19.2293 59.22 18.568C59.22 17.9173 59.316 17.3253 59.508 16.792C59.7 16.248 59.9667 15.784 60.308 15.4C60.66 15.016 61.076 14.7227 61.556 14.52C62.036 14.3067 62.5587 14.2 63.124 14.2C63.6894 14.2 64.212 14.3067 64.692 14.52C65.172 14.7227 65.5827 15.016 65.924 15.4C66.276 15.784 66.548 16.248 66.74 16.792C66.932 17.3253 67.028 17.9173 67.028 18.568ZM65.476 18.568C65.476 17.6293 65.2627 16.888 64.836 16.344C64.42 15.7893 63.8494 15.512 63.124 15.512C62.3987 15.512 61.8227 15.7893 61.396 16.344C60.98 16.888 60.772 17.6293 60.772 18.568C60.772 19.5067 60.98 20.2533 61.396 20.808C61.8227 21.352 62.3987 21.624 63.124 21.624C63.8494 21.624 64.42 21.352 64.836 20.808C65.2627 20.2533 65.476 19.5067 65.476 18.568Z" fill="#5B5854"/>
<path d="M74.329 15.528C74.105 15.7733 73.8064 16.12 73.433 16.568C73.0704 17.016 72.6757 17.512 72.249 18.056C71.833 18.6 71.4117 19.1707 70.985 19.768C70.569 20.3653 70.201 20.936 69.881 21.48H74.457V22.728H68.105V21.736C68.361 21.2667 68.6757 20.7493 69.049 20.184C69.4224 19.6187 69.8117 19.0587 70.217 18.504C70.633 17.9387 71.033 17.4107 71.417 16.92C71.8117 16.4187 72.153 15.9973 72.441 15.656H68.329V14.408H74.329V15.528Z" fill="#5B5854"/>
<path d="M77.8283 22.728H76.3403V14.408H77.8283V22.728ZM79.0283 11.256L76.7723 13.448L76.0203 12.776L78.0683 10.312L79.0283 11.256Z" fill="#5B5854"/>
<path d="M87.1623 14.232C87.2903 14.232 87.4343 14.2427 87.5943 14.264C87.7649 14.2747 87.9303 14.296 88.0903 14.328C88.2503 14.3493 88.3943 14.376 88.5223 14.408C88.6609 14.4293 88.7623 14.4507 88.8263 14.472L88.5703 15.768C88.4529 15.7253 88.2556 15.6773 87.9783 15.624C87.7116 15.56 87.3649 15.528 86.9383 15.528C86.6609 15.528 86.3836 15.56 86.1063 15.624C85.8396 15.6773 85.6636 15.7147 85.5783 15.736V22.728H84.0903V14.76C84.4423 14.632 84.8796 14.5147 85.4023 14.408C85.9249 14.2907 86.5116 14.232 87.1623 14.232Z" fill="#5B5854"/>
<path d="M89.7982 18.584C89.7982 17.848 89.9048 17.208 90.1182 16.664C90.3315 16.1093 90.6142 15.6507 90.9662 15.288C91.3182 14.9253 91.7235 14.6533 92.1822 14.472C92.6408 14.2907 93.1102 14.2 93.5902 14.2C94.7102 14.2 95.5688 14.552 96.1662 15.256C96.7635 15.9493 97.0622 17.0107 97.0622 18.44C97.0622 18.504 97.0622 18.5893 97.0622 18.696C97.0622 18.792 97.0568 18.8827 97.0462 18.968H91.3502C91.4142 19.832 91.6648 20.488 92.1022 20.936C92.5395 21.384 93.2222 21.608 94.1502 21.608C94.6728 21.608 95.1102 21.5653 95.4622 21.48C95.8248 21.384 96.0968 21.2933 96.2782 21.208L96.4862 22.456C96.3048 22.552 95.9848 22.6533 95.5262 22.76C95.0782 22.8667 94.5662 22.92 93.9902 22.92C93.2648 22.92 92.6355 22.8133 92.1022 22.6C91.5795 22.376 91.1475 22.072 90.8062 21.688C90.4648 21.304 90.2088 20.8507 90.0382 20.328C89.8782 19.7947 89.7982 19.2133 89.7982 18.584ZM95.5102 17.768C95.5208 17.096 95.3502 16.5467 94.9982 16.12C94.6568 15.6827 94.1822 15.464 93.5742 15.464C93.2328 15.464 92.9288 15.5333 92.6622 15.672C92.4062 15.8 92.1875 15.9707 92.0062 16.184C91.8248 16.3973 91.6808 16.6427 91.5742 16.92C91.4782 17.1973 91.4142 17.48 91.3822 17.768H95.5102Z" fill="#5B5854"/>
<path d="M100.288 18.584C100.288 19.0107 100.33 19.4107 100.416 19.784C100.501 20.1467 100.64 20.4667 100.832 20.744C101.024 21.0107 101.269 21.224 101.568 21.384C101.877 21.5333 102.245 21.608 102.672 21.608C103.077 21.608 103.45 21.5387 103.792 21.4C104.133 21.2613 104.394 21.1173 104.576 20.968V15.72C104.426 15.6773 104.224 15.64 103.968 15.608C103.722 15.576 103.376 15.56 102.928 15.56C102.128 15.56 101.488 15.8213 101.008 16.344C100.528 16.8667 100.288 17.6133 100.288 18.584ZM98.7357 18.584C98.7357 17.912 98.8317 17.3093 99.0237 16.776C99.2263 16.232 99.509 15.7733 99.8717 15.4C100.234 15.0267 100.672 14.7387 101.184 14.536C101.696 14.3333 102.272 14.232 102.912 14.232C103.605 14.232 104.213 14.2853 104.736 14.392C105.269 14.488 105.712 14.5787 106.064 14.664V25.688H104.576V22.36C104.394 22.4773 104.117 22.6 103.744 22.728C103.381 22.856 102.96 22.92 102.48 22.92C101.882 22.92 101.349 22.8133 100.88 22.6C100.421 22.3867 100.032 22.088 99.7117 21.704C99.3917 21.32 99.1463 20.8613 98.9757 20.328C98.8157 19.7947 98.7357 19.2133 98.7357 18.584Z" fill="#5B5854"/>
<path d="M115.246 22.488C114.904 22.5733 114.451 22.664 113.886 22.76C113.331 22.856 112.686 22.904 111.95 22.904C111.31 22.904 110.771 22.8133 110.334 22.632C109.896 22.44 109.544 22.1733 109.278 21.832C109.011 21.4907 108.819 21.0907 108.702 20.632C108.584 20.1627 108.526 19.6453 108.526 19.08V14.408H110.014V18.76C110.014 19.7733 110.174 20.4987 110.494 20.936C110.814 21.3733 111.352 21.592 112.11 21.592C112.27 21.592 112.435 21.5867 112.606 21.576C112.776 21.5653 112.936 21.5547 113.086 21.544C113.235 21.5227 113.368 21.5067 113.486 21.496C113.614 21.4747 113.704 21.4533 113.758 21.432V14.408H115.246V22.488Z" fill="#5B5854"/>
<path d="M117.345 18.584C117.345 17.848 117.452 17.208 117.665 16.664C117.878 16.1093 118.161 15.6507 118.513 15.288C118.865 14.9253 119.27 14.6533 119.729 14.472C120.188 14.2907 120.657 14.2 121.137 14.2C122.257 14.2 123.116 14.552 123.713 15.256C124.31 15.9493 124.609 17.0107 124.609 18.44C124.609 18.504 124.609 18.5893 124.609 18.696C124.609 18.792 124.604 18.8827 124.593 18.968H118.897C118.961 19.832 119.212 20.488 119.649 20.936C120.086 21.384 120.769 21.608 121.697 21.608C122.22 21.608 122.657 21.5653 123.009 21.48C123.372 21.384 123.644 21.2933 123.825 21.208L124.033 22.456C123.852 22.552 123.532 22.6533 123.073 22.76C122.625 22.8667 122.113 22.92 121.537 22.92C120.812 22.92 120.182 22.8133 119.649 22.6C119.126 22.376 118.694 22.072 118.353 21.688C118.012 21.304 117.756 20.8507 117.585 20.328C117.425 19.7947 117.345 19.2133 117.345 18.584ZM123.057 17.768C123.068 17.096 122.897 16.5467 122.545 16.12C122.204 15.6827 121.729 15.464 121.121 15.464C120.78 15.464 120.476 15.5333 120.209 15.672C119.953 15.8 119.734 15.9707 119.553 16.184C119.372 16.3973 119.228 16.6427 119.121 16.92C119.025 17.1973 118.961 17.48 118.929 17.768H123.057Z" fill="#5B5854"/>
<path d="M128.683 21.656C129.291 21.656 129.739 21.576 130.027 21.416C130.325 21.256 130.475 21 130.475 20.648C130.475 20.2853 130.331 19.9973 130.043 19.784C129.755 19.5707 129.28 19.3307 128.619 19.064C128.299 18.936 127.989 18.808 127.691 18.68C127.403 18.5413 127.152 18.3813 126.939 18.2C126.725 18.0187 126.555 17.8 126.427 17.544C126.299 17.288 126.235 16.9733 126.235 16.6C126.235 15.864 126.507 15.2827 127.051 14.856C127.595 14.4187 128.336 14.2 129.275 14.2C129.509 14.2 129.744 14.216 129.979 14.248C130.213 14.2693 130.432 14.3013 130.635 14.344C130.837 14.376 131.013 14.4133 131.163 14.456C131.323 14.4987 131.445 14.536 131.531 14.568L131.259 15.848C131.099 15.7627 130.848 15.6773 130.507 15.592C130.165 15.496 129.755 15.448 129.275 15.448C128.859 15.448 128.496 15.5333 128.187 15.704C127.877 15.864 127.723 16.12 127.723 16.472C127.723 16.6533 127.755 16.8133 127.819 16.952C127.893 17.0907 128 17.2187 128.139 17.336C128.288 17.4427 128.469 17.544 128.683 17.64C128.896 17.736 129.152 17.8373 129.451 17.944C129.845 18.0933 130.197 18.2427 130.507 18.392C130.816 18.5307 131.077 18.696 131.291 18.888C131.515 19.08 131.685 19.3147 131.803 19.592C131.92 19.8587 131.979 20.1893 131.979 20.584C131.979 21.352 131.691 21.9333 131.115 22.328C130.549 22.7227 129.739 22.92 128.683 22.92C127.947 22.92 127.371 22.856 126.955 22.728C126.539 22.6107 126.256 22.52 126.107 22.456L126.379 21.176C126.549 21.24 126.821 21.336 127.195 21.464C127.568 21.592 128.064 21.656 128.683 21.656Z" fill="#5B5854"/>
<path d="M135.279 14.408H138.431V15.656H135.279V19.496C135.279 19.912 135.311 20.2587 135.375 20.536C135.439 20.8027 135.535 21.016 135.663 21.176C135.791 21.3253 135.951 21.432 136.143 21.496C136.335 21.56 136.559 21.592 136.815 21.592C137.263 21.592 137.62 21.544 137.887 21.448C138.164 21.3413 138.356 21.2667 138.463 21.224L138.751 22.456C138.602 22.5307 138.34 22.6213 137.967 22.728C137.594 22.8453 137.167 22.904 136.687 22.904C136.122 22.904 135.652 22.8347 135.279 22.696C134.916 22.5467 134.623 22.328 134.399 22.04C134.175 21.752 134.015 21.4 133.919 20.984C133.834 20.5573 133.791 20.0667 133.791 19.512V12.088L135.279 11.832V14.408Z" fill="#5B5854"/>
<path d="M193.707 18.7071C194.098 18.3166 194.098 17.6834 193.707 17.2929L187.343 10.9289C186.953 10.5384 186.319 10.5384 185.929 10.9289C185.538 11.3195 185.538 11.9526 185.929 12.3431L191.586 18L185.929 23.6569C185.538 24.0474 185.538 24.6805 185.929 25.0711C186.319 25.4616 186.953 25.4616 187.343 25.0711L193.707 18.7071ZM193 17L162 17V19L193 19V17Z" fill="#FAA033"/>
<path d="M296.707 18.7071C297.098 18.3166 297.098 17.6834 296.707 17.2929L290.343 10.9289C289.953 10.5384 289.319 10.5384 288.929 10.9289C288.538 11.3195 288.538 11.9526 288.929 12.3431L294.586 18L288.929 23.6569C288.538 24.0474 288.538 24.6805 288.929 25.0711C289.319 25.4616 289.953 25.4616 290.343 25.0711L296.707 18.7071ZM296 17L265 17V19L296 19V17Z" fill="#FAA033"/>
<path d="M162.293 85.2929C161.902 85.6834 161.902 86.3166 162.293 86.7071L168.657 93.0711C169.047 93.4616 169.681 93.4616 170.071 93.0711C170.462 92.6805 170.462 92.0474 170.071 91.6569L164.414 86L170.071 80.3431C170.462 79.9526 170.462 79.3195 170.071 78.9289C169.681 78.5384 169.047 78.5384 168.657 78.9289L162.293 85.2929ZM194 85H163V87H194V85Z" fill="#FAA033"/>
<path d="M265.293 85.2929C264.902 85.6834 264.902 86.3166 265.293 86.7071L271.657 93.0711C272.047 93.4616 272.681 93.4616 273.071 93.0711C273.462 92.6805 273.462 92.0474 273.071 91.6569L267.414 86L273.071 80.3431C273.462 79.9526 273.462 79.3195 273.071 78.9289C272.681 78.5384 272.047 78.5384 271.657 78.9289L265.293 85.2929ZM297 85H266V87H297V85Z" fill="#FAA033"/>
<rect x="194" width="68.8744" height="104" rx="4" fill="#F4EFEA"/>
<path d="M210 58.1118V47.0238H216.688V48.3518H211.552V51.6958H216.112V53.0078H211.552V58.1118H210Z" fill="#5B5854"/>
<path d="M219.986 58.1118H218.498V49.7918H219.986V58.1118ZM219.234 48.2878C218.967 48.2878 218.738 48.2025 218.546 48.0318C218.364 47.8505 218.274 47.6105 218.274 47.3118C218.274 47.0131 218.364 46.7785 218.546 46.6078C218.738 46.4265 218.967 46.3358 219.234 46.3358C219.5 46.3358 219.724 46.4265 219.906 46.6078C220.098 46.7785 220.194 47.0131 220.194 47.3118C220.194 47.6105 220.098 47.8505 219.906 48.0318C219.724 48.2025 219.5 48.2878 219.234 48.2878Z" fill="#5B5854"/>
<path d="M225.041 58.2718C224.123 58.2505 223.473 58.0531 223.089 57.6798C222.705 57.3065 222.513 56.7251 222.513 55.9358V45.9518L224.001 45.6958V55.6958C224.001 55.9411 224.022 56.1438 224.065 56.3038C224.107 56.4638 224.177 56.5918 224.273 56.6878C224.369 56.7838 224.497 56.8585 224.657 56.9118C224.817 56.9545 225.014 56.9918 225.249 57.0238L225.041 58.2718Z" fill="#5B5854"/>
<path d="M228.312 49.7918H231.464V51.0398H228.312V54.8798C228.312 55.2958 228.344 55.6425 228.408 55.9198C228.472 56.1865 228.568 56.3998 228.696 56.5598C228.824 56.7091 228.984 56.8158 229.176 56.8798C229.368 56.9438 229.592 56.9758 229.848 56.9758C230.296 56.9758 230.653 56.9278 230.92 56.8318C231.197 56.7251 231.389 56.6505 231.496 56.6078L231.784 57.8398C231.634 57.9145 231.373 58.0051 231 58.1118C230.626 58.2291 230.2 58.2878 229.72 58.2878C229.154 58.2878 228.685 58.2185 228.312 58.0798C227.949 57.9305 227.656 57.7118 227.432 57.4238C227.208 57.1358 227.048 56.7838 226.952 56.3678C226.866 55.9411 226.824 55.4505 226.824 54.8958V47.4718L228.312 47.2158V49.7918Z" fill="#5B5854"/>
<path d="M232.737 53.9678C232.737 53.2318 232.844 52.5918 233.057 52.0478C233.27 51.4931 233.553 51.0345 233.905 50.6718C234.257 50.3091 234.662 50.0371 235.121 49.8558C235.58 49.6745 236.049 49.5838 236.529 49.5838C237.649 49.5838 238.508 49.9358 239.105 50.6398C239.702 51.3331 240.001 52.3945 240.001 53.8238C240.001 53.8878 240.001 53.9731 240.001 54.0798C240.001 54.1758 239.996 54.2665 239.985 54.3518H234.289C234.353 55.2158 234.604 55.8718 235.041 56.3198C235.478 56.7678 236.161 56.9918 237.089 56.9918C237.612 56.9918 238.049 56.9491 238.401 56.8638C238.764 56.7678 239.036 56.6771 239.217 56.5918L239.425 57.8398C239.244 57.9358 238.924 58.0371 238.465 58.1438C238.017 58.2505 237.505 58.3038 236.929 58.3038C236.204 58.3038 235.574 58.1971 235.041 57.9838C234.518 57.7598 234.086 57.4558 233.745 57.0718C233.404 56.6878 233.148 56.2345 232.977 55.7118C232.817 55.1785 232.737 54.5971 232.737 53.9678ZM238.449 53.1518C238.46 52.4798 238.289 51.9305 237.937 51.5038C237.596 51.0665 237.121 50.8478 236.513 50.8478C236.172 50.8478 235.868 50.9171 235.601 51.0558C235.345 51.1838 235.126 51.3545 234.945 51.5678C234.764 51.7811 234.62 52.0265 234.513 52.3038C234.417 52.5811 234.353 52.8638 234.321 53.1518H238.449Z" fill="#5B5854"/>
<path d="M245.21 49.6158C245.338 49.6158 245.482 49.6265 245.642 49.6478C245.813 49.6585 245.978 49.6798 246.138 49.7118C246.298 49.7331 246.442 49.7598 246.57 49.7918C246.709 49.8131 246.81 49.8345 246.874 49.8558L246.618 51.1518C246.501 51.1091 246.304 51.0611 246.026 51.0078C245.76 50.9438 245.413 50.9118 244.986 50.9118C244.709 50.9118 244.432 50.9438 244.154 51.0078C243.888 51.0611 243.712 51.0985 243.626 51.1198V58.1118H242.138V50.1438C242.49 50.0158 242.928 49.8985 243.45 49.7918C243.973 49.6745 244.56 49.6158 245.21 49.6158Z" fill="#5B5854"/>
<rect x="297" width="82.9285" height="104" rx="4" fill="#F4EFEA"/>
<path d="M316.424 56.9839C318.045 56.9839 318.856 56.4292 318.856 55.3199C318.856 54.9785 318.781 54.6905 318.632 54.4559C318.493 54.2105 318.301 54.0025 318.056 53.8319C317.811 53.6505 317.528 53.4959 317.208 53.3679C316.899 53.2399 316.568 53.1119 316.216 52.9839C315.811 52.8452 315.427 52.6905 315.064 52.5199C314.701 52.3385 314.387 52.1305 314.12 51.8959C313.853 51.6505 313.64 51.3625 313.48 51.0319C313.331 50.7012 313.256 50.3012 313.256 49.8319C313.256 48.8612 313.587 48.1039 314.248 47.5599C314.909 47.0159 315.821 46.7439 316.984 46.7439C317.656 46.7439 318.264 46.8185 318.808 46.9679C319.363 47.1065 319.768 47.2612 320.024 47.4319L319.528 48.6959C319.304 48.5572 318.968 48.4239 318.52 48.2959C318.083 48.1572 317.571 48.0879 316.984 48.0879C316.685 48.0879 316.408 48.1199 316.152 48.1839C315.896 48.2479 315.672 48.3439 315.48 48.4719C315.288 48.5999 315.133 48.7652 315.016 48.9679C314.909 49.1599 314.856 49.3892 314.856 49.6559C314.856 49.9545 314.915 50.2052 315.032 50.4079C315.149 50.6105 315.315 50.7919 315.528 50.9519C315.741 51.1012 315.987 51.2399 316.264 51.3679C316.552 51.4959 316.867 51.6239 317.208 51.7519C317.688 51.9439 318.125 52.1359 318.52 52.3279C318.925 52.5199 319.272 52.7492 319.56 53.0159C319.859 53.2825 320.088 53.6025 320.248 53.9759C320.408 54.3385 320.488 54.7812 320.488 55.3039C320.488 56.2745 320.131 57.0212 319.416 57.5439C318.712 58.0665 317.715 58.3279 316.424 58.3279C315.987 58.3279 315.581 58.2959 315.208 58.2319C314.845 58.1785 314.52 58.1145 314.232 58.0399C313.944 57.9545 313.693 57.8692 313.48 57.7839C313.277 57.6879 313.117 57.6079 313 57.5439L313.464 56.2639C313.709 56.4025 314.083 56.5572 314.584 56.7279C315.085 56.8985 315.699 56.9839 316.424 56.9839Z" fill="#5B5854"/>
<path d="M321.804 53.9439C321.804 53.2079 321.91 52.5679 322.124 52.0239C322.337 51.4692 322.62 51.0105 322.972 50.6479C323.324 50.2852 323.729 50.0132 324.188 49.8319C324.646 49.6505 325.116 49.5599 325.596 49.5599C326.716 49.5599 327.574 49.9119 328.172 50.6159C328.769 51.3092 329.068 52.3705 329.068 53.7999C329.068 53.8639 329.068 53.9492 329.068 54.0559C329.068 54.1519 329.062 54.2425 329.052 54.3279H323.356C323.42 55.1919 323.67 55.8479 324.108 56.2959C324.545 56.7439 325.228 56.9679 326.156 56.9679C326.678 56.9679 327.116 56.9252 327.468 56.8399C327.83 56.7439 328.102 56.6532 328.284 56.5679L328.492 57.8159C328.31 57.9119 327.99 58.0132 327.532 58.1199C327.084 58.2265 326.572 58.2799 325.996 58.2799C325.27 58.2799 324.641 58.1732 324.108 57.9599C323.585 57.7359 323.153 57.4319 322.812 57.0479C322.47 56.6639 322.214 56.2105 322.044 55.6879C321.884 55.1545 321.804 54.5732 321.804 53.9439ZM327.516 53.1279C327.526 52.4559 327.356 51.9065 327.004 51.4799C326.662 51.0425 326.188 50.8239 325.58 50.8239C325.238 50.8239 324.934 50.8932 324.668 51.0319C324.412 51.1599 324.193 51.3305 324.012 51.5439C323.83 51.7572 323.686 52.0025 323.58 52.2799C323.484 52.5572 323.42 52.8399 323.388 53.1279H327.516Z" fill="#5B5854"/>
<path d="M334.277 49.5919C334.405 49.5919 334.549 49.6025 334.709 49.6239C334.88 49.6345 335.045 49.6559 335.205 49.6879C335.365 49.7092 335.509 49.7359 335.637 49.7679C335.776 49.7892 335.877 49.8105 335.941 49.8319L335.685 51.1279C335.568 51.0852 335.37 51.0372 335.093 50.9839C334.826 50.9199 334.48 50.8879 334.053 50.8879C333.776 50.8879 333.498 50.9199 333.221 50.9839C332.954 51.0372 332.778 51.0745 332.693 51.0959V58.0879H331.205V50.1199C331.557 49.9919 331.994 49.8745 332.517 49.7679C333.04 49.6505 333.626 49.5919 334.277 49.5919Z" fill="#5B5854"/>
<path d="M344.217 49.7679C343.801 51.3252 343.31 52.8185 342.745 54.2479C342.19 55.6772 341.651 56.9572 341.129 58.0879H339.785C339.262 56.9572 338.718 55.6772 338.153 54.2479C337.598 52.8185 337.113 51.3252 336.697 49.7679H338.297C338.425 50.2905 338.574 50.8505 338.745 51.4479C338.926 52.0345 339.113 52.6212 339.305 53.2079C339.507 53.7839 339.71 54.3439 339.913 54.8879C340.115 55.4319 340.307 55.9172 340.489 56.3439C340.67 55.9172 340.862 55.4319 341.065 54.8879C341.267 54.3439 341.465 53.7839 341.657 53.2079C341.859 52.6212 342.046 52.0345 342.217 51.4479C342.398 50.8505 342.553 50.2905 342.681 49.7679H344.217Z" fill="#5B5854"/>
<path d="M348.248 58.2479C347.331 58.2265 346.68 58.0292 346.296 57.6559C345.912 57.2825 345.72 56.7012 345.72 55.9119V45.9279L347.208 45.6719V55.6719C347.208 55.9172 347.229 56.1199 347.272 56.2799C347.315 56.4399 347.384 56.5679 347.48 56.6639C347.576 56.7599 347.704 56.8345 347.864 56.8879C348.024 56.9305 348.221 56.9679 348.456 56.9999L348.248 58.2479Z" fill="#5B5854"/>
<path d="M349.663 53.9439C349.663 53.2079 349.77 52.5679 349.983 52.0239C350.196 51.4692 350.479 51.0105 350.831 50.6479C351.183 50.2852 351.588 50.0132 352.047 49.8319C352.506 49.6505 352.975 49.5599 353.455 49.5599C354.575 49.5599 355.434 49.9119 356.031 50.6159C356.628 51.3092 356.927 52.3705 356.927 53.7999C356.927 53.8639 356.927 53.9492 356.927 54.0559C356.927 54.1519 356.922 54.2425 356.911 54.3279H351.215C351.279 55.1919 351.53 55.8479 351.967 56.2959C352.404 56.7439 353.087 56.9679 354.015 56.9679C354.538 56.9679 354.975 56.9252 355.327 56.8399C355.69 56.7439 355.962 56.6532 356.143 56.5679L356.351 57.8159C356.17 57.9119 355.85 58.0132 355.391 58.1199C354.943 58.2265 354.431 58.2799 353.855 58.2799C353.13 58.2799 352.5 58.1732 351.967 57.9599C351.444 57.7359 351.012 57.4319 350.671 57.0479C350.33 56.6639 350.074 56.2105 349.903 55.6879C349.743 55.1545 349.663 54.5732 349.663 53.9439ZM355.375 53.1279C355.386 52.4559 355.215 51.9065 354.863 51.4799C354.522 51.0425 354.047 50.8239 353.439 50.8239C353.098 50.8239 352.794 50.8932 352.527 51.0319C352.271 51.1599 352.052 51.3305 351.871 51.5439C351.69 51.7572 351.546 52.0025 351.439 52.2799C351.343 52.5572 351.279 52.8399 351.247 53.1279H355.375Z" fill="#5B5854"/>
<path d="M360.457 49.7679H363.609V51.0159H360.457V54.8559C360.457 55.2719 360.489 55.6185 360.553 55.8959C360.617 56.1625 360.712 56.3759 360.84 56.5359C360.968 56.6852 361.128 56.7919 361.32 56.8559C361.512 56.9199 361.737 56.9519 361.993 56.9519C362.441 56.9519 362.798 56.9039 363.064 56.8079C363.342 56.7012 363.534 56.6265 363.64 56.5839L363.929 57.8159C363.779 57.8905 363.518 57.9812 363.145 58.0879C362.771 58.2052 362.345 58.2639 361.865 58.2639C361.299 58.2639 360.83 58.1945 360.457 58.0559C360.094 57.9065 359.8 57.6879 359.576 57.3999C359.352 57.1119 359.193 56.7599 359.097 56.3439C359.011 55.9172 358.968 55.4265 358.968 54.8719V47.4479L360.457 47.1919V49.7679Z" fill="#5B5854"/>
<rect y="68" width="159.449" height="36" rx="4" fill="#F4EFEA"/>
<path d="M16 85.176C16 84.2267 16.1387 83.3893 16.416 82.664C16.704 81.9387 17.088 81.336 17.568 80.856C18.0587 80.3653 18.624 79.9973 19.264 79.752C19.9147 79.5067 20.6027 79.384 21.328 79.384C22.0427 79.384 22.7147 79.5067 23.344 79.752C23.984 79.9973 24.544 80.3653 25.024 80.856C25.504 81.336 25.8827 81.9387 26.16 82.664C26.448 83.3893 26.592 84.2267 26.592 85.176C26.592 86.1253 26.448 86.9627 26.16 87.688C25.8827 88.4133 25.504 89.0213 25.024 89.512C24.544 89.992 23.984 90.3547 23.344 90.6C22.7147 90.8453 22.0427 90.968 21.328 90.968C20.6027 90.968 19.9147 90.8453 19.264 90.6C18.624 90.3547 18.0587 89.992 17.568 89.512C17.088 89.0213 16.704 88.4133 16.416 87.688C16.1387 86.9627 16 86.1253 16 85.176ZM17.632 85.176C17.632 85.848 17.7173 86.4613 17.888 87.016C18.0587 87.56 18.2987 88.024 18.608 88.408C18.928 88.792 19.312 89.0907 19.76 89.304C20.2187 89.5067 20.7307 89.608 21.296 89.608C21.8613 89.608 22.368 89.5067 22.816 89.304C23.264 89.0907 23.6427 88.792 23.952 88.408C24.272 88.024 24.5173 87.56 24.688 87.016C24.8587 86.4613 24.944 85.848 24.944 85.176C24.944 84.504 24.8587 83.896 24.688 83.352C24.5173 82.7973 24.272 82.328 23.952 81.944C23.6427 81.56 23.264 81.2667 22.816 81.064C22.368 80.8507 21.8613 80.744 21.296 80.744C20.7307 80.744 20.2187 80.8507 19.76 81.064C19.312 81.2667 18.928 81.56 18.608 81.944C18.2987 82.328 18.0587 82.7973 17.888 83.352C17.7173 83.896 17.632 84.504 17.632 85.176Z" fill="#5B5854"/>
<path d="M34.1811 84.168C33.9998 84.0187 33.7385 83.8747 33.3971 83.736C33.0558 83.5973 32.6825 83.528 32.2771 83.528C31.8505 83.528 31.4825 83.608 31.1731 83.768C30.8745 83.9173 30.6291 84.1307 30.4371 84.408C30.2451 84.6747 30.1065 84.9947 30.0211 85.368C29.9358 85.7413 29.8931 86.1413 29.8931 86.568C29.8931 87.5387 30.1331 88.2907 30.6131 88.824C31.0931 89.3467 31.7331 89.608 32.5331 89.608C32.9385 89.608 33.2745 89.592 33.5411 89.56C33.8185 89.5173 34.0318 89.4747 34.1811 89.432V84.168ZM34.1811 78.568L35.6691 78.312V90.488C35.3278 90.584 34.8905 90.68 34.3571 90.776C33.8238 90.872 33.2105 90.92 32.5171 90.92C31.8771 90.92 31.3011 90.8187 30.7891 90.616C30.2771 90.4133 29.8398 90.1253 29.4771 89.752C29.1145 89.3787 28.8318 88.9253 28.6291 88.392C28.4371 87.848 28.3411 87.24 28.3411 86.568C28.3411 85.928 28.4211 85.3413 28.5811 84.808C28.7518 84.2747 28.9971 83.816 29.3171 83.432C29.6371 83.048 30.0265 82.7493 30.4851 82.536C30.9545 82.3227 31.4878 82.216 32.0851 82.216C32.5651 82.216 32.9865 82.28 33.3491 82.408C33.7225 82.536 33.9998 82.6587 34.1811 82.776V78.568Z" fill="#5B5854"/>
<path d="M41.843 90.92C41.171 90.92 40.579 90.8133 40.067 90.6C39.5657 90.3867 39.139 90.088 38.787 89.704C38.4457 89.32 38.1897 88.8667 38.019 88.344C37.8483 87.8107 37.763 87.224 37.763 86.584C37.763 85.944 37.8537 85.3573 38.035 84.824C38.227 84.2907 38.4937 83.832 38.835 83.448C39.1763 83.0533 39.5923 82.7493 40.083 82.536C40.5843 82.312 41.139 82.2 41.747 82.2C42.1203 82.2 42.4937 82.232 42.867 82.296C43.2403 82.36 43.5977 82.4613 43.939 82.6L43.603 83.864C43.379 83.7573 43.1177 83.672 42.819 83.608C42.531 83.544 42.2217 83.512 41.891 83.512C41.059 83.512 40.419 83.7733 39.971 84.296C39.5337 84.8187 39.315 85.5813 39.315 86.584C39.315 87.032 39.363 87.4427 39.459 87.816C39.5657 88.1893 39.7257 88.5093 39.939 88.776C40.163 89.0427 40.4457 89.2507 40.787 89.4C41.1283 89.5387 41.5443 89.608 42.035 89.608C42.4297 89.608 42.787 89.5707 43.107 89.496C43.427 89.4213 43.6777 89.3413 43.859 89.256L44.067 90.504C43.9817 90.5573 43.859 90.6107 43.699 90.664C43.539 90.7067 43.3577 90.744 43.155 90.776C42.9523 90.8187 42.7337 90.8507 42.499 90.872C42.275 90.904 42.0563 90.92 41.843 90.92Z" fill="#5B5854"/>
<path d="M45.6645 90.728V78.568L47.1525 78.312V82.568C47.4298 82.4613 47.7232 82.3813 48.0325 82.328C48.3525 82.264 48.6672 82.232 48.9765 82.232C49.6378 82.232 50.1872 82.328 50.6245 82.52C51.0618 82.7013 51.4085 82.9627 51.6645 83.304C51.9312 83.6347 52.1178 84.0347 52.2245 84.504C52.3312 84.9733 52.3845 85.4907 52.3845 86.056V90.728H50.8965V86.376C50.8965 85.864 50.8592 85.4267 50.7845 85.064C50.7205 84.7013 50.6085 84.408 50.4485 84.184C50.2885 83.96 50.0752 83.8 49.8085 83.704C49.5418 83.5973 49.2112 83.544 48.8165 83.544C48.6565 83.544 48.4912 83.5547 48.3205 83.576C48.1498 83.5973 47.9845 83.624 47.8245 83.656C47.6752 83.6773 47.5365 83.704 47.4085 83.736C47.2912 83.768 47.2058 83.7947 47.1525 83.816V90.728H45.6645Z" fill="#5B5854"/>
<path d="M62.1491 86.568C62.1491 87.2293 62.0531 87.8267 61.8611 88.36C61.6691 88.8933 61.3971 89.352 61.0451 89.736C60.7038 90.12 60.2931 90.4187 59.8131 90.632C59.3331 90.8347 58.8105 90.936 58.2451 90.936C57.6798 90.936 57.1571 90.8347 56.6771 90.632C56.1971 90.4187 55.7811 90.12 55.4291 89.736C55.0878 89.352 54.8211 88.8933 54.6291 88.36C54.4371 87.8267 54.3411 87.2293 54.3411 86.568C54.3411 85.9173 54.4371 85.3253 54.6291 84.792C54.8211 84.248 55.0878 83.784 55.4291 83.4C55.7811 83.016 56.1971 82.7227 56.6771 82.52C57.1571 82.3067 57.6798 82.2 58.2451 82.2C58.8105 82.2 59.3331 82.3067 59.8131 82.52C60.2931 82.7227 60.7038 83.016 61.0451 83.4C61.3971 83.784 61.6691 84.248 61.8611 84.792C62.0531 85.3253 62.1491 85.9173 62.1491 86.568ZM60.5971 86.568C60.5971 85.6293 60.3838 84.888 59.9571 84.344C59.5411 83.7893 58.9705 83.512 58.2451 83.512C57.5198 83.512 56.9438 83.7893 56.5171 84.344C56.1011 84.888 55.8931 85.6293 55.8931 86.568C55.8931 87.5067 56.1011 88.2533 56.5171 88.808C56.9438 89.352 57.5198 89.624 58.2451 89.624C58.9705 89.624 59.5411 89.352 59.9571 88.808C60.3838 88.2533 60.5971 87.5067 60.5971 86.568Z" fill="#5B5854"/>
<path d="M69.4501 83.528C69.2261 83.7733 68.9275 84.12 68.5541 84.568C68.1915 85.016 67.7968 85.512 67.3701 86.056C66.9541 86.6 66.5328 87.1707 66.1061 87.768C65.6901 88.3653 65.3221 88.936 65.0021 89.48H69.5781V90.728H63.2261V89.736C63.4821 89.2667 63.7968 88.7493 64.1701 88.184C64.5435 87.6187 64.9328 87.0587 65.3381 86.504C65.7541 85.9387 66.1541 85.4107 66.5381 84.92C66.9328 84.4187 67.2741 83.9973 67.5621 83.656H63.4501V82.408H69.4501V83.528Z" fill="#5B5854"/>
<path d="M72.9494 90.728H71.4614V82.408H72.9494V90.728ZM74.1494 79.256L71.8934 81.448L71.1414 80.776L73.1894 78.312L74.1494 79.256Z" fill="#5B5854"/>
<path d="M82.2834 82.232C82.4114 82.232 82.5554 82.2427 82.7154 82.264C82.886 82.2747 83.0514 82.296 83.2114 82.328C83.3714 82.3493 83.5154 82.376 83.6434 82.408C83.782 82.4293 83.8834 82.4507 83.9474 82.472L83.6914 83.768C83.574 83.7253 83.3767 83.6773 83.0994 83.624C82.8327 83.56 82.486 83.528 82.0594 83.528C81.782 83.528 81.5047 83.56 81.2274 83.624C80.9607 83.6773 80.7847 83.7147 80.6994 83.736V90.728H79.2114V82.76C79.5634 82.632 80.0007 82.5147 80.5234 82.408C81.046 82.2907 81.6327 82.232 82.2834 82.232Z" fill="#5B5854"/>
<path d="M84.9193 86.584C84.9193 85.848 85.0259 85.208 85.2393 84.664C85.4526 84.1093 85.7352 83.6507 86.0872 83.288C86.4392 82.9253 86.8446 82.6533 87.3033 82.472C87.7619 82.2907 88.2313 82.2 88.7113 82.2C89.8313 82.2 90.6899 82.552 91.2872 83.256C91.8846 83.9493 92.1833 85.0107 92.1833 86.44C92.1833 86.504 92.1833 86.5893 92.1833 86.696C92.1833 86.792 92.1779 86.8827 92.1673 86.968H86.4713C86.5353 87.832 86.7859 88.488 87.2233 88.936C87.6606 89.384 88.3432 89.608 89.2712 89.608C89.7939 89.608 90.2313 89.5653 90.5833 89.48C90.9459 89.384 91.2179 89.2933 91.3993 89.208L91.6072 90.456C91.4259 90.552 91.1059 90.6533 90.6472 90.76C90.1992 90.8667 89.6873 90.92 89.1113 90.92C88.3859 90.92 87.7566 90.8133 87.2233 90.6C86.7006 90.376 86.2686 90.072 85.9273 89.688C85.5859 89.304 85.3299 88.8507 85.1592 88.328C84.9992 87.7947 84.9193 87.2133 84.9193 86.584ZM90.6312 85.768C90.6419 85.096 90.4712 84.5467 90.1192 84.12C89.7779 83.6827 89.3033 83.464 88.6953 83.464C88.3539 83.464 88.0499 83.5333 87.7832 83.672C87.5272 83.8 87.3086 83.9707 87.1273 84.184C86.9459 84.3973 86.8019 84.6427 86.6953 84.92C86.5993 85.1973 86.5353 85.48 86.5033 85.768H90.6312Z" fill="#5B5854"/>
<path d="M96.2568 89.656C96.8648 89.656 97.3128 89.576 97.6008 89.416C97.8994 89.256 98.0488 89 98.0488 88.648C98.0488 88.2853 97.9048 87.9973 97.6168 87.784C97.3288 87.5707 96.8541 87.3307 96.1927 87.064C95.8727 86.936 95.5634 86.808 95.2647 86.68C94.9767 86.5413 94.7261 86.3813 94.5127 86.2C94.2994 86.0187 94.1287 85.8 94.0007 85.544C93.8727 85.288 93.8087 84.9733 93.8087 84.6C93.8087 83.864 94.0807 83.2827 94.6247 82.856C95.1687 82.4187 95.9101 82.2 96.8487 82.2C97.0834 82.2 97.3181 82.216 97.5527 82.248C97.7874 82.2693 98.0061 82.3013 98.2087 82.344C98.4114 82.376 98.5874 82.4133 98.7367 82.456C98.8967 82.4987 99.0194 82.536 99.1048 82.568L98.8327 83.848C98.6727 83.7627 98.4221 83.6773 98.0807 83.592C97.7394 83.496 97.3287 83.448 96.8487 83.448C96.4327 83.448 96.0701 83.5333 95.7607 83.704C95.4514 83.864 95.2968 84.12 95.2968 84.472C95.2968 84.6533 95.3288 84.8133 95.3928 84.952C95.4674 85.0907 95.5741 85.2187 95.7128 85.336C95.8621 85.4427 96.0434 85.544 96.2568 85.64C96.4701 85.736 96.7261 85.8373 97.0247 85.944C97.4194 86.0933 97.7714 86.2427 98.0807 86.392C98.3901 86.5307 98.6514 86.696 98.8648 86.888C99.0888 87.08 99.2594 87.3147 99.3767 87.592C99.4941 87.8587 99.5527 88.1893 99.5527 88.584C99.5527 89.352 99.2648 89.9333 98.6888 90.328C98.1234 90.7227 97.3128 90.92 96.2568 90.92C95.5208 90.92 94.9447 90.856 94.5287 90.728C94.1127 90.6107 93.8301 90.52 93.6807 90.456L93.9528 89.176C94.1234 89.24 94.3954 89.336 94.7688 89.464C95.1421 89.592 95.6381 89.656 96.2568 89.656Z" fill="#5B5854"/>
<path d="M107.237 86.584C107.237 85.6133 106.997 84.8667 106.517 84.344C106.037 83.8213 105.397 83.56 104.597 83.56C104.149 83.56 103.797 83.576 103.541 83.608C103.296 83.64 103.099 83.6773 102.949 83.72V88.968C103.131 89.1173 103.392 89.2613 103.733 89.4C104.075 89.5387 104.448 89.608 104.853 89.608C105.28 89.608 105.643 89.5333 105.941 89.384C106.251 89.224 106.501 89.0107 106.693 88.744C106.885 88.4667 107.024 88.1467 107.109 87.784C107.195 87.4107 107.237 87.0107 107.237 86.584ZM108.789 86.584C108.789 87.2133 108.704 87.7947 108.533 88.328C108.373 88.8613 108.133 89.32 107.813 89.704C107.493 90.088 107.099 90.3867 106.629 90.6C106.171 90.8133 105.643 90.92 105.045 90.92C104.565 90.92 104.139 90.856 103.765 90.728C103.403 90.6 103.131 90.4773 102.949 90.36V93.688H101.461V82.664C101.813 82.5787 102.251 82.488 102.773 82.392C103.307 82.2853 103.92 82.232 104.613 82.232C105.253 82.232 105.829 82.3333 106.341 82.536C106.853 82.7387 107.291 83.0267 107.653 83.4C108.016 83.7733 108.293 84.232 108.485 84.776C108.688 85.3093 108.789 85.912 108.789 86.584Z" fill="#5B5854"/>
<path d="M118.227 86.568C118.227 87.2293 118.131 87.8267 117.939 88.36C117.747 88.8933 117.475 89.352 117.123 89.736C116.782 90.12 116.371 90.4187 115.891 90.632C115.411 90.8347 114.889 90.936 114.323 90.936C113.758 90.936 113.235 90.8347 112.755 90.632C112.275 90.4187 111.859 90.12 111.507 89.736C111.166 89.352 110.899 88.8933 110.707 88.36C110.515 87.8267 110.419 87.2293 110.419 86.568C110.419 85.9173 110.515 85.3253 110.707 84.792C110.899 84.248 111.166 83.784 111.507 83.4C111.859 83.016 112.275 82.7227 112.755 82.52C113.235 82.3067 113.758 82.2 114.323 82.2C114.889 82.2 115.411 82.3067 115.891 82.52C116.371 82.7227 116.782 83.016 117.123 83.4C117.475 83.784 117.747 84.248 117.939 84.792C118.131 85.3253 118.227 85.9173 118.227 86.568ZM116.675 86.568C116.675 85.6293 116.462 84.888 116.035 84.344C115.619 83.7893 115.049 83.512 114.323 83.512C113.598 83.512 113.022 83.7893 112.595 84.344C112.179 84.888 111.971 85.6293 111.971 86.568C111.971 87.5067 112.179 88.2533 112.595 88.808C113.022 89.352 113.598 89.624 114.323 89.624C115.049 89.624 115.619 89.352 116.035 88.808C116.462 88.2533 116.675 87.5067 116.675 86.568Z" fill="#5B5854"/>
<path d="M120.321 82.648C120.662 82.5627 121.115 82.472 121.681 82.376C122.246 82.28 122.897 82.232 123.633 82.232C124.294 82.232 124.843 82.328 125.281 82.52C125.718 82.7013 126.065 82.9627 126.321 83.304C126.587 83.6347 126.774 84.0347 126.881 84.504C126.987 84.9733 127.041 85.4907 127.041 86.056V90.728H125.553V86.376C125.553 85.864 125.515 85.4267 125.441 85.064C125.377 84.7013 125.265 84.408 125.105 84.184C124.945 83.96 124.731 83.8 124.465 83.704C124.198 83.5973 123.867 83.544 123.473 83.544C123.313 83.544 123.147 83.5493 122.977 83.56C122.806 83.5707 122.641 83.5867 122.481 83.608C122.331 83.6187 122.193 83.6347 122.065 83.656C121.947 83.6773 121.862 83.6933 121.809 83.704V90.728H120.321V82.648Z" fill="#5B5854"/>
<path d="M131.444 89.656C132.052 89.656 132.5 89.576 132.788 89.416C133.087 89.256 133.236 89 133.236 88.648C133.236 88.2853 133.092 87.9973 132.804 87.784C132.516 87.5707 132.042 87.3307 131.38 87.064C131.06 86.936 130.751 86.808 130.452 86.68C130.164 86.5413 129.914 86.3813 129.7 86.2C129.487 86.0187 129.316 85.8 129.188 85.544C129.06 85.288 128.996 84.9733 128.996 84.6C128.996 83.864 129.268 83.2827 129.812 82.856C130.356 82.4187 131.098 82.2 132.036 82.2C132.271 82.2 132.506 82.216 132.74 82.248C132.975 82.2693 133.194 82.3013 133.396 82.344C133.599 82.376 133.775 82.4133 133.924 82.456C134.084 82.4987 134.207 82.536 134.292 82.568L134.02 83.848C133.86 83.7627 133.61 83.6773 133.268 83.592C132.927 83.496 132.516 83.448 132.036 83.448C131.62 83.448 131.258 83.5333 130.948 83.704C130.639 83.864 130.484 84.12 130.484 84.472C130.484 84.6533 130.516 84.8133 130.58 84.952C130.655 85.0907 130.762 85.2187 130.9 85.336C131.05 85.4427 131.231 85.544 131.444 85.64C131.658 85.736 131.914 85.8373 132.212 85.944C132.607 86.0933 132.959 86.2427 133.268 86.392C133.578 86.5307 133.839 86.696 134.052 86.888C134.276 87.08 134.447 87.3147 134.564 87.592C134.682 87.8587 134.74 88.1893 134.74 88.584C134.74 89.352 134.452 89.9333 133.876 90.328C133.311 90.7227 132.5 90.92 131.444 90.92C130.708 90.92 130.132 90.856 129.716 90.728C129.3 90.6107 129.018 90.52 128.868 90.456L129.14 89.176C129.311 89.24 129.583 89.336 129.956 89.464C130.33 89.592 130.826 89.656 131.444 89.656Z" fill="#5B5854"/>
<path d="M136.185 86.584C136.185 85.848 136.292 85.208 136.505 84.664C136.718 84.1093 137.001 83.6507 137.353 83.288C137.705 82.9253 138.11 82.6533 138.569 82.472C139.028 82.2907 139.497 82.2 139.977 82.2C141.097 82.2 141.956 82.552 142.553 83.256C143.15 83.9493 143.449 85.0107 143.449 86.44C143.449 86.504 143.449 86.5893 143.449 86.696C143.449 86.792 143.444 86.8827 143.433 86.968H137.737C137.801 87.832 138.052 88.488 138.489 88.936C138.926 89.384 139.609 89.608 140.537 89.608C141.06 89.608 141.497 89.5653 141.849 89.48C142.212 89.384 142.484 89.2933 142.665 89.208L142.873 90.456C142.692 90.552 142.372 90.6533 141.913 90.76C141.465 90.8667 140.953 90.92 140.377 90.92C139.652 90.92 139.022 90.8133 138.489 90.6C137.966 90.376 137.534 90.072 137.193 89.688C136.852 89.304 136.596 88.8507 136.425 88.328C136.265 87.7947 136.185 87.2133 136.185 86.584ZM141.897 85.768C141.908 85.096 141.737 84.5467 141.385 84.12C141.044 83.6827 140.569 83.464 139.961 83.464C139.62 83.464 139.316 83.5333 139.049 83.672C138.793 83.8 138.574 83.9707 138.393 84.184C138.212 84.3973 138.068 84.6427 137.961 84.92C137.865 85.1973 137.801 85.48 137.769 85.768H141.897Z" fill="#5B5854"/>
</svg>
