<svg width="736" height="216" viewBox="0 0 736 216" fill="none" xmlns="http://www.w3.org/2000/svg">
<g clip-path="url(#clip0_190_828)">
<path d="M130.383 191.019H76.6169L78.4396 169.513H128.561L130.383 191.019Z" fill="#E6E6E6"/>
<path d="M132.569 188.331H74.77V193.708H132.569V188.331Z" fill="#E6E6E6"/>
<path d="M201.771 23H5.22947C3.84253 23 2.51239 23.5448 1.53167 24.5144C0.550956 25.4841 0 26.7992 0 28.1705V146.662H207V28.1705C207 27.4915 206.865 26.8192 206.602 26.1919C206.339 25.5645 205.954 24.9946 205.468 24.5144C204.983 24.0343 204.406 23.6534 203.772 23.3936C203.137 23.1337 202.457 23 201.771 23Z" fill="#3F3D56"/>
<path d="M0 146.662V168.947C0 169.727 0.135268 170.5 0.398074 171.221C0.66088 171.942 1.04607 172.597 1.53167 173.149C2.01727 173.701 2.59377 174.139 3.22824 174.437C3.86271 174.736 4.54273 174.89 5.22947 174.89H201.771C203.157 174.89 204.488 174.264 205.468 173.149C206.449 172.035 207 170.523 207 168.947V146.662H0Z" fill="#E6E6E6"/>
<path d="M197.591 33.7532H10.7533V139.941H197.591V33.7532Z" fill="#E6E6E6"/>
<path d="M103.5 165.481C106.469 165.481 108.877 163.073 108.877 160.104C108.877 157.134 106.469 154.727 103.5 154.727C100.531 154.727 98.1234 157.134 98.1234 160.104C98.1234 163.073 100.531 165.481 103.5 165.481Z" fill="#3F3D56"/>
<path d="M16.802 39.1298C17.1731 39.1298 17.474 38.8289 17.474 38.4577C17.474 38.0865 17.1731 37.7856 16.802 37.7856C16.4308 37.7856 16.1299 38.0865 16.1299 38.4577C16.1299 38.8289 16.4308 39.1298 16.802 39.1298Z" fill="white"/>
<path d="M19.4903 39.1298C19.8615 39.1298 20.1624 38.8289 20.1624 38.4577C20.1624 38.0865 19.8615 37.7856 19.4903 37.7856C19.1191 37.7856 18.8182 38.0865 18.8182 38.4577C18.8182 38.8289 19.1191 39.1298 19.4903 39.1298Z" fill="white"/>
<path d="M23.5228 39.1298C23.894 39.1298 24.1949 38.8289 24.1949 38.4577C24.1949 38.0865 23.894 37.7856 23.5228 37.7856C23.1516 37.7856 22.8507 38.0865 22.8507 38.4577C22.8507 38.8289 23.1516 39.1298 23.5228 39.1298Z" fill="white"/>
<path d="M189.526 40.4741H16.1299V129.188H189.526V40.4741Z" fill="white"/>
<path d="M26.1623 53.9155C25.997 53.9157 25.8386 53.9804 25.7217 54.0955C25.6048 54.2106 25.5391 54.3667 25.5389 54.5294V85.5614C25.5391 85.7241 25.6048 85.8802 25.7217 85.9953C25.8386 86.1104 25.997 86.1751 26.1623 86.1753H62.5519C62.7172 86.1751 62.8757 86.1104 62.9925 85.9953C63.1094 85.8802 63.1751 85.7241 63.1753 85.5614V54.5294C63.1751 54.3667 63.1094 54.2106 62.9925 54.0955C62.8757 53.9804 62.7172 53.9157 62.5519 53.9155H26.1623Z" fill="#E6E6E6"/>
<path d="M86.6069 53.9155C86.4529 53.9156 86.3052 53.9806 86.1963 54.096C86.0874 54.2115 86.0262 54.368 86.026 54.5313V85.5594C86.0262 85.7228 86.0874 85.8793 86.1963 85.9948C86.3052 86.1102 86.4529 86.1752 86.6069 86.1753H120.394C120.548 86.1751 120.695 86.1101 120.804 85.9946C120.913 85.8792 120.974 85.7227 120.974 85.5594V54.5313C120.974 54.3681 120.913 54.2116 120.804 54.0961C120.695 53.9807 120.548 53.9157 120.394 53.9155H86.6069Z" fill="#E6E6E6"/>
<path d="M143.121 53.9155C142.951 53.9157 142.789 53.98 142.668 54.0943C142.548 54.2086 142.481 54.3636 142.48 54.5252V85.5656C142.481 85.7272 142.548 85.8821 142.668 85.9964C142.789 86.1107 142.951 86.1751 143.121 86.1753H180.82C180.99 86.1751 181.153 86.1107 181.273 85.9964C181.393 85.8821 181.461 85.7272 181.461 85.5656V54.5252C181.461 54.3636 181.393 54.2086 181.273 54.0943C181.153 53.98 180.99 53.9157 180.82 53.9155H143.121Z" fill="#E6E6E6"/>
<path d="M26.8551 102.305C26.5058 102.306 26.171 102.519 25.9243 102.897C25.6775 103.275 25.5389 103.787 25.5389 104.321C25.5389 104.855 25.6775 105.368 25.9243 105.746C26.171 106.124 26.5058 106.337 26.8551 106.338H61.8591C62.2084 106.337 62.5432 106.124 62.79 105.746C63.0367 105.368 63.1753 104.855 63.1753 104.321C63.1753 103.787 63.0367 103.275 62.79 102.897C62.5432 102.519 62.2084 102.306 61.8591 102.305H26.8551Z" fill="#E6E6E6"/>
<path d="M26.8856 109.026C26.5282 109.026 26.1857 109.097 25.9332 109.223C25.6807 109.349 25.5389 109.52 25.5389 109.698C25.5389 109.876 25.6807 110.047 25.9332 110.173C26.1857 110.299 26.5282 110.37 26.8856 110.37H43.0104C43.3678 110.37 43.7104 110.299 43.9628 110.173C44.2153 110.047 44.3571 109.876 44.3571 109.698C44.3571 109.52 44.2153 109.349 43.9628 109.223C43.7104 109.097 43.3678 109.026 43.0104 109.026H26.8856Z" fill="#FAA033"/>
<path d="M87.2481 102.305C86.9238 102.306 86.613 102.519 86.3838 102.897C86.1547 103.275 86.026 103.787 86.026 104.321C86.026 104.855 86.1547 105.368 86.3838 105.746C86.613 106.124 86.9238 106.337 87.2481 106.338H119.752C120.076 106.337 120.387 106.124 120.616 105.746C120.845 105.368 120.974 104.855 120.974 104.321C120.974 103.787 120.845 103.275 120.616 102.897C120.387 102.519 120.076 102.306 119.752 102.305H87.2481Z" fill="#E6E6E6"/>
<path d="M87.1803 109.026C86.874 109.026 86.5804 109.097 86.364 109.223C86.1475 109.349 86.026 109.52 86.026 109.698C86.026 109.876 86.1475 110.047 86.364 110.173C86.5804 110.299 86.874 110.37 87.1803 110.37H101.002C101.308 110.37 101.602 110.299 101.818 110.173C102.034 110.047 102.156 109.876 102.156 109.698C102.156 109.52 102.034 109.349 101.818 109.223C101.602 109.097 101.308 109.026 101.002 109.026H87.1803Z" fill="#FAA033"/>
<path d="M143.797 102.305C143.447 102.306 143.113 102.519 142.866 102.897C142.619 103.275 142.48 103.787 142.48 104.321C142.48 104.855 142.619 105.368 142.866 105.746C143.113 106.124 143.447 106.337 143.797 106.338H178.801C179.15 106.337 179.485 106.124 179.731 105.746C179.978 105.368 180.117 104.855 180.117 104.321C180.117 103.787 179.978 103.275 179.731 102.897C179.485 102.519 179.15 102.306 178.801 102.305H143.797Z" fill="#E6E6E6"/>
<path d="M26.8551 95.5845C26.5058 95.5851 26.171 95.7271 25.9243 95.9791C25.6775 96.2311 25.5389 96.5726 25.5389 96.9286C25.5389 97.2847 25.6775 97.6262 25.9243 97.8782C26.171 98.1302 26.5058 98.2721 26.8551 98.2728H61.8591C62.2084 98.2721 62.5432 98.1302 62.79 97.8782C63.0367 97.6262 63.1753 97.2847 63.1753 96.9286C63.1753 96.5726 63.0367 96.2311 62.79 95.9791C62.5432 95.7271 62.2084 95.5851 61.8591 95.5845H26.8551Z" fill="#E6E6E6"/>
<path d="M87.2481 95.5845C86.9238 95.5851 86.613 95.7271 86.3838 95.9791C86.1547 96.2311 86.026 96.5726 86.026 96.9286C86.026 97.2847 86.1547 97.6262 86.3838 97.8782C86.613 98.1302 86.9238 98.2721 87.2481 98.2728H119.752C120.076 98.2721 120.387 98.1302 120.616 97.8782C120.845 97.6262 120.974 97.2847 120.974 96.9286C120.974 96.5726 120.845 96.2311 120.616 95.9791C120.387 95.7271 120.076 95.5851 119.752 95.5845H87.2481Z" fill="#E6E6E6"/>
<path d="M143.797 95.5845C143.447 95.5851 143.113 95.7271 142.866 95.9791C142.619 96.2311 142.48 96.5726 142.48 96.9286C142.48 97.2847 142.619 97.6262 142.866 97.8782C143.113 98.1302 143.447 98.2721 143.797 98.2728H178.801C179.15 98.2721 179.485 98.1302 179.731 97.8782C179.978 97.6262 180.117 97.2847 180.117 96.9286C180.117 96.5726 179.978 96.2311 179.731 95.9791C179.485 95.7271 179.15 95.5851 178.801 95.5845H143.797Z" fill="#E6E6E6"/>
<path d="M143.731 109.026C143.399 109.026 143.081 109.097 142.847 109.223C142.612 109.349 142.48 109.52 142.48 109.698C142.48 109.876 142.612 110.047 142.847 110.173C143.081 110.299 143.399 110.37 143.731 110.37H158.704C159.036 110.37 159.354 110.299 159.588 110.173C159.823 110.047 159.954 109.876 159.954 109.698C159.954 109.52 159.823 109.349 159.588 109.223C159.354 109.097 159.036 109.026 158.704 109.026H143.731Z" fill="#FAA033"/>
<path d="M536.707 92.7071C537.098 92.3166 537.098 91.6834 536.707 91.2929L530.343 84.9289C529.953 84.5384 529.319 84.5384 528.929 84.9289C528.538 85.3195 528.538 85.9526 528.929 86.3431L534.586 92L528.929 97.6569C528.538 98.0474 528.538 98.6805 528.929 99.0711C529.319 99.4616 529.953 99.4616 530.343 99.0711L536.707 92.7071ZM239 93H536V91H239V93Z" fill="#FAA033"/>
<path d="M274.589 76.4479C274.589 77.4079 274.44 78.2453 274.141 78.9599C273.843 79.6639 273.421 80.2506 272.877 80.7199C272.333 81.1786 271.683 81.5253 270.925 81.7599C270.168 81.9839 269.336 82.0959 268.429 82.0959C267.981 82.0959 267.485 82.0746 266.941 82.0319C266.408 81.9999 265.923 81.9306 265.485 81.8239V71.0719C265.923 70.9653 266.408 70.8959 266.941 70.8639C267.485 70.8213 267.981 70.7999 268.429 70.7999C269.336 70.7999 270.168 70.9173 270.925 71.1519C271.683 71.3759 272.333 71.7226 272.877 72.1919C273.421 72.6506 273.843 73.2373 274.141 73.9519C274.44 74.6559 274.589 75.4879 274.589 76.4479ZM268.557 80.7359C270.029 80.7359 271.128 80.3626 271.853 79.6159C272.579 78.8586 272.941 77.8026 272.941 76.4479C272.941 75.0933 272.579 74.0426 271.853 73.2959C271.128 72.5386 270.029 72.1599 268.557 72.1599C268.12 72.1599 267.779 72.1653 267.533 72.1759C267.299 72.1866 267.133 72.1973 267.037 72.2079V80.6879C267.133 80.6986 267.299 80.7093 267.533 80.7199C267.779 80.7306 268.12 80.7359 268.557 80.7359Z" fill="#5B5854"/>
<path d="M276.332 77.8559C276.332 77.1199 276.438 76.4799 276.652 75.9359C276.865 75.3813 277.148 74.9226 277.5 74.5599C277.852 74.1973 278.257 73.9253 278.716 73.7439C279.174 73.5626 279.644 73.4719 280.124 73.4719C281.244 73.4719 282.102 73.8239 282.7 74.5279C283.297 75.2213 283.596 76.2826 283.596 77.7119C283.596 77.7759 283.596 77.8613 283.596 77.9679C283.596 78.0639 283.59 78.1546 283.58 78.2399H277.884C277.948 79.1039 278.198 79.7599 278.636 80.2079C279.073 80.6559 279.756 80.8799 280.684 80.8799C281.206 80.8799 281.644 80.8373 281.996 80.7519C282.358 80.6559 282.63 80.5653 282.812 80.4799L283.02 81.7279C282.838 81.8239 282.518 81.9253 282.06 82.0319C281.612 82.1386 281.1 82.1919 280.524 82.1919C279.798 82.1919 279.169 82.0853 278.636 81.8719C278.113 81.6479 277.681 81.3439 277.34 80.9599C276.998 80.5759 276.742 80.1226 276.572 79.5999C276.412 79.0666 276.332 78.4853 276.332 77.8559ZM282.044 77.0399C282.054 76.3679 281.884 75.8186 281.532 75.3919C281.19 74.9546 280.716 74.7359 280.108 74.7359C279.766 74.7359 279.462 74.8053 279.196 74.9439C278.94 75.0719 278.721 75.2426 278.54 75.4559C278.358 75.6693 278.214 75.9146 278.108 76.1919C278.012 76.4693 277.948 76.7519 277.916 77.0399H282.044Z" fill="#5B5854"/>
<path d="M284.373 84.9919C284.245 84.9919 284.08 84.9759 283.877 84.9439C283.674 84.9119 283.504 84.8693 283.365 84.8159L283.557 83.5999C283.664 83.6319 283.786 83.6586 283.925 83.6799C284.064 83.7013 284.192 83.7119 284.309 83.7119C284.821 83.7119 285.184 83.5519 285.397 83.2319C285.621 82.9226 285.733 82.4639 285.733 81.8559V73.6799H287.221V81.8399C287.221 82.9066 286.976 83.6959 286.485 84.2079C286.005 84.7306 285.301 84.9919 284.373 84.9919ZM286.469 72.1759C286.202 72.1759 285.973 72.0906 285.781 71.9199C285.6 71.7386 285.509 71.4986 285.509 71.1999C285.509 70.9013 285.6 70.6666 285.781 70.4959C285.973 70.3146 286.202 70.2239 286.469 70.2239C286.736 70.2239 286.96 70.3146 287.141 70.4959C287.333 70.6666 287.429 70.9013 287.429 71.1999C287.429 71.4986 287.333 71.7386 287.141 71.9199C286.96 72.0906 286.736 72.1759 286.469 72.1759Z" fill="#5B5854"/>
<path d="M293.483 73.9199C293.824 73.8346 294.272 73.7439 294.827 73.6479C295.392 73.5519 296.043 73.5039 296.779 73.5039C297.312 73.5039 297.76 73.5786 298.123 73.7279C298.486 73.8666 298.79 74.0746 299.035 74.3519C299.11 74.2986 299.227 74.2239 299.387 74.1279C299.547 74.0319 299.744 73.9413 299.979 73.8559C300.214 73.7599 300.475 73.6799 300.763 73.6159C301.051 73.5413 301.36 73.5039 301.691 73.5039C302.331 73.5039 302.854 73.5999 303.259 73.7919C303.664 73.9733 303.979 74.2346 304.203 74.5759C304.438 74.9173 304.592 75.3226 304.667 75.7919C304.752 76.2613 304.795 76.7733 304.795 77.3279V81.9999H303.307V77.6479C303.307 77.1573 303.28 76.7359 303.227 76.3839C303.184 76.0319 303.094 75.7386 302.955 75.5039C302.827 75.2693 302.646 75.0986 302.411 74.9919C302.187 74.8746 301.894 74.8159 301.531 74.8159C301.03 74.8159 300.614 74.8853 300.283 75.0239C299.963 75.1519 299.744 75.2693 299.627 75.3759C299.712 75.6533 299.776 75.9573 299.819 76.2879C299.862 76.6186 299.883 76.9653 299.883 77.3279V81.9999H298.395V77.6479C298.395 77.1573 298.368 76.7359 298.315 76.3839C298.262 76.0319 298.166 75.7386 298.027 75.5039C297.899 75.2693 297.718 75.0986 297.483 74.9919C297.259 74.8746 296.971 74.8159 296.619 74.8159C296.47 74.8159 296.31 74.8213 296.139 74.8319C295.968 74.8426 295.803 74.8586 295.643 74.8799C295.494 74.8906 295.355 74.9066 295.227 74.9279C295.099 74.9493 295.014 74.9653 294.971 74.9759V81.9999H293.483V73.9199Z" fill="#5B5854"/>
<path d="M308.752 81.9999H307.264V73.6799H308.752V81.9999ZM308 72.1759C307.734 72.1759 307.504 72.0906 307.312 71.9199C307.131 71.7386 307.04 71.4986 307.04 71.1999C307.04 70.9013 307.131 70.6666 307.312 70.4959C307.504 70.3146 307.734 70.2239 308 70.2239C308.267 70.2239 308.491 70.3146 308.672 70.4959C308.864 70.6666 308.96 70.9013 308.96 71.1999C308.96 71.4986 308.864 71.7386 308.672 71.9199C308.491 72.0906 308.267 72.1759 308 72.1759Z" fill="#5B5854"/>
<path d="M315.014 81.9999V69.8399L316.502 69.5839V73.8399C316.78 73.7333 317.073 73.6533 317.382 73.5999C317.702 73.5359 318.017 73.5039 318.326 73.5039C318.988 73.5039 319.537 73.5999 319.974 73.7919C320.412 73.9733 320.758 74.2346 321.014 74.5759C321.281 74.9066 321.468 75.3066 321.574 75.7759C321.681 76.2453 321.734 76.7626 321.734 77.3279V81.9999H320.246V77.6479C320.246 77.1359 320.209 76.6986 320.134 76.3359C320.07 75.9733 319.958 75.6799 319.798 75.4559C319.638 75.2319 319.425 75.0719 319.158 74.9759C318.892 74.8693 318.561 74.8159 318.166 74.8159C318.006 74.8159 317.841 74.8266 317.67 74.8479C317.5 74.8693 317.334 74.8959 317.174 74.9279C317.025 74.9493 316.886 74.9759 316.758 75.0079C316.641 75.0399 316.556 75.0666 316.502 75.0879V81.9999H315.014Z" fill="#5B5854"/>
<path d="M325.547 73.6799H328.699V74.9279H325.547V78.7679C325.547 79.1839 325.579 79.5306 325.643 79.8079C325.707 80.0746 325.803 80.2879 325.931 80.4479C326.059 80.5973 326.219 80.7039 326.411 80.7679C326.603 80.8319 326.827 80.8639 327.083 80.8639C327.531 80.8639 327.888 80.8159 328.155 80.7199C328.432 80.6133 328.624 80.5386 328.731 80.4959L329.019 81.7279C328.87 81.8026 328.608 81.8933 328.235 81.9999C327.862 82.1173 327.435 82.1759 326.955 82.1759C326.39 82.1759 325.92 82.1066 325.547 81.9679C325.184 81.8186 324.891 81.5999 324.667 81.3119C324.443 81.0239 324.283 80.6719 324.187 80.2559C324.102 79.8293 324.059 79.3386 324.059 78.7839V71.3599L325.547 71.1039V73.6799Z" fill="#5B5854"/>
<path d="M331.984 73.6799H335.136V74.9279H331.984V78.7679C331.984 79.1839 332.016 79.5306 332.08 79.8079C332.144 80.0746 332.24 80.2879 332.368 80.4479C332.496 80.5973 332.656 80.7039 332.848 80.7679C333.04 80.8319 333.264 80.8639 333.52 80.8639C333.968 80.8639 334.326 80.8159 334.592 80.7199C334.87 80.6133 335.062 80.5386 335.168 80.4959L335.456 81.7279C335.307 81.8026 335.046 81.8933 334.672 81.9999C334.299 82.1173 333.872 82.1759 333.392 82.1759C332.827 82.1759 332.358 82.1066 331.984 81.9679C331.622 81.8186 331.328 81.5999 331.104 81.3119C330.88 81.0239 330.72 80.6719 330.624 80.2559C330.539 79.8293 330.496 79.3386 330.496 78.7839V71.3599L331.984 71.1039V73.6799Z" fill="#5B5854"/>
<path d="M342.806 77.8559C342.806 76.8853 342.566 76.1386 342.086 75.6159C341.606 75.0933 340.966 74.8319 340.166 74.8319C339.718 74.8319 339.366 74.8479 339.11 74.8799C338.865 74.9119 338.667 74.9493 338.518 74.9919V80.2399C338.699 80.3893 338.961 80.5333 339.302 80.6719C339.643 80.8106 340.017 80.8799 340.422 80.8799C340.849 80.8799 341.211 80.8053 341.51 80.6559C341.819 80.4959 342.07 80.2826 342.262 80.0159C342.454 79.7386 342.593 79.4186 342.678 79.0559C342.763 78.6826 342.806 78.2826 342.806 77.8559ZM344.358 77.8559C344.358 78.4853 344.273 79.0666 344.102 79.5999C343.942 80.1333 343.702 80.5919 343.382 80.9759C343.062 81.3599 342.667 81.6586 342.198 81.8719C341.739 82.0853 341.211 82.1919 340.614 82.1919C340.134 82.1919 339.707 82.1279 339.334 81.9999C338.971 81.8719 338.699 81.7493 338.518 81.6319V84.9599H337.03V73.9359C337.382 73.8506 337.819 73.7599 338.342 73.6639C338.875 73.5573 339.489 73.5039 340.182 73.5039C340.822 73.5039 341.398 73.6053 341.91 73.8079C342.422 74.0106 342.859 74.2986 343.222 74.6719C343.585 75.0453 343.862 75.5039 344.054 76.0479C344.257 76.5813 344.358 77.1839 344.358 77.8559Z" fill="#5B5854"/>
<path d="M348.388 80.9279C348.996 80.9279 349.444 80.8479 349.732 80.6879C350.031 80.5279 350.18 80.2719 350.18 79.9199C350.18 79.5573 350.036 79.2693 349.748 79.0559C349.46 78.8426 348.985 78.6026 348.324 78.3359C348.004 78.2079 347.695 78.0799 347.396 77.9519C347.108 77.8133 346.857 77.6533 346.644 77.4719C346.431 77.2906 346.26 77.0719 346.132 76.8159C346.004 76.5599 345.94 76.2453 345.94 75.8719C345.94 75.1359 346.212 74.5546 346.756 74.1279C347.3 73.6906 348.041 73.4719 348.98 73.4719C349.215 73.4719 349.449 73.4879 349.684 73.5199C349.919 73.5413 350.137 73.5733 350.34 73.6159C350.543 73.6479 350.719 73.6853 350.868 73.7279C351.028 73.7706 351.151 73.8079 351.236 73.8399L350.964 75.1199C350.804 75.0346 350.553 74.9493 350.212 74.8639C349.871 74.7679 349.46 74.7199 348.98 74.7199C348.564 74.7199 348.201 74.8053 347.892 74.9759C347.583 75.1359 347.428 75.3919 347.428 75.7439C347.428 75.9253 347.46 76.0853 347.524 76.2239C347.599 76.3626 347.705 76.4906 347.844 76.6079C347.993 76.7146 348.175 76.8159 348.388 76.9119C348.601 77.0079 348.857 77.1093 349.156 77.2159C349.551 77.3653 349.903 77.5146 350.212 77.6639C350.521 77.8026 350.783 77.9679 350.996 78.1599C351.22 78.3519 351.391 78.5866 351.508 78.8639C351.625 79.1306 351.684 79.4613 351.684 79.8559C351.684 80.6239 351.396 81.2053 350.82 81.5999C350.255 81.9946 349.444 82.1919 348.388 82.1919C347.652 82.1919 347.076 82.1279 346.66 81.9999C346.244 81.8826 345.961 81.7919 345.812 81.7279L346.084 80.4479C346.255 80.5119 346.527 80.6079 346.9 80.7359C347.273 80.8639 347.769 80.9279 348.388 80.9279Z" fill="#5B5854"/>
<path d="M355.352 81.1359C355.352 81.4239 355.256 81.6746 355.064 81.8879C354.872 82.1013 354.611 82.2079 354.28 82.2079C353.95 82.2079 353.688 82.1013 353.496 81.8879C353.304 81.6746 353.208 81.4239 353.208 81.1359C353.208 80.8479 353.304 80.5973 353.496 80.3839C353.688 80.1706 353.95 80.0639 354.28 80.0639C354.611 80.0639 354.872 80.1706 355.064 80.3839C355.256 80.5973 355.352 80.8479 355.352 81.1359ZM355.352 74.7519C355.352 75.0399 355.256 75.2906 355.064 75.5039C354.872 75.7173 354.611 75.8239 354.28 75.8239C353.95 75.8239 353.688 75.7173 353.496 75.5039C353.304 75.2906 353.208 75.0399 353.208 74.7519C353.208 74.4639 353.304 74.2133 353.496 73.9999C353.688 73.7866 353.95 73.6799 354.28 73.6799C354.611 73.6799 354.872 73.7866 355.064 73.9999C355.256 74.2133 355.352 74.4639 355.352 74.7519Z" fill="#5B5854"/>
<path d="M357.386 84.9599H355.866L361.29 69.4719H362.778L357.386 84.9599Z" fill="#5B5854"/>
<path d="M363.527 84.9599H362.007L367.431 69.4719H368.919L363.527 84.9599Z" fill="#5B5854"/>
<path d="M376.611 81.9999C376.313 81.2319 375.993 80.3573 375.651 79.3759C375.321 78.3839 375.017 77.3546 374.739 76.2879C374.462 77.3546 374.158 78.3839 373.827 79.3759C373.497 80.3573 373.182 81.2319 372.883 81.9999H371.587C371.097 80.9013 370.617 79.6479 370.147 78.2399C369.678 76.8319 369.235 75.3119 368.819 73.6799H370.419C370.526 74.1813 370.654 74.7253 370.803 75.3119C370.953 75.8986 371.107 76.4853 371.267 77.0719C371.438 77.6586 371.614 78.2239 371.795 78.7679C371.977 79.3119 372.147 79.7866 372.307 80.1919C372.489 79.6906 372.665 79.1626 372.835 78.6079C373.017 78.0426 373.187 77.4773 373.347 76.9119C373.507 76.3359 373.657 75.7759 373.795 75.2319C373.945 74.6773 374.073 74.1599 374.179 73.6799H375.411C375.507 74.1599 375.625 74.6773 375.763 75.2319C375.902 75.7759 376.051 76.3359 376.211 76.9119C376.371 77.4773 376.537 78.0426 376.707 78.6079C376.889 79.1626 377.07 79.6906 377.251 80.1919C377.411 79.7866 377.577 79.3119 377.747 78.7679C377.929 78.2239 378.105 77.6586 378.275 77.0719C378.446 76.4853 378.606 75.8986 378.755 75.3119C378.905 74.7253 379.033 74.1813 379.139 73.6799H380.675C380.259 75.3119 379.817 76.8319 379.347 78.2399C378.878 79.6479 378.398 80.9013 377.907 81.9999H376.611Z" fill="#5B5854"/>
<path d="M389.314 81.9999C389.016 81.2319 388.696 80.3573 388.354 79.3759C388.024 78.3839 387.72 77.3546 387.442 76.2879C387.165 77.3546 386.861 78.3839 386.53 79.3759C386.2 80.3573 385.885 81.2319 385.586 81.9999H384.29C383.8 80.9013 383.32 79.6479 382.85 78.2399C382.381 76.8319 381.938 75.3119 381.522 73.6799H383.122C383.229 74.1813 383.357 74.7253 383.506 75.3119C383.656 75.8986 383.81 76.4853 383.97 77.0719C384.141 77.6586 384.317 78.2239 384.498 78.7679C384.68 79.3119 384.85 79.7866 385.01 80.1919C385.192 79.6906 385.368 79.1626 385.538 78.6079C385.72 78.0426 385.89 77.4773 386.05 76.9119C386.21 76.3359 386.36 75.7759 386.498 75.2319C386.648 74.6773 386.776 74.1599 386.882 73.6799H388.114C388.21 74.1599 388.328 74.6773 388.466 75.2319C388.605 75.7759 388.754 76.3359 388.914 76.9119C389.074 77.4773 389.24 78.0426 389.41 78.6079C389.592 79.1626 389.773 79.6906 389.954 80.1919C390.114 79.7866 390.28 79.3119 390.45 78.7679C390.632 78.2239 390.808 77.6586 390.978 77.0719C391.149 76.4853 391.309 75.8986 391.458 75.3119C391.608 74.7253 391.736 74.1813 391.842 73.6799H393.378C392.962 75.3119 392.52 76.8319 392.05 78.2399C391.581 79.6479 391.101 80.9013 390.61 81.9999H389.314Z" fill="#5B5854"/>
<path d="M402.017 81.9999C401.719 81.2319 401.399 80.3573 401.057 79.3759C400.727 78.3839 400.423 77.3546 400.145 76.2879C399.868 77.3546 399.564 78.3839 399.233 79.3759C398.903 80.3573 398.588 81.2319 398.289 81.9999H396.993C396.503 80.9013 396.023 79.6479 395.553 78.2399C395.084 76.8319 394.641 75.3119 394.225 73.6799H395.825C395.932 74.1813 396.06 74.7253 396.209 75.3119C396.359 75.8986 396.513 76.4853 396.673 77.0719C396.844 77.6586 397.02 78.2239 397.201 78.7679C397.383 79.3119 397.553 79.7866 397.713 80.1919C397.895 79.6906 398.071 79.1626 398.241 78.6079C398.423 78.0426 398.593 77.4773 398.753 76.9119C398.913 76.3359 399.063 75.7759 399.201 75.2319C399.351 74.6773 399.479 74.1599 399.585 73.6799H400.817C400.913 74.1599 401.031 74.6773 401.169 75.2319C401.308 75.7759 401.457 76.3359 401.617 76.9119C401.777 77.4773 401.943 78.0426 402.113 78.6079C402.295 79.1626 402.476 79.6906 402.657 80.1919C402.817 79.7866 402.983 79.3119 403.153 78.7679C403.335 78.2239 403.511 77.6586 403.681 77.0719C403.852 76.4853 404.012 75.8986 404.161 75.3119C404.311 74.7253 404.439 74.1813 404.545 73.6799H406.081C405.665 75.3119 405.223 76.8319 404.753 78.2399C404.284 79.6479 403.804 80.9013 403.313 81.9999H402.017Z" fill="#5B5854"/>
<path d="M408.899 81.1359C408.899 81.4239 408.803 81.6746 408.611 81.8879C408.419 82.1013 408.158 82.2079 407.827 82.2079C407.497 82.2079 407.235 82.1013 407.043 81.8879C406.851 81.6746 406.755 81.4239 406.755 81.1359C406.755 80.8479 406.851 80.5973 407.043 80.3839C407.235 80.1706 407.497 80.0639 407.827 80.0639C408.158 80.0639 408.419 80.1706 408.611 80.3839C408.803 80.5973 408.899 80.8479 408.899 81.1359Z" fill="#5B5854"/>
<path d="M410.101 83.5519C410.218 83.6053 410.368 83.6533 410.549 83.6959C410.741 83.7493 410.928 83.7759 411.109 83.7759C411.696 83.7759 412.154 83.6426 412.485 83.3759C412.816 83.1199 413.114 82.6986 413.381 82.1119C412.709 80.8319 412.08 79.4773 411.493 78.0479C410.917 76.6079 410.437 75.1519 410.053 73.6799H411.653C411.77 74.1599 411.909 74.6773 412.069 75.2319C412.24 75.7866 412.426 76.3573 412.629 76.9439C412.832 77.5306 413.05 78.1173 413.285 78.7039C413.52 79.2906 413.765 79.8559 414.021 80.3999C414.426 79.2799 414.778 78.1706 415.077 77.0719C415.376 75.9733 415.658 74.8426 415.925 73.6799H417.461C417.077 75.2479 416.65 76.7573 416.181 78.2079C415.712 79.6479 415.205 80.9973 414.661 82.2559C414.448 82.7359 414.224 83.1466 413.989 83.4879C413.765 83.8399 413.514 84.1279 413.237 84.3519C412.96 84.5759 412.645 84.7413 412.293 84.8479C411.952 84.9546 411.562 85.0079 411.125 85.0079C411.008 85.0079 410.885 84.9973 410.757 84.9759C410.629 84.9653 410.501 84.9439 410.373 84.9119C410.256 84.8906 410.144 84.8639 410.037 84.8319C409.941 84.7999 409.872 84.7733 409.829 84.7519L410.101 83.5519Z" fill="#5B5854"/>
<path d="M426.374 77.8399C426.374 78.5013 426.278 79.0986 426.086 79.6319C425.894 80.1653 425.622 80.6239 425.27 81.0079C424.929 81.3919 424.518 81.6906 424.038 81.9039C423.558 82.1066 423.035 82.2079 422.47 82.2079C421.905 82.2079 421.382 82.1066 420.902 81.9039C420.422 81.6906 420.006 81.3919 419.654 81.0079C419.313 80.6239 419.046 80.1653 418.854 79.6319C418.662 79.0986 418.566 78.5013 418.566 77.8399C418.566 77.1893 418.662 76.5973 418.854 76.0639C419.046 75.5199 419.313 75.0559 419.654 74.6719C420.006 74.2879 420.422 73.9946 420.902 73.7919C421.382 73.5786 421.905 73.4719 422.47 73.4719C423.035 73.4719 423.558 73.5786 424.038 73.7919C424.518 73.9946 424.929 74.2879 425.27 74.6719C425.622 75.0559 425.894 75.5199 426.086 76.0639C426.278 76.5973 426.374 77.1893 426.374 77.8399ZM424.822 77.8399C424.822 76.9013 424.609 76.1599 424.182 75.6159C423.766 75.0613 423.195 74.7839 422.47 74.7839C421.745 74.7839 421.169 75.0613 420.742 75.6159C420.326 76.1599 420.118 76.9013 420.118 77.8399C420.118 78.7786 420.326 79.5253 420.742 80.0799C421.169 80.6239 421.745 80.8959 422.47 80.8959C423.195 80.8959 423.766 80.6239 424.182 80.0799C424.609 79.5253 424.822 78.7786 424.822 77.8399Z" fill="#5B5854"/>
<path d="M435.091 81.7599C434.75 81.8453 434.297 81.9359 433.731 82.0319C433.177 82.1279 432.531 82.1759 431.795 82.1759C431.155 82.1759 430.617 82.0853 430.179 81.9039C429.742 81.7119 429.39 81.4453 429.123 81.1039C428.857 80.7626 428.665 80.3626 428.547 79.9039C428.43 79.4346 428.371 78.9173 428.371 78.3519V73.6799H429.859V78.0319C429.859 79.0453 430.019 79.7706 430.339 80.2079C430.659 80.6453 431.198 80.8639 431.955 80.8639C432.115 80.8639 432.281 80.8586 432.451 80.8479C432.622 80.8373 432.782 80.8266 432.931 80.8159C433.081 80.7946 433.214 80.7786 433.331 80.7679C433.459 80.7466 433.55 80.7253 433.603 80.7039V73.6799H435.091V81.7599Z" fill="#5B5854"/>
<path d="M439.047 73.6799H442.199V74.9279H439.047V78.7679C439.047 79.1839 439.079 79.5306 439.143 79.8079C439.207 80.0746 439.303 80.2879 439.431 80.4479C439.559 80.5973 439.719 80.7039 439.911 80.7679C440.103 80.8319 440.327 80.8639 440.583 80.8639C441.031 80.8639 441.388 80.8159 441.655 80.7199C441.932 80.6133 442.124 80.5386 442.231 80.4959L442.519 81.7279C442.37 81.8026 442.108 81.8933 441.735 81.9999C441.362 82.1173 440.935 82.1759 440.455 82.1759C439.89 82.1759 439.42 82.1066 439.047 81.9679C438.684 81.8186 438.391 81.5999 438.167 81.3119C437.943 81.0239 437.783 80.6719 437.687 80.2559C437.602 79.8293 437.559 79.3386 437.559 78.7839V71.3599L439.047 71.1039V73.6799Z" fill="#5B5854"/>
<path d="M450.716 81.7599C450.375 81.8453 449.922 81.9359 449.356 82.0319C448.802 82.1279 448.156 82.1759 447.42 82.1759C446.78 82.1759 446.242 82.0853 445.804 81.9039C445.367 81.7119 445.015 81.4453 444.748 81.1039C444.482 80.7626 444.29 80.3626 444.172 79.9039C444.055 79.4346 443.996 78.9173 443.996 78.3519V73.6799H445.484V78.0319C445.484 79.0453 445.644 79.7706 445.964 80.2079C446.284 80.6453 446.823 80.8639 447.58 80.8639C447.74 80.8639 447.906 80.8586 448.076 80.8479C448.247 80.8373 448.407 80.8266 448.556 80.8159C448.706 80.7946 448.839 80.7786 448.956 80.7679C449.084 80.7466 449.175 80.7253 449.228 80.7039V73.6799H450.716V81.7599Z" fill="#5B5854"/>
<path d="M454.768 74.0479C454.949 73.9306 455.221 73.8079 455.584 73.6799C455.957 73.5519 456.384 73.4879 456.864 73.4879C457.461 73.4879 457.989 73.5946 458.448 73.8079C458.917 74.0213 459.312 74.3199 459.632 74.7039C459.952 75.0879 460.192 75.5466 460.352 76.0799C460.523 76.6133 460.608 77.1999 460.608 77.8399C460.608 78.5119 460.507 79.1199 460.304 79.6639C460.112 80.1973 459.835 80.6506 459.472 81.0239C459.109 81.3973 458.672 81.6853 458.16 81.8879C457.648 82.0906 457.072 82.1919 456.432 82.1919C455.739 82.1919 455.125 82.1439 454.592 82.0479C454.059 81.9519 453.621 81.8559 453.28 81.7599V69.8399L454.768 69.5839V74.0479ZM454.768 80.7039C454.917 80.7466 455.125 80.7893 455.392 80.8319C455.669 80.8639 456.011 80.8799 456.416 80.8799C457.216 80.8799 457.856 80.6186 458.336 80.0959C458.816 79.5626 459.056 78.8106 459.056 77.8399C459.056 77.4133 459.013 77.0133 458.928 76.6399C458.843 76.2666 458.704 75.9466 458.512 75.6799C458.32 75.4026 458.069 75.1893 457.76 75.0399C457.461 74.8799 457.099 74.7999 456.672 74.7999C456.267 74.7999 455.893 74.8693 455.552 75.0079C455.211 75.1466 454.949 75.2906 454.768 75.4399V80.7039Z" fill="#5B5854"/>
<path d="M462.238 77.8559C462.238 77.1199 462.345 76.4799 462.558 75.9359C462.771 75.3813 463.054 74.9226 463.406 74.5599C463.758 74.1973 464.163 73.9253 464.622 73.7439C465.081 73.5626 465.55 73.4719 466.03 73.4719C467.15 73.4719 468.009 73.8239 468.606 74.5279C469.203 75.2213 469.502 76.2826 469.502 77.7119C469.502 77.7759 469.502 77.8613 469.502 77.9679C469.502 78.0639 469.497 78.1546 469.486 78.2399H463.79C463.854 79.1039 464.105 79.7599 464.542 80.2079C464.979 80.6559 465.662 80.8799 466.59 80.8799C467.113 80.8799 467.55 80.8373 467.902 80.7519C468.265 80.6559 468.537 80.5653 468.718 80.4799L468.926 81.7279C468.745 81.8239 468.425 81.9253 467.966 82.0319C467.518 82.1386 467.006 82.1919 466.43 82.1919C465.705 82.1919 465.075 82.0853 464.542 81.8719C464.019 81.6479 463.587 81.3439 463.246 80.9599C462.905 80.5759 462.649 80.1226 462.478 79.5999C462.318 79.0666 462.238 78.4853 462.238 77.8559ZM467.95 77.0399C467.961 76.3679 467.79 75.8186 467.438 75.3919C467.097 74.9546 466.622 74.7359 466.014 74.7359C465.673 74.7359 465.369 74.8053 465.102 74.9439C464.846 75.0719 464.627 75.2426 464.446 75.4559C464.265 75.6693 464.121 75.9146 464.014 76.1919C463.918 76.4693 463.854 76.7519 463.822 77.0399H467.95Z" fill="#5B5854"/>
<path d="M473.399 81.1359C473.399 81.4239 473.303 81.6746 473.111 81.8879C472.919 82.1013 472.658 82.2079 472.327 82.2079C471.997 82.2079 471.735 82.1013 471.543 81.8879C471.351 81.6746 471.255 81.4239 471.255 81.1359C471.255 80.8479 471.351 80.5973 471.543 80.3839C471.735 80.1706 471.997 80.0639 472.327 80.0639C472.658 80.0639 472.919 80.1706 473.111 80.3839C473.303 80.5973 473.399 80.8479 473.399 81.1359Z" fill="#5B5854"/>
<path d="M479.193 82.1919C478.521 82.1919 477.929 82.0853 477.417 81.8719C476.916 81.6586 476.489 81.3599 476.137 80.9759C475.796 80.5919 475.54 80.1386 475.369 79.6159C475.198 79.0826 475.113 78.4959 475.113 77.8559C475.113 77.2159 475.204 76.6293 475.385 76.0959C475.577 75.5626 475.844 75.1039 476.185 74.7199C476.526 74.3253 476.942 74.0213 477.433 73.8079C477.934 73.5839 478.489 73.4719 479.097 73.4719C479.47 73.4719 479.844 73.5039 480.217 73.5679C480.59 73.6319 480.948 73.7333 481.289 73.8719L480.953 75.1359C480.729 75.0293 480.468 74.9439 480.169 74.8799C479.881 74.8159 479.572 74.7839 479.241 74.7839C478.409 74.7839 477.769 75.0453 477.321 75.5679C476.884 76.0906 476.665 76.8533 476.665 77.8559C476.665 78.3039 476.713 78.7146 476.809 79.0879C476.916 79.4613 477.076 79.7813 477.289 80.0479C477.513 80.3146 477.796 80.5226 478.137 80.6719C478.478 80.8106 478.894 80.8799 479.385 80.8799C479.78 80.8799 480.137 80.8426 480.457 80.7679C480.777 80.6933 481.028 80.6133 481.209 80.5279L481.417 81.7759C481.332 81.8293 481.209 81.8826 481.049 81.9359C480.889 81.9786 480.708 82.0159 480.505 82.0479C480.302 82.0906 480.084 82.1226 479.849 82.1439C479.625 82.1759 479.406 82.1919 479.193 82.1919Z" fill="#5B5854"/>
<path d="M490.155 77.8399C490.155 78.5013 490.059 79.0986 489.867 79.6319C489.675 80.1653 489.403 80.6239 489.051 81.0079C488.71 81.3919 488.299 81.6906 487.819 81.9039C487.339 82.1066 486.817 82.2079 486.251 82.2079C485.686 82.2079 485.163 82.1066 484.683 81.9039C484.203 81.6906 483.787 81.3919 483.435 81.0079C483.094 80.6239 482.827 80.1653 482.635 79.6319C482.443 79.0986 482.347 78.5013 482.347 77.8399C482.347 77.1893 482.443 76.5973 482.635 76.0639C482.827 75.5199 483.094 75.0559 483.435 74.6719C483.787 74.2879 484.203 73.9946 484.683 73.7919C485.163 73.5786 485.686 73.4719 486.251 73.4719C486.817 73.4719 487.339 73.5786 487.819 73.7919C488.299 73.9946 488.71 74.2879 489.051 74.6719C489.403 75.0559 489.675 75.5199 489.867 76.0639C490.059 76.5973 490.155 77.1893 490.155 77.8399ZM488.603 77.8399C488.603 76.9013 488.39 76.1599 487.963 75.6159C487.547 75.0613 486.977 74.7839 486.251 74.7839C485.526 74.7839 484.95 75.0613 484.523 75.6159C484.107 76.1599 483.899 76.9013 483.899 77.8399C483.899 78.7786 484.107 79.5253 484.523 80.0799C484.95 80.6239 485.526 80.8959 486.251 80.8959C486.977 80.8959 487.547 80.6239 487.963 80.0799C488.39 79.5253 488.603 78.7786 488.603 77.8399Z" fill="#5B5854"/>
<path d="M492.249 73.9199C492.59 73.8346 493.038 73.7439 493.593 73.6479C494.158 73.5519 494.809 73.5039 495.545 73.5039C496.078 73.5039 496.526 73.5786 496.889 73.7279C497.251 73.8666 497.555 74.0746 497.801 74.3519C497.875 74.2986 497.993 74.2239 498.153 74.1279C498.313 74.0319 498.51 73.9413 498.745 73.8559C498.979 73.7599 499.241 73.6799 499.529 73.6159C499.817 73.5413 500.126 73.5039 500.457 73.5039C501.097 73.5039 501.619 73.5999 502.025 73.7919C502.43 73.9733 502.745 74.2346 502.969 74.5759C503.203 74.9173 503.358 75.3226 503.433 75.7919C503.518 76.2613 503.561 76.7733 503.561 77.3279V81.9999H502.073V77.6479C502.073 77.1573 502.046 76.7359 501.993 76.3839C501.95 76.0319 501.859 75.7386 501.721 75.5039C501.593 75.2693 501.411 75.0986 501.177 74.9919C500.953 74.8746 500.659 74.8159 500.297 74.8159C499.795 74.8159 499.379 74.8853 499.049 75.0239C498.729 75.1519 498.51 75.2693 498.393 75.3759C498.478 75.6533 498.542 75.9573 498.585 76.2879C498.627 76.6186 498.649 76.9653 498.649 77.3279V81.9999H497.161V77.6479C497.161 77.1573 497.134 76.7359 497.081 76.3839C497.027 76.0319 496.931 75.7386 496.793 75.5039C496.665 75.2693 496.483 75.0986 496.249 74.9919C496.025 74.8746 495.737 74.8159 495.385 74.8159C495.235 74.8159 495.075 74.8213 494.905 74.8319C494.734 74.8426 494.569 74.8586 494.409 74.8799C494.259 74.8906 494.121 74.9066 493.993 74.9279C493.865 74.9493 493.779 74.9653 493.737 74.9759V81.9999H492.249V73.9199Z" fill="#5B5854"/>
<path d="M505.886 84.9599H504.366L509.79 69.4719H511.278L505.886 84.9599Z" fill="#5B5854"/>
<path d="M238.293 147.293C237.902 147.683 237.902 148.317 238.293 148.707L244.657 155.071C245.047 155.462 245.681 155.462 246.071 155.071C246.462 154.681 246.462 154.047 246.071 153.657L240.414 148L246.071 142.343C246.462 141.953 246.462 141.319 246.071 140.929C245.681 140.538 245.047 140.538 244.657 140.929L238.293 147.293ZM239 149H536V147H239V149Z" fill="#FAA033"/>
<path d="M310.354 126.912V128.256H306.866V138H305.314V128.256H301.826V126.912H310.354Z" fill="#5B5854"/>
<path d="M313.994 136.928C314.346 136.928 314.656 136.923 314.922 136.912C315.2 136.891 315.429 136.859 315.61 136.816V134.336C315.504 134.283 315.328 134.24 315.082 134.208C314.848 134.165 314.56 134.144 314.218 134.144C313.994 134.144 313.754 134.16 313.498 134.192C313.253 134.224 313.024 134.293 312.81 134.4C312.608 134.496 312.437 134.635 312.298 134.816C312.16 134.987 312.09 135.216 312.09 135.504C312.09 136.037 312.261 136.411 312.602 136.624C312.944 136.827 313.408 136.928 313.994 136.928ZM313.866 129.472C314.464 129.472 314.965 129.552 315.37 129.712C315.786 129.861 316.117 130.08 316.362 130.368C316.618 130.645 316.8 130.981 316.906 131.376C317.013 131.76 317.066 132.187 317.066 132.656V137.856C316.938 137.877 316.757 137.909 316.522 137.952C316.298 137.984 316.042 138.016 315.754 138.048C315.466 138.08 315.152 138.107 314.81 138.128C314.48 138.16 314.149 138.176 313.818 138.176C313.349 138.176 312.917 138.128 312.522 138.032C312.128 137.936 311.786 137.787 311.498 137.584C311.21 137.371 310.986 137.093 310.826 136.752C310.666 136.411 310.586 136 310.586 135.52C310.586 135.061 310.677 134.667 310.858 134.336C311.05 134.005 311.306 133.739 311.626 133.536C311.946 133.333 312.32 133.184 312.746 133.088C313.173 132.992 313.621 132.944 314.09 132.944C314.24 132.944 314.394 132.955 314.554 132.976C314.714 132.987 314.864 133.008 315.002 133.04C315.152 133.061 315.28 133.083 315.386 133.104C315.493 133.125 315.568 133.141 315.61 133.152V132.736C315.61 132.491 315.584 132.251 315.53 132.016C315.477 131.771 315.381 131.557 315.242 131.376C315.104 131.184 314.912 131.035 314.666 130.928C314.432 130.811 314.122 130.752 313.738 130.752C313.248 130.752 312.816 130.789 312.442 130.864C312.08 130.928 311.808 130.997 311.626 131.072L311.45 129.84C311.642 129.755 311.962 129.675 312.41 129.6C312.858 129.515 313.344 129.472 313.866 129.472Z" fill="#5B5854"/>
<path d="M324.914 131.44C324.732 131.291 324.471 131.147 324.13 131.008C323.788 130.869 323.415 130.8 323.01 130.8C322.583 130.8 322.215 130.88 321.906 131.04C321.607 131.189 321.362 131.403 321.17 131.68C320.978 131.947 320.839 132.267 320.754 132.64C320.668 133.013 320.626 133.413 320.626 133.84C320.626 134.811 320.866 135.563 321.346 136.096C321.826 136.619 322.466 136.88 323.266 136.88C323.671 136.88 324.007 136.864 324.274 136.832C324.551 136.789 324.764 136.747 324.914 136.704V131.44ZM324.914 125.84L326.402 125.584V137.76C326.06 137.856 325.623 137.952 325.09 138.048C324.556 138.144 323.943 138.192 323.25 138.192C322.61 138.192 322.034 138.091 321.522 137.888C321.01 137.685 320.572 137.397 320.21 137.024C319.847 136.651 319.564 136.197 319.362 135.664C319.17 135.12 319.074 134.512 319.074 133.84C319.074 133.2 319.154 132.613 319.314 132.08C319.484 131.547 319.73 131.088 320.05 130.704C320.37 130.32 320.759 130.021 321.218 129.808C321.687 129.595 322.22 129.488 322.818 129.488C323.298 129.488 323.719 129.552 324.082 129.68C324.455 129.808 324.732 129.931 324.914 130.048V125.84Z" fill="#5B5854"/>
<path d="M327.984 139.552C328.101 139.605 328.25 139.653 328.432 139.696C328.624 139.749 328.81 139.776 328.992 139.776C329.578 139.776 330.037 139.643 330.368 139.376C330.698 139.12 330.997 138.699 331.264 138.112C330.592 136.832 329.962 135.477 329.376 134.048C328.8 132.608 328.32 131.152 327.936 129.68H329.536C329.653 130.16 329.792 130.677 329.952 131.232C330.122 131.787 330.309 132.357 330.512 132.944C330.714 133.531 330.933 134.117 331.168 134.704C331.402 135.291 331.648 135.856 331.904 136.4C332.309 135.28 332.661 134.171 332.96 133.072C333.258 131.973 333.541 130.843 333.808 129.68H335.344C334.96 131.248 334.533 132.757 334.064 134.208C333.594 135.648 333.088 136.997 332.544 138.256C332.33 138.736 332.106 139.147 331.872 139.488C331.648 139.84 331.397 140.128 331.12 140.352C330.842 140.576 330.528 140.741 330.176 140.848C329.834 140.955 329.445 141.008 329.008 141.008C328.89 141.008 328.768 140.997 328.64 140.976C328.512 140.965 328.384 140.944 328.256 140.912C328.138 140.891 328.026 140.864 327.92 140.832C327.824 140.8 327.754 140.773 327.712 140.752L327.984 139.552Z" fill="#5B5854"/>
<path d="M340.616 129.92C340.957 129.835 341.405 129.744 341.96 129.648C342.525 129.552 343.176 129.504 343.912 129.504C344.445 129.504 344.893 129.579 345.256 129.728C345.619 129.867 345.923 130.075 346.168 130.352C346.243 130.299 346.36 130.224 346.52 130.128C346.68 130.032 346.877 129.941 347.112 129.856C347.347 129.76 347.608 129.68 347.896 129.616C348.184 129.541 348.493 129.504 348.824 129.504C349.464 129.504 349.987 129.6 350.392 129.792C350.797 129.973 351.112 130.235 351.336 130.576C351.571 130.917 351.725 131.323 351.8 131.792C351.885 132.261 351.928 132.773 351.928 133.328V138H350.44V133.648C350.44 133.157 350.413 132.736 350.36 132.384C350.317 132.032 350.227 131.739 350.088 131.504C349.96 131.269 349.779 131.099 349.544 130.992C349.32 130.875 349.027 130.816 348.664 130.816C348.163 130.816 347.747 130.885 347.416 131.024C347.096 131.152 346.877 131.269 346.76 131.376C346.845 131.653 346.909 131.957 346.952 132.288C346.995 132.619 347.016 132.965 347.016 133.328V138H345.528V133.648C345.528 133.157 345.501 132.736 345.448 132.384C345.395 132.032 345.299 131.739 345.16 131.504C345.032 131.269 344.851 131.099 344.616 130.992C344.392 130.875 344.104 130.816 343.752 130.816C343.603 130.816 343.443 130.821 343.272 130.832C343.101 130.843 342.936 130.859 342.776 130.88C342.627 130.891 342.488 130.907 342.36 130.928C342.232 130.949 342.147 130.965 342.104 130.976V138H340.616V129.92Z" fill="#5B5854"/>
<path d="M357.213 136.928C357.565 136.928 357.875 136.923 358.141 136.912C358.419 136.891 358.648 136.859 358.829 136.816V134.336C358.723 134.283 358.547 134.24 358.301 134.208C358.067 134.165 357.779 134.144 357.437 134.144C357.213 134.144 356.973 134.16 356.717 134.192C356.472 134.224 356.243 134.293 356.029 134.4C355.827 134.496 355.656 134.635 355.517 134.816C355.379 134.987 355.309 135.216 355.309 135.504C355.309 136.037 355.48 136.411 355.821 136.624C356.163 136.827 356.627 136.928 357.213 136.928ZM357.085 129.472C357.683 129.472 358.184 129.552 358.589 129.712C359.005 129.861 359.336 130.08 359.581 130.368C359.837 130.645 360.019 130.981 360.125 131.376C360.232 131.76 360.285 132.187 360.285 132.656V137.856C360.157 137.877 359.976 137.909 359.741 137.952C359.517 137.984 359.261 138.016 358.973 138.048C358.685 138.08 358.371 138.107 358.029 138.128C357.699 138.16 357.368 138.176 357.037 138.176C356.568 138.176 356.136 138.128 355.741 138.032C355.347 137.936 355.005 137.787 354.717 137.584C354.429 137.371 354.205 137.093 354.045 136.752C353.885 136.411 353.805 136 353.805 135.52C353.805 135.061 353.896 134.667 354.077 134.336C354.269 134.005 354.525 133.739 354.845 133.536C355.165 133.333 355.539 133.184 355.965 133.088C356.392 132.992 356.84 132.944 357.309 132.944C357.459 132.944 357.613 132.955 357.773 132.976C357.933 132.987 358.083 133.008 358.221 133.04C358.371 133.061 358.499 133.083 358.605 133.104C358.712 133.125 358.787 133.141 358.829 133.152V132.736C358.829 132.491 358.803 132.251 358.749 132.016C358.696 131.771 358.6 131.557 358.461 131.376C358.323 131.184 358.131 131.035 357.885 130.928C357.651 130.811 357.341 130.752 356.957 130.752C356.467 130.752 356.035 130.789 355.661 130.864C355.299 130.928 355.027 130.997 354.845 131.072L354.669 129.84C354.861 129.755 355.181 129.675 355.629 129.6C356.077 129.515 356.563 129.472 357.085 129.472ZM359.261 126.528L357.005 128.72L356.253 128.048L358.301 125.584L359.261 126.528Z" fill="#5B5854"/>
<path d="M364.693 136.928C365.301 136.928 365.749 136.848 366.037 136.688C366.335 136.528 366.485 136.272 366.485 135.92C366.485 135.557 366.341 135.269 366.053 135.056C365.765 134.843 365.29 134.603 364.629 134.336C364.309 134.208 363.999 134.08 363.701 133.952C363.413 133.813 363.162 133.653 362.949 133.472C362.735 133.291 362.565 133.072 362.437 132.816C362.309 132.56 362.245 132.245 362.245 131.872C362.245 131.136 362.517 130.555 363.061 130.128C363.605 129.691 364.346 129.472 365.285 129.472C365.519 129.472 365.754 129.488 365.989 129.52C366.223 129.541 366.442 129.573 366.645 129.616C366.847 129.648 367.023 129.685 367.173 129.728C367.333 129.771 367.455 129.808 367.541 129.84L367.269 131.12C367.109 131.035 366.858 130.949 366.517 130.864C366.175 130.768 365.765 130.72 365.285 130.72C364.869 130.72 364.506 130.805 364.197 130.976C363.887 131.136 363.733 131.392 363.733 131.744C363.733 131.925 363.765 132.085 363.829 132.224C363.903 132.363 364.01 132.491 364.149 132.608C364.298 132.715 364.479 132.816 364.693 132.912C364.906 133.008 365.162 133.109 365.461 133.216C365.855 133.365 366.207 133.515 366.517 133.664C366.826 133.803 367.087 133.968 367.301 134.16C367.525 134.352 367.695 134.587 367.813 134.864C367.93 135.131 367.989 135.461 367.989 135.856C367.989 136.624 367.701 137.205 367.125 137.6C366.559 137.995 365.749 138.192 364.693 138.192C363.957 138.192 363.381 138.128 362.965 138C362.549 137.883 362.266 137.792 362.117 137.728L362.389 136.448C362.559 136.512 362.831 136.608 363.205 136.736C363.578 136.864 364.074 136.928 364.693 136.928ZM362.869 126.336L363.493 125.632L365.045 127.04L366.597 125.632L367.221 126.336L365.045 128.624L362.869 126.336Z" fill="#5B5854"/>
<path d="M380.672 126.912H382.224V138H380.672V132.88H375.248V138H373.696V126.912H375.248V131.536H380.672V126.912Z" fill="#5B5854"/>
<path d="M392.386 126.912V128.256H388.898V138H387.346V128.256H383.858V126.912H392.386Z" fill="#5B5854"/>
<path d="M399 136.464C398.894 136.208 398.75 135.883 398.568 135.488C398.398 135.093 398.211 134.667 398.008 134.208C397.806 133.749 397.587 133.28 397.352 132.8C397.128 132.309 396.915 131.851 396.712 131.424C396.51 130.987 396.318 130.597 396.136 130.256C395.966 129.915 395.827 129.653 395.72 129.472C395.603 130.731 395.507 132.096 395.432 133.568C395.358 135.029 395.294 136.507 395.24 138H393.72C393.763 137.04 393.811 136.075 393.864 135.104C393.918 134.123 393.976 133.163 394.04 132.224C394.115 131.275 394.19 130.352 394.264 129.456C394.35 128.56 394.44 127.712 394.536 126.912H395.896C396.184 127.381 396.494 127.936 396.824 128.576C397.155 129.216 397.486 129.888 397.816 130.592C398.147 131.285 398.467 131.984 398.776 132.688C399.086 133.381 399.368 134.016 399.624 134.592C399.88 134.016 400.163 133.381 400.472 132.688C400.782 131.984 401.102 131.285 401.432 130.592C401.763 129.888 402.094 129.216 402.424 128.576C402.755 127.936 403.064 127.381 403.352 126.912H404.712C405.075 130.485 405.347 134.181 405.528 138H404.008C403.955 136.507 403.891 135.029 403.816 133.568C403.742 132.096 403.646 130.731 403.528 129.472C403.422 129.653 403.278 129.915 403.096 130.256C402.926 130.597 402.739 130.987 402.536 131.424C402.334 131.851 402.115 132.309 401.88 132.8C401.656 133.28 401.443 133.749 401.24 134.208C401.038 134.667 400.846 135.093 400.664 135.488C400.494 135.883 400.355 136.208 400.248 136.464H399Z" fill="#5B5854"/>
<path d="M414.634 136.656V138H407.962V126.912H409.514V136.656H414.634Z" fill="#5B5854"/>
<path d="M421.802 136.928C422.41 136.928 422.858 136.848 423.146 136.688C423.445 136.528 423.594 136.272 423.594 135.92C423.594 135.557 423.45 135.269 423.162 135.056C422.874 134.843 422.399 134.603 421.738 134.336C421.418 134.208 421.109 134.08 420.81 133.952C420.522 133.813 420.271 133.653 420.058 133.472C419.845 133.291 419.674 133.072 419.546 132.816C419.418 132.56 419.354 132.245 419.354 131.872C419.354 131.136 419.626 130.555 420.17 130.128C420.714 129.691 421.455 129.472 422.394 129.472C422.629 129.472 422.863 129.488 423.098 129.52C423.333 129.541 423.551 129.573 423.754 129.616C423.957 129.648 424.133 129.685 424.282 129.728C424.442 129.771 424.565 129.808 424.65 129.84L424.378 131.12C424.218 131.035 423.967 130.949 423.626 130.864C423.285 130.768 422.874 130.72 422.394 130.72C421.978 130.72 421.615 130.805 421.306 130.976C420.997 131.136 420.842 131.392 420.842 131.744C420.842 131.925 420.874 132.085 420.938 132.224C421.013 132.363 421.119 132.491 421.258 132.608C421.407 132.715 421.589 132.816 421.802 132.912C422.015 133.008 422.271 133.109 422.57 133.216C422.965 133.365 423.317 133.515 423.626 133.664C423.935 133.803 424.197 133.968 424.41 134.16C424.634 134.352 424.805 134.587 424.922 134.864C425.039 135.131 425.098 135.461 425.098 135.856C425.098 136.624 424.81 137.205 424.234 137.6C423.669 137.995 422.858 138.192 421.802 138.192C421.066 138.192 420.49 138.128 420.074 138C419.658 137.883 419.375 137.792 419.226 137.728L419.498 136.448C419.669 136.512 419.941 136.608 420.314 136.736C420.687 136.864 421.183 136.928 421.802 136.928Z" fill="#5B5854"/>
<path d="M428.399 129.68H431.551V130.928H428.399V134.768C428.399 135.184 428.431 135.531 428.495 135.808C428.559 136.075 428.655 136.288 428.783 136.448C428.911 136.597 429.071 136.704 429.263 136.768C429.455 136.832 429.679 136.864 429.935 136.864C430.383 136.864 430.74 136.816 431.007 136.72C431.284 136.613 431.476 136.539 431.583 136.496L431.871 137.728C431.721 137.803 431.46 137.893 431.087 138C430.713 138.117 430.287 138.176 429.807 138.176C429.241 138.176 428.772 138.107 428.399 137.968C428.036 137.819 427.743 137.6 427.519 137.312C427.295 137.024 427.135 136.672 427.039 136.256C426.953 135.829 426.911 135.339 426.911 134.784V127.36L428.399 127.104V129.68Z" fill="#5B5854"/>
<path d="M436.516 129.504C436.644 129.504 436.788 129.515 436.948 129.536C437.119 129.547 437.284 129.568 437.444 129.6C437.604 129.621 437.748 129.648 437.876 129.68C438.015 129.701 438.116 129.723 438.18 129.744L437.924 131.04C437.807 130.997 437.609 130.949 437.332 130.896C437.065 130.832 436.719 130.8 436.292 130.8C436.015 130.8 435.737 130.832 435.46 130.896C435.193 130.949 435.017 130.987 434.932 131.008V138H433.444V130.032C433.796 129.904 434.233 129.787 434.756 129.68C435.279 129.563 435.865 129.504 436.516 129.504Z" fill="#5B5854"/>
<path d="M442.432 136.928C442.784 136.928 443.093 136.923 443.36 136.912C443.637 136.891 443.867 136.859 444.048 136.816V134.336C443.941 134.283 443.765 134.24 443.52 134.208C443.285 134.165 442.997 134.144 442.656 134.144C442.432 134.144 442.192 134.16 441.936 134.192C441.691 134.224 441.461 134.293 441.248 134.4C441.045 134.496 440.875 134.635 440.736 134.816C440.597 134.987 440.528 135.216 440.528 135.504C440.528 136.037 440.699 136.411 441.04 136.624C441.381 136.827 441.845 136.928 442.432 136.928ZM442.304 129.472C442.901 129.472 443.403 129.552 443.808 129.712C444.224 129.861 444.555 130.08 444.8 130.368C445.056 130.645 445.237 130.981 445.344 131.376C445.451 131.76 445.504 132.187 445.504 132.656V137.856C445.376 137.877 445.195 137.909 444.96 137.952C444.736 137.984 444.48 138.016 444.192 138.048C443.904 138.08 443.589 138.107 443.248 138.128C442.917 138.16 442.587 138.176 442.256 138.176C441.787 138.176 441.355 138.128 440.96 138.032C440.565 137.936 440.224 137.787 439.936 137.584C439.648 137.371 439.424 137.093 439.264 136.752C439.104 136.411 439.024 136 439.024 135.52C439.024 135.061 439.115 134.667 439.296 134.336C439.488 134.005 439.744 133.739 440.064 133.536C440.384 133.333 440.757 133.184 441.184 133.088C441.611 132.992 442.059 132.944 442.528 132.944C442.677 132.944 442.832 132.955 442.992 132.976C443.152 132.987 443.301 133.008 443.44 133.04C443.589 133.061 443.717 133.083 443.824 133.104C443.931 133.125 444.005 133.141 444.048 133.152V132.736C444.048 132.491 444.021 132.251 443.968 132.016C443.915 131.771 443.819 131.557 443.68 131.376C443.541 131.184 443.349 131.035 443.104 130.928C442.869 130.811 442.56 130.752 442.176 130.752C441.685 130.752 441.253 130.789 440.88 130.864C440.517 130.928 440.245 130.997 440.064 131.072L439.888 129.84C440.08 129.755 440.4 129.675 440.848 129.6C441.296 129.515 441.781 129.472 442.304 129.472ZM444.48 126.528L442.224 128.72L441.472 128.048L443.52 125.584L444.48 126.528Z" fill="#5B5854"/>
<path d="M447.975 129.92C448.317 129.835 448.77 129.744 449.335 129.648C449.901 129.552 450.551 129.504 451.287 129.504C451.949 129.504 452.498 129.6 452.935 129.792C453.373 129.973 453.719 130.235 453.975 130.576C454.242 130.907 454.429 131.307 454.535 131.776C454.642 132.245 454.695 132.763 454.695 133.328V138H453.207V133.648C453.207 133.136 453.17 132.699 453.095 132.336C453.031 131.973 452.919 131.68 452.759 131.456C452.599 131.232 452.386 131.072 452.119 130.976C451.853 130.869 451.522 130.816 451.127 130.816C450.967 130.816 450.802 130.821 450.631 130.832C450.461 130.843 450.295 130.859 450.135 130.88C449.986 130.891 449.847 130.907 449.719 130.928C449.602 130.949 449.517 130.965 449.463 130.976V138H447.975V129.92Z" fill="#5B5854"/>
<path d="M460.171 133.424C460.491 133.669 460.827 133.973 461.179 134.336C461.541 134.699 461.893 135.093 462.235 135.52C462.587 135.936 462.917 136.363 463.227 136.8C463.536 137.227 463.797 137.627 464.011 138H462.267C462.043 137.627 461.781 137.248 461.483 136.864C461.195 136.469 460.891 136.096 460.571 135.744C460.251 135.381 459.925 135.051 459.595 134.752C459.264 134.453 458.949 134.203 458.651 134V138H457.163V125.84L458.651 125.584V133.168C458.907 132.912 459.189 132.629 459.499 132.32C459.808 132.011 460.112 131.696 460.411 131.376C460.709 131.056 460.992 130.752 461.259 130.464C461.525 130.165 461.755 129.904 461.947 129.68H463.691C463.445 129.947 463.179 130.24 462.891 130.56C462.603 130.88 462.304 131.205 461.995 131.536C461.685 131.856 461.371 132.181 461.051 132.512C460.741 132.832 460.448 133.136 460.171 133.424Z" fill="#5B5854"/>
<path d="M472.146 137.76C471.805 137.845 471.351 137.936 470.786 138.032C470.231 138.128 469.586 138.176 468.85 138.176C468.21 138.176 467.672 138.085 467.234 137.904C466.797 137.712 466.445 137.445 466.178 137.104C465.911 136.763 465.72 136.363 465.602 135.904C465.485 135.435 465.426 134.917 465.426 134.352V129.68H466.914V134.032C466.914 135.045 467.074 135.771 467.394 136.208C467.714 136.645 468.253 136.864 469.01 136.864C469.17 136.864 469.335 136.859 469.506 136.848C469.677 136.837 469.837 136.827 469.986 136.816C470.136 136.795 470.269 136.779 470.386 136.768C470.514 136.747 470.605 136.725 470.658 136.704V129.68H472.146V137.76Z" fill="#5B5854"/>
<g clip-path="url(#clip1_190_828)">
<path d="M714.519 173.571V5.14282L589.481 5.14282V173.571H714.519Z" fill="#2F2E41"/>
<path d="M736 0H568V66.8571H736V0Z" fill="#3F3D56"/>
<path d="M736 74.5715H568V141.429H736V74.5715Z" fill="#3F3D56"/>
<path d="M736 149.143H568V216H736V149.143Z" fill="#3F3D56"/>
<path d="M736 28.3477H568V38.6334H736V28.3477Z" fill="#FAA033"/>
<path d="M736 102.919H568V113.205H736V102.919Z" fill="#FAA033"/>
<path d="M736 177.49H568V187.776H736V177.49Z" fill="#FAA033"/>
<path d="M703.298 13.4999C705.423 13.4999 707.145 11.773 707.145 9.64279C707.145 7.51255 705.423 5.78564 703.298 5.78564C701.173 5.78564 699.45 7.51255 699.45 9.64279C699.45 11.773 701.173 13.4999 703.298 13.4999Z" fill="#FAA033"/>
<path d="M716.763 13.4999C718.888 13.4999 720.611 11.773 720.611 9.64279C720.611 7.51255 718.888 5.78564 716.763 5.78564C714.639 5.78564 712.916 7.51255 712.916 9.64279C712.916 11.773 714.639 13.4999 716.763 13.4999Z" fill="#FAA033"/>
<path d="M730.229 13.4999C732.354 13.4999 734.076 11.773 734.076 9.64279C734.076 7.51255 732.354 5.78564 730.229 5.78564C728.104 5.78564 726.382 7.51255 726.382 9.64279C726.382 11.773 728.104 13.4999 730.229 13.4999Z" fill="#FAA033"/>
<path d="M703.298 86.7858C705.423 86.7858 707.145 85.0589 707.145 82.9287C707.145 80.7984 705.423 79.0715 703.298 79.0715C701.173 79.0715 699.45 80.7984 699.45 82.9287C699.45 85.0589 701.173 86.7858 703.298 86.7858Z" fill="#FAA033"/>
<path d="M716.763 86.7858C718.888 86.7858 720.611 85.0589 720.611 82.9287C720.611 80.7984 718.888 79.0715 716.763 79.0715C714.639 79.0715 712.916 80.7984 712.916 82.9287C712.916 85.0589 714.639 86.7858 716.763 86.7858Z" fill="#FAA033"/>
<path d="M730.229 86.7858C732.354 86.7858 734.076 85.0589 734.076 82.9287C734.076 80.7984 732.354 79.0715 730.229 79.0715C728.104 79.0715 726.382 80.7984 726.382 82.9287C726.382 85.0589 728.104 86.7858 730.229 86.7858Z" fill="#FAA033"/>
<path d="M703.298 160.071C705.423 160.071 707.145 158.345 707.145 156.214C707.145 154.084 705.423 152.357 703.298 152.357C701.173 152.357 699.45 154.084 699.45 156.214C699.45 158.345 701.173 160.071 703.298 160.071Z" fill="#FAA033"/>
<path d="M716.763 160.071C718.888 160.071 720.611 158.345 720.611 156.214C720.611 154.084 718.888 152.357 716.763 152.357C714.639 152.357 712.916 154.084 712.916 156.214C712.916 158.345 714.639 160.071 716.763 160.071Z" fill="#FAA033"/>
<path d="M730.229 160.071C732.354 160.071 734.076 158.345 734.076 156.214C734.076 154.084 732.354 152.357 730.229 152.357C728.104 152.357 726.382 154.084 726.382 156.214C726.382 158.345 728.104 160.071 730.229 160.071Z" fill="#FAA033"/>
</g>
</g>
<defs>
<clipPath id="clip0_190_828">
<rect width="736" height="216" fill="white"/>
</clipPath>
<clipPath id="clip1_190_828">
<rect width="168" height="216" fill="white" transform="translate(568)"/>
</clipPath>
</defs>
</svg>
