<svg xmlns="http://www.w3.org/2000/svg" xmlns:xlink="http://www.w3.org/1999/xlink"><defs><style>
    .sprite-symbol-usage {display: none;}
    .sprite-symbol-usage:target {display: inline;}
  </style><symbol viewBox="0 0 512 512" id="calculator"><g id="calculator_icomoon-ignore"></g><path d="M192 32h-160c-17.6 0-32 14.4-32 32v160c0 17.6 14.398 32 32 32h160c17.6 0 32-14.4 32-32v-160c0-17.6-14.4-32-32-32zM192 160h-160v-32h160v32zM448 32h-160c-17.602 0-32 14.4-32 32v416c0 17.6 14.398 32 32 32h160c17.6 0 32-14.4 32-32v-416c0-17.6-14.4-32-32-32zM448 320h-160v-32h160v32zM448 224h-160v-32h160v32zM192 288h-160c-17.6 0-32 14.4-32 32v160c0 17.6 14.398 32 32 32h160c17.6 0 32-14.4 32-32v-160c0-17.6-14.4-32-32-32zM192 416h-64v64h-32v-64h-64v-32h64v-64h32v64h64v32z" /></symbol><symbol viewBox="0 0 512 512" id="cool"><g id="cool_icomoon-ignore"></g><path d="M256 512c141.385 0 256-114.615 256-256s-114.615-256-256-256-256 114.615-256 256 114.615 256 256 256zM256 48c114.875 0 208 93.125 208 208s-93.125 208-208 208-208-93.125-208-208 93.125-208 208-208zM400 128c8.8 0 16 7.2 16 16v48c0 17.6-14.4 32-32 32h-64c-17.6 0-32-14.4-32-32h-64c0 17.6-14.4 32-32 32h-64c-17.6 0-32-14.4-32-32v-48c0-8.8 7.2-16 16-16h96c8.8 0 16 7.2 16 16v16h64v-16c0-8.8 7.2-16 16-16h96zM256 384c46.604 0 87.386-24.909 109.773-62.139l27.44 16.467c-27.983 46.535-78.958 77.672-137.213 77.672-24.229 0-47.192-5.398-67.77-15.041l16.581-27.639c15.677 6.857 32.982 10.68 51.189 10.68z" /></symbol><symbol viewBox="0 0 512 512" id="happy"><g id="happy_icomoon-ignore"></g><path d="M256 512c141.385 0 256-114.615 256-256s-114.615-256-256-256-256 114.615-256 256 114.615 256 256 256zM256 48c114.875 0 208 93.125 208 208s-93.125 208-208 208-208-93.125-208-208 93.125-208 208-208zM256 299.38c57.975 0 113.115-15.403 160-42.46-7.287 89.219-76.564 159.080-160 159.080-83.434 0-152.711-69.936-160-159.152 46.885 27.056 102.025 42.532 160 42.532zM128 176c0-26.51 14.327-48 32-48s32 21.49 32 48c0 26.51-14.327 48-32 48s-32-21.49-32-48zM320 176c0-26.51 14.327-48 32-48s32 21.49 32 48c0 26.51-14.327 48-32 48s-32-21.49-32-48z" /></symbol></defs><use id="calculator-usage" xlink:href="#calculator" class="sprite-symbol-usage" /><use id="cool-usage" xlink:href="#cool" class="sprite-symbol-usage" /><use id="happy-usage" xlink:href="#happy" class="sprite-symbol-usage" /></svg>